<?xml version="1.0" encoding="utf-8"?>
<!-- Generator: Adobe Illustrator 27.8.0, SVG Export Plug-In . SVG Version: 6.00 Build 0)  -->
<svg version="1.1" id="Ebene_1" xmlns="http://www.w3.org/2000/svg" xmlns:xlink="http://www.w3.org/1999/xlink" x="0px" y="0px"
	 viewBox="0 0 467 500" style="enable-background:new 0 0 467 500;" xml:space="preserve">
<g>
	<g>
		<path style="fill:#1D1D1B;" d="M5.77,60.41c0-14.38,11.74-26.12,26.32-26.12c9.31,0,17.51,4.76,22.17,11.95l-12.15,8.6
			c-2.03-3.75-5.57-6.28-10.02-6.28c-6.28,0-10.93,4.86-10.93,11.84c0,6.99,4.66,11.84,10.93,11.84c4.45,0,8-2.53,10.02-6.28
			l12.15,8.61c-4.66,7.19-12.86,11.95-22.17,11.95C17.52,86.53,5.77,74.79,5.77,60.41z"/>
		<path style="fill:#1D1D1B;" d="M85.14,49.27c-3.14,0-6.78,1.21-9.21,3.34v33.1H60.64V35.1h15.29v4.45
			c2.84-3.54,6.58-5.26,11.54-5.26c1.62,0,3.54,0.2,5.47,0.81v15.89C90.61,49.78,87.78,49.27,85.14,49.27z"/>
		<path style="fill:#1D1D1B;" d="M96.48,60.41c0-14.88,10.53-26.12,26.12-26.12c12.86,0,24.4,8.4,24.4,24.4
			c0,1.42-0.1,2.94-0.3,4.45h-35.53c0.81,6.78,6.48,9.42,11.03,9.42c5.37,0,8.81-2.63,10.83-6.38l12.15,8.2
			c-4.66,7.29-12.86,12.15-22.88,12.15C108.93,86.53,96.48,76,96.48,60.41z M131.92,54.23l-0.1-0.61
			c-1.01-4.96-5.37-7.09-10.12-7.09c-3.64,0-8.91,1.62-10.33,7.69H131.92z"/>
		<path style="fill:#1D1D1B;" d="M176.66,86.53c-14.98,0-24.5-12.25-24.5-26.12c0-13.87,9.52-26.12,24.5-26.12
			c4.15,0,8.2,1.42,11.14,3.85V35.1h15.29v50.62H187.8v-3.04C184.86,85.11,180.81,86.53,176.66,86.53z M187.8,68.31V52.51
			c-2.02-2.73-4.86-4.25-8.61-4.25c-7.29,0-11.64,5.47-11.64,12.15s4.35,12.15,11.64,12.15C182.94,72.56,185.77,71.04,187.8,68.31z"
			/>
		<path style="fill:#1D1D1B;" d="M216.85,70.13V48.46h-6.58l-3.34-13.36h9.92v-7.59l15.29-7.59V35.1h16l-3.34,13.36h-12.66v17.31
			c0,4.25,1.72,5.97,5.87,5.97h8.3v13.97h-13.97C222.82,85.72,216.85,79.75,216.85,70.13z"/>
		<path style="fill:#1D1D1B;" d="M262.61,13.03c5.06,0,9.11,4.05,9.11,9.11c0,2.23-0.71,4.25-2.02,5.77h-14.17
			c-1.32-1.52-2.03-3.54-2.03-5.77C253.5,17.08,257.55,13.03,262.61,13.03z M254.91,85.72V35.1h15.39v50.62H254.91z"/>
		<path style="fill:#1D1D1B;" d="M315.15,35.1h17.61L303.3,86.53L273.84,35.1h17.62l11.84,22.07L315.15,35.1z"/>
		<path style="fill:#1D1D1B;" d="M330.23,60.41c0-14.88,10.53-26.12,26.12-26.12c12.86,0,24.4,8.4,24.4,24.4
			c0,1.42-0.1,2.94-0.3,4.45h-35.53c0.81,6.78,6.48,9.42,11.03,9.42c5.37,0,8.81-2.63,10.83-6.38l12.15,8.2
			c-4.66,7.29-12.86,12.15-22.88,12.15C342.68,86.53,330.23,76,330.23,60.41z M365.67,54.23l-0.1-0.61
			c-1.01-4.96-5.37-7.09-10.12-7.09c-3.65,0-8.91,1.62-10.33,7.69H365.67z"/>
	</g>
	<g>
		<path style="fill:#1D1D1B;" d="M16.41,114.27c5.06,0,9.11,4.05,9.11,9.11c0,2.23-0.71,4.25-2.02,5.77H9.32
			c-1.32-1.52-2.03-3.54-2.03-5.77C7.29,118.31,11.34,114.27,16.41,114.27z M8.71,186.95v-50.62H24.1v50.62H8.71z"/>
		<path style="fill:#1D1D1B;" d="M59.53,149.5c-2.94,0-6.58,1.52-9.11,4.35v33.1H35.13v-50.62h15.29v3.04
			c3.04-2.43,7.19-3.85,11.64-3.85c14.27,0,22.07,9.52,22.07,23.18v28.25H68.85v-25.51C68.85,154.66,66.21,149.5,59.53,149.5z"/>
		<path style="fill:#1D1D1B;" d="M116.42,187.76c-14.98,0-24.5-12.25-24.5-26.12c0-13.87,9.52-26.12,24.5-26.12
			c4.15,0,8.2,1.42,11.14,3.85v-24.3h15.29v71.88h-15.29v-3.04C124.62,186.35,120.57,187.76,116.42,187.76z M127.56,169.54v-15.79
			c-2.02-2.73-4.86-4.25-8.61-4.25c-7.29,0-11.64,5.47-11.64,12.15c0,6.68,4.35,12.15,11.64,12.15
			C122.7,173.79,125.54,172.27,127.56,169.54z"/>
		<path style="fill:#1D1D1B;" d="M186.99,183.21c-3.04,2.83-7.8,4.56-12.05,4.56c-13.67,0-21.66-9.42-21.66-23.18v-28.25h15.29
			v25.51c0,6.88,2.83,11.95,8.91,11.95c3.75,0,7.49-1.82,9.52-5.16v-32.3h15.29v50.62h-15.29V183.21z"/>
		<path style="fill:#1D1D1B;" d="M228.29,187.76c-8.81,0-16-3.14-20.35-10.73l11.64-7.9c2.03,3.64,4.76,6.18,9.31,6.18
			c2.13,0,3.95-0.51,3.95-2.33c0-1.92-1.42-2.53-6.38-4.45l-2.63-1.01c-8.81-3.44-13.36-9.11-13.36-16.3
			c0-9.31,7.69-15.69,17.41-15.69c6.48,0,12.15,2.43,15.99,8l-8.71,8.61c-1.92-2.73-4.15-4.56-7.29-4.56
			c-2.03,0-3.64,0.71-3.64,2.33c0,2.02,1.62,2.63,6.68,4.56l2.13,0.81c9.62,3.64,13.57,8.91,13.57,16.4
			C246.61,181.99,238.61,187.76,228.29,187.76z"/>
		<path style="fill:#1D1D1B;" d="M257.14,171.36V149.7h-6.58l-3.34-13.36h9.92v-7.59l15.29-7.59v15.19h16l-3.34,13.36h-12.66v17.31
			c0,4.25,1.72,5.97,5.87,5.97h8.3v13.97h-13.97C263.11,186.95,257.14,180.98,257.14,171.36z"/>
		<path style="fill:#1D1D1B;" d="M319.7,150.51c-3.14,0-6.78,1.22-9.21,3.34v33.1H295.2v-50.62h15.29v4.45
			c2.84-3.54,6.58-5.26,11.54-5.26c1.62,0,3.54,0.2,5.47,0.81v15.89C325.17,151.01,322.34,150.51,319.7,150.51z"/>
		<path style="fill:#1D1D1B;" d="M341.67,114.27c5.06,0,9.11,4.05,9.11,9.11c0,2.23-0.71,4.25-2.02,5.77h-14.17
			c-1.32-1.52-2.03-3.54-2.03-5.77C332.56,118.31,336.61,114.27,341.67,114.27z M333.98,186.95v-50.62h15.39v50.62H333.98z"/>
		<path style="fill:#1D1D1B;" d="M357.46,161.64c0-14.88,10.53-26.12,26.12-26.12c12.86,0,24.4,8.4,24.4,24.4
			c0,1.42-0.1,2.94-0.3,4.45h-35.53c0.81,6.78,6.48,9.42,11.03,9.42c5.37,0,8.81-2.63,10.83-6.38l12.15,8.2
			c-4.66,7.29-12.86,12.15-22.88,12.15C369.91,187.76,357.46,177.23,357.46,161.64z M392.9,155.47l-0.1-0.61
			c-1.01-4.96-5.37-7.09-10.12-7.09c-3.65,0-8.91,1.62-10.33,7.69H392.9z"/>
		<path style="fill:#1D1D1B;" d="M431.77,187.76c-8.81,0-16-3.14-20.35-10.73l11.64-7.9c2.03,3.64,4.76,6.18,9.31,6.18
			c2.13,0,3.95-0.51,3.95-2.33c0-1.92-1.42-2.53-6.38-4.45l-2.63-1.01c-8.81-3.44-13.36-9.11-13.36-16.3
			c0-9.31,7.69-15.69,17.41-15.69c6.48,0,12.15,2.43,15.99,8l-8.71,8.61c-1.92-2.73-4.15-4.56-7.29-4.56
			c-2.03,0-3.64,0.71-3.64,2.33c0,2.02,1.62,2.63,6.68,4.56l2.13,0.81c9.62,3.64,13.57,8.91,13.57,16.4
			C450.09,181.99,442.1,187.76,431.77,187.76z"/>
	</g>
	<g>
		<path style="fill:#1D1D1B;" d="M10.94,250.93H4.36v-13.36h7.39c-1.92-2.23-3.14-5.16-3.14-8.4c0-7.19,5.26-12.86,13.67-12.86
			h15.69v13.36h-9.92c-3.54,0-4.96,1.72-4.96,3.95c0,2.23,1.72,3.95,3.95,3.95h10.93v13.36H26.23v37.26H10.94V250.93z"/>
		<path style="fill:#1D1D1B;" d="M77.65,284.44c-3.04,2.83-7.8,4.56-12.05,4.56c-13.67,0-21.66-9.42-21.66-23.18v-28.25h15.29v25.51
			c0,6.88,2.83,11.95,8.91,11.95c3.75,0,7.49-1.82,9.52-5.16v-32.3h15.29v50.62H77.65V284.44z"/>
		<path style="fill:#1D1D1B;" d="M128.37,250.73c-2.94,0-6.58,1.52-9.11,4.35v33.1h-15.29v-50.62h15.29v3.04
			c3.04-2.43,7.19-3.85,11.64-3.85c14.27,0,22.07,9.52,22.07,23.18v28.25h-15.29v-25.51C137.69,255.9,135.05,250.73,128.37,250.73z"
			/>
		<path style="fill:#1D1D1B;" d="M185.26,289c-14.98,0-24.5-12.25-24.5-26.12c0-13.87,9.52-26.12,24.5-26.12
			c4.15,0,8.2,1.42,11.14,3.85v-24.3h15.29v71.88H196.4v-3.04C193.46,287.58,189.41,289,185.26,289z M196.4,270.78v-15.79
			c-2.02-2.73-4.86-4.25-8.61-4.25c-7.29,0-11.64,5.47-11.64,12.15c0,6.68,4.35,12.15,11.64,12.15
			C191.54,275.03,194.38,273.51,196.4,270.78z"/>
		<path style="fill:#1D1D1B;" d="M306.44,289l-45.35-38.37v37.56h-16.2V215.5l45.35,38.37v-37.56h16.2V289z"/>
		<path style="fill:#1D1D1B;" d="M319.1,216.31h16.3v55.78h27.84v16.1H319.1V216.31z"/>
	</g>
</g>
</svg>
