<?xml version="1.0" encoding="utf-8"?>
<!-- Generator: Adobe Illustrator 27.8.0, SVG Export Plug-In . SVG Version: 6.00 Build 0)  -->
<svg version="1.1" id="Ebene_1" xmlns="http://www.w3.org/2000/svg" xmlns:xlink="http://www.w3.org/1999/xlink" x="0px" y="0px"
	 viewBox="0 0 250 500" style="enable-background:new 0 0 250 500;" xml:space="preserve">
<polygon style="fill:#1D1D1B;" points="170.34,6.23 149.5,6.23 149.5,27.07 149.5,110.59 170.34,110.59 170.34,68.75 232.95,68.75 
	232.95,47.91 170.34,47.91 170.34,27.07 232.99,27.07 232.99,6.23 "/>
<polygon style="fill:#1D1D1B;" points="170.34,158.24 170.34,126.16 149.5,126.16 149.5,230.4 170.34,230.4 170.34,198.22 
	226.19,232.51 237.09,214.75 177.62,178.23 237.09,141.71 226.19,123.95 "/>
<path style="fill:#1D1D1B;" d="M78.73,55l19.61,81.86H59.16L78.73,55z M88.54,4L67.71,8.98L15.56,227.11l20.84,4.98l17.64-73.8
	h49.44l17.65,73.7l20.83-4.98L88.54,4z"/>
<g>
	<defs>
		<rect id="SVGID_1_" x="15.56" y="4" width="221.53" height="333"/>
	</defs>
	<clipPath id="SVGID_00000133515119726566518210000011601685784440069532_">
		<use xlink:href="#SVGID_1_"  style="overflow:visible;"/>
	</clipPath>
	<path style="clip-path:url(#SVGID_00000133515119726566518210000011601685784440069532_);fill:#1D1D1B;" d="M49.9,325.81
		c0,6.64-3.18,7.9-5.77,7.9c-1.36,0-3.21-0.74-3.21-4.23v-11.29H37.1v11.53c0,4.58,1.96,7.28,6.81,7.28c1.5,0,3.46-0.53,5.21-2.17
		l0.77,1.85h3.81v-18.49H49.9V325.81z"/>
	<path style="clip-path:url(#SVGID_00000133515119726566518210000011601685784440069532_);fill:#1D1D1B;" d="M81.54,323.29
		c0.07-1.85,2.14-2.13,3.57-2.13c3.15,0,4.41,1.29,4.62,1.5l2.34-2.1c-0.32-0.42-2.59-2.69-6.96-2.69c-3.29,0-6.96,1.47-6.96,5.42
		c0,7.41,11.3,4.51,11.3,8.25c0,1.82-2.14,2.17-3.53,2.17c-1.89,0-4.02-0.25-5.35-2.03l-2.97,1.05c0.42,1.01,2.24,4.27,8.25,4.27
		c3.67,0,7.13-1.64,7.13-5.66C92.98,324.16,81.54,327.28,81.54,323.29"/>
	<path style="clip-path:url(#SVGID_00000133515119726566518210000011601685784440069532_);fill:#1D1D1B;" d="M68.05,317.87
		c-1.5,0-3.46,0.53-5.21,2.17l-0.77-1.86h-3.81v18.5h3.81v-7.62c0-6.65,3.19-7.9,5.77-7.9c1.36,0,3.22,0.73,3.22,4.23v11.29h3.81
		v-11.54C74.87,320.57,72.91,317.87,68.05,317.87"/>
</g>
<polygon style="fill:#1D1D1B;" points="17.7,311.86 17.7,336.68 21.51,336.68 21.51,331.58 24.93,327.8 30.77,336.68 35.43,336.68 
	27.45,325.07 33.71,318.19 28.82,318.19 21.51,326.4 21.51,311.86 "/>
<g>
	<defs>
		<rect id="SVGID_00000056402126750600926710000011521736047886972341_" x="15.56" y="4" width="221.53" height="333"/>
	</defs>
	<clipPath id="SVGID_00000119830851013994357740000017982287551996797088_">
		<use xlink:href="#SVGID_00000056402126750600926710000011521736047886972341_"  style="overflow:visible;"/>
	</clipPath>
	<path style="clip-path:url(#SVGID_00000119830851013994357740000017982287551996797088_);fill:#1D1D1B;" d="M101.3,311.86h-3.77
		v6.33h-3.5v3.32h3.5v9.62c0,4.65,1.68,5.88,4.61,5.88c1.12,0,2.41-0.17,3.88-0.42v-3.25c0,0-0.77,0.21-2.02,0.21
		c-1.68,0-2.69-0.63-2.69-2.73v-9.3h4.72v-3.32h-4.72V311.86z"/>
	<path style="clip-path:url(#SVGID_00000119830851013994357740000017982287551996797088_);fill:#1D1D1B;" d="M220.96,290.49
		c0.59-2.8,2.69-4.3,5.35-4.3c2.76,0,4.86,1.61,5.35,4.3H220.96z M226.31,282.91c-5.63,0-9.16,4.09-9.16,9.58
		c0,5.88,3.5,9.54,9.16,9.54c3.6,0,6.57-1.78,8.01-4.3l-2.83-1.68c-0.94,1.61-2.55,2.59-5.18,2.59c-3.39,0-5.07-1.54-5.46-4.76
		h14.27v-1.75C234.92,286.69,231.66,282.91,226.31,282.91"/>
	<path style="clip-path:url(#SVGID_00000119830851013994357740000017982287551996797088_);fill:#1D1D1B;" d="M208.48,296.86
		c-0.98,1.05-2.38,1.78-3.88,1.78c-3.29,0-5.42-3.01-5.42-6.19c0-2.97,2-6.15,5.42-6.15c1.47,0,2.87,0.59,3.92,1.74
		c0.98,1.08,1.54,2.69,1.54,4.41C210.06,294.17,209.5,295.78,208.48,296.86 M209.81,285.5c-1.22-1.5-2.94-2.59-5.21-2.59
		c-2.55,0-4.9,0.91-6.54,2.69c-1.68,1.78-2.69,4.19-2.69,6.85c0,2.66,1.01,5.07,2.66,6.85c1.44,1.54,3.39,2.72,6.57,2.72
		c1.89,0,3.43-0.8,4.58-1.92l0.63,1.61h3.81v-24.83h-3.81V285.5z"/>
	<path style="clip-path:url(#SVGID_00000119830851013994357740000017982287551996797088_);fill:#1D1D1B;" d="M180.55,285.36
		l-0.84-2.14h-3.78v18.5h3.78v-7.2c0-6.54,2.94-8.32,5.98-8.32c0.39,0,0.88,0,1.36,0.14v-3.29c-0.42-0.07-0.87-0.14-1.36-0.14
		C184.15,282.91,182.2,283.68,180.55,285.36"/>
	<path style="clip-path:url(#SVGID_00000119830851013994357740000017982287551996797088_);fill:#1D1D1B;" d="M163.25,298.75
		c-3.57,0-5.46-3.01-5.46-6.26c0-3.32,2.03-6.29,5.46-6.29c3.53,0,5.38,3.15,5.38,6.29C168.63,295.74,166.57,298.75,163.25,298.75
		 M163.25,282.91c-5.52,0-9.23,4.72-9.23,9.58c0,5.24,4.09,9.54,9.23,9.54c5.46,0,9.16-4.33,9.16-9.54
		C172.41,287.63,168.7,282.91,163.25,282.91"/>
	<path style="clip-path:url(#SVGID_00000119830851013994357740000017982287551996797088_);fill:#1D1D1B;" d="M142.34,298.75
		c-3.57,0-5.46-3.01-5.46-6.26c0-3.32,2.03-6.29,5.46-6.29c3.53,0,5.38,3.15,5.38,6.29C147.72,295.74,145.66,298.75,142.34,298.75
		 M142.34,282.91c-5.52,0-9.23,4.72-9.23,9.58c0,5.24,4.09,9.54,9.23,9.54c5.46,0,9.16-4.33,9.16-9.54
		C151.5,287.63,147.79,282.91,142.34,282.91"/>
</g>
<polygon style="fill:#1D1D1B;" points="122.97,296.62 117.83,283.22 113.77,283.22 121.08,301.72 124.82,301.72 132.13,283.22 
	128.11,283.22 "/>
<g>
	<defs>
		<rect id="SVGID_00000150074022984632751990000003205183134065126533_" x="15.56" y="4" width="221.53" height="333"/>
	</defs>
	<clipPath id="SVGID_00000049196324582687401300000002703563404317933500_">
		<use xlink:href="#SVGID_00000150074022984632751990000003205183134065126533_"  style="overflow:visible;"/>
	</clipPath>
	<path style="clip-path:url(#SVGID_00000049196324582687401300000002703563404317933500_);fill:#1D1D1B;" d="M94.83,288.33
		c0.07-1.85,2.14-2.13,3.57-2.13c3.15,0,4.41,1.29,4.62,1.5l2.34-2.1c-0.32-0.42-2.59-2.69-6.96-2.69c-3.29,0-6.96,1.47-6.96,5.42
		c0,7.41,11.3,4.51,11.3,8.25c0,1.82-2.14,2.17-3.53,2.17c-1.89,0-4.02-0.25-5.35-2.03l-2.97,1.05c0.42,1.01,2.24,4.27,8.25,4.27
		c3.67,0,7.13-1.64,7.13-5.66C106.26,289.2,94.83,292.31,94.83,288.33"/>
	<path style="clip-path:url(#SVGID_00000049196324582687401300000002703563404317933500_);fill:#1D1D1B;" d="M78.99,286.3
		c1.47,0,2.87,0.6,3.92,1.75c0.98,1.08,1.54,2.69,1.54,4.41c0,1.72-0.56,3.32-1.58,4.41c-0.98,1.05-2.38,1.78-3.88,1.78
		c-3.29,0-5.42-3-5.42-6.19C73.57,289.48,75.56,286.3,78.99,286.3 M78.99,302.03c1.89,0,3.43-0.8,4.58-1.92l0.63,1.61h3.81V276.9
		H84.2v8.6c-1.22-1.5-2.94-2.59-5.21-2.59c-2.55,0-4.9,0.91-6.54,2.69c-1.68,1.78-2.69,4.2-2.69,6.85c0,2.66,1.01,5.07,2.66,6.85
		C73.85,300.84,75.81,302.03,78.99,302.03"/>
	<path style="clip-path:url(#SVGID_00000049196324582687401300000002703563404317933500_);fill:#1D1D1B;" d="M62.56,290.43v11.29
		h3.81v-11.54c0-4.58-1.96-7.27-6.82-7.27c-1.5,0-3.46,0.53-5.21,2.17l-0.77-1.85h-3.81v18.49h3.81v-7.62c0-6.65,3.18-7.9,5.77-7.9
		C60.7,286.19,62.56,286.93,62.56,290.43"/>
	<path style="clip-path:url(#SVGID_00000049196324582687401300000002703563404317933500_);fill:#1D1D1B;" d="M37.07,298.75
		c-3.57,0-5.45-3.01-5.45-6.26c0-3.32,2.02-6.29,5.45-6.29c3.53,0,5.38,3.15,5.38,6.29C42.45,295.74,40.39,298.75,37.07,298.75
		 M46.23,292.49c0-4.86-3.71-9.58-9.16-9.58c-5.52,0-9.23,4.72-9.23,9.58c0,5.24,4.09,9.55,9.23,9.55
		C42.52,302.04,46.23,297.7,46.23,292.49"/>
	<path style="clip-path:url(#SVGID_00000049196324582687401300000002703563404317933500_);fill:#1D1D1B;" d="M18.75,301.72h3.78
		v-15.17h3.49v-3.33h-3.49c0-2.34,0.59-3.18,2.13-3.18c0.49,0,1.08,0.07,1.78,0.21v-3.43c-1.02-0.14-1.89-0.25-2.69-0.25
		c-3.43,0-5,1.68-5,6.64h-3.18v3.33h3.18V301.72z"/>
	<path style="clip-path:url(#SVGID_00000049196324582687401300000002703563404317933500_);fill:#1D1D1B;" d="M153.95,261.37
		c0-0.98,0.32-2.8,3.78-2.97c1.15-0.07,3.57,0.11,4.33-0.98v1.05c0,3.04-0.59,5.56-5.1,5.56
		C154.55,264.03,153.95,262.24,153.95,261.37 M162.03,265.01c0,0.21,0.03,1.75,1.26,1.75h2.8v-0.63c-0.46,0-0.6-0.49-0.6-0.73V254.8
		c0-4.51-2.87-6.85-7.13-6.85c-2.8,0-5.49,1.08-7.09,3.21l2.48,2.17c1.08-1.5,2.83-2.2,4.61-2.2c2.17,0,3.57,1.19,3.57,2.41
		c0,1.05-0.87,1.71-2.76,1.78c-4.65,0.17-9.02,0.73-9.02,6.05c0,4.05,3.25,5.7,6.82,5.7C159.72,267.07,160.88,266.16,162.03,265.01"
		/>
	<path style="clip-path:url(#SVGID_00000049196324582687401300000002703563404317933500_);fill:#1D1D1B;" d="M98.54,255.53
		c0.59-2.8,2.69-4.3,5.35-4.3c2.76,0,4.86,1.61,5.35,4.3H98.54z M103.89,247.94c-5.63,0-9.16,4.09-9.16,9.58
		c0,5.88,3.5,9.55,9.16,9.55c3.6,0,6.57-1.79,8.01-4.3l-2.83-1.68c-0.94,1.61-2.55,2.59-5.18,2.59c-3.39,0-5.07-1.54-5.46-4.76
		h14.27v-1.75C112.49,251.72,109.24,247.94,103.89,247.94"/>
	<path style="clip-path:url(#SVGID_00000049196324582687401300000002703563404317933500_);fill:#1D1D1B;" d="M206.26,263.78
		c-1.89,0-4.02-0.25-5.35-2.03l-2.97,1.05c0.42,1.01,2.24,4.27,8.25,4.27c3.67,0,7.13-1.64,7.13-5.67c0-7.17-11.43-4.05-11.43-8.04
		c0.07-1.86,2.14-2.13,3.57-2.13c3.15,0,4.41,1.29,4.62,1.5l2.34-2.1c-0.32-0.42-2.59-2.69-6.96-2.69c-3.29,0-6.96,1.47-6.96,5.42
		c0,7.41,11.3,4.51,11.3,8.25C209.8,263.43,207.66,263.78,206.26,263.78"/>
	<path style="clip-path:url(#SVGID_00000049196324582687401300000002703563404317933500_);fill:#1D1D1B;" d="M72.84,263.78
		c-1.89,0-4.02-0.25-5.35-2.03l-2.97,1.05c0.42,1.01,2.24,4.27,8.25,4.27c3.67,0,7.13-1.64,7.13-5.67c0-7.17-11.43-4.05-11.43-8.04
		c0.07-1.86,2.14-2.13,3.57-2.13c3.15,0,4.41,1.29,4.62,1.5l2.34-2.1c-0.32-0.42-2.59-2.69-6.96-2.69c-3.29,0-6.96,1.47-6.96,5.42
		c0,7.41,11.3,4.51,11.3,8.25C76.37,263.43,74.24,263.78,72.84,263.78"/>
	<path style="clip-path:url(#SVGID_00000049196324582687401300000002703563404317933500_);fill:#1D1D1B;" d="M143.01,257.49
		c0,1.72-0.56,3.32-1.58,4.41c-0.98,1.05-2.38,1.78-3.88,1.78c-3.29,0-5.42-3.01-5.42-6.19c0-2.97,2-6.15,5.42-6.15
		c1.47,0,2.87,0.6,3.91,1.75C142.45,254.17,143.01,255.77,143.01,257.49 M131.02,250.64c-1.68,1.78-2.69,4.2-2.69,6.85
		c0,2.66,1.02,5.07,2.66,6.85c1.43,1.54,3.39,2.73,6.57,2.73c1.88,0,3.43-0.8,4.58-1.92l0.63,1.6h3.81v-24.82h-3.81v8.6
		c-1.22-1.5-2.94-2.59-5.21-2.59C135,247.94,132.66,248.85,131.02,250.64"/>
	<path style="clip-path:url(#SVGID_00000049196324582687401300000002703563404317933500_);fill:#1D1D1B;" d="M188.29,247.94
		c-1.01,0-3.39,0.49-5.21,2.8c-1.33-2.41-3.91-2.8-5.49-2.8c-1.29,0-2.73,0.49-4.05,1.92l-0.63-1.61h-3.77v18.5h3.81v-8.46
		c0-3.14,0.74-6.95,4.44-6.95c2.76,0,3.11,2.9,3.11,4.76v10.66h3.81v-7.62c0-6.51,1.72-7.8,3.99-7.8c2.62,0,3.11,1.92,3.11,4.34
		v11.08h3.81v-10.66C195.21,252.95,195.11,247.94,188.29,247.94"/>
	<path style="clip-path:url(#SVGID_00000049196324582687401300000002703563404317933500_);fill:#1D1D1B;" d="M120.01,248.26h-3.78
		v18.5h3.78v-7.21c0-6.54,2.94-8.32,5.98-8.32c0.39,0,0.88,0,1.37,0.14v-3.29c-0.42-0.07-0.88-0.14-1.37-0.14
		c-1.54,0-3.49,0.77-5.14,2.45L120.01,248.26z"/>
	<path style="clip-path:url(#SVGID_00000049196324582687401300000002703563404317933500_);fill:#1D1D1B;" d="M28.64,257.42v1.05
		c0,3.04-0.59,5.56-5.1,5.56c-2.41,0-3.01-1.78-3.01-2.66c0-0.98,0.31-2.8,3.78-2.97C25.46,258.33,27.87,258.5,28.64,257.42
		 M25.74,255.32c-4.65,0.17-9.02,0.73-9.02,6.05c0,4.05,3.25,5.7,6.82,5.7c2.76,0,3.92-0.91,5.07-2.07c0,0.21,0.03,1.75,1.26,1.75
		h2.8v-0.63c-0.46,0-0.6-0.49-0.6-0.73V254.8c0-4.51-2.87-6.85-7.13-6.85c-2.8,0-5.49,1.08-7.09,3.22l2.48,2.16
		c1.08-1.5,2.83-2.2,4.61-2.2c2.17,0,3.57,1.19,3.57,2.41C28.5,254.58,27.63,255.25,25.74,255.32"/>
	<path style="clip-path:url(#SVGID_00000049196324582687401300000002703563404317933500_);fill:#1D1D1B;" d="M61.79,266.75v-10.67
		c0-3.15-0.11-8.15-6.92-8.15c-1.02,0-3.39,0.49-5.21,2.8c-1.33-2.41-3.92-2.8-5.49-2.8c-1.3,0-2.73,0.49-4.06,1.92l-0.63-1.61H35.7
		v18.5h3.81v-8.46c0-3.14,0.73-6.95,4.44-6.95c2.76,0,3.11,2.9,3.11,4.75v10.67h3.81v-7.62c0-6.51,1.72-7.8,3.99-7.8
		c2.62,0,3.11,1.92,3.11,4.33v11.09H61.79z"/>
	<path style="clip-path:url(#SVGID_00000049196324582687401300000002703563404317933500_);fill:#1D1D1B;" d="M92.94,251.58v-3.32
		h-4.72v-6.33h-3.78v6.33h-3.49v3.32h3.49v9.62c0,4.65,1.68,5.88,4.62,5.88c1.12,0,2.41-0.18,3.88-0.42v-3.25
		c0,0-0.77,0.21-2.03,0.21c-1.68,0-2.69-0.63-2.69-2.72v-9.3H92.94z"/>
</g>
</svg>
