<?xml version="1.0" encoding="utf-8"?>
<!-- Generator: Adobe Illustrator 27.8.0, SVG Export Plug-In . SVG Version: 6.00 Build 0)  -->
<svg version="1.1" id="Ebene_1" xmlns="http://www.w3.org/2000/svg" xmlns:xlink="http://www.w3.org/1999/xlink" x="0px" y="0px"
	 viewBox="0 0 555 500" style="enable-background:new 0 0 555 500;" xml:space="preserve">
<g>
	<path style="fill:#1D1D1B;" d="M539.53,124.87h-15.7c-8.35,9.91-21.51,16.98-28.16,20.66v19.1c9.9-4.24,17.83-9.34,23.49-13.3
		v79.94h20.37L539.53,124.87L539.53,124.87z"/>
	<path style="fill:#1D1D1B;" d="M462.28,194.9c17.68-17.54,23.34-26.45,23.34-39.75c0-17.26-13.86-30.28-33.81-30.28
		c-14.43,0-33.39,9.2-33.39,34.8v2.27h19.53c0-13.02,5.23-18.96,13.86-18.96c8.35,0,12.59,6.51,12.59,12.73
		c0,5.37-1.84,10.47-9.2,18.53l-38.34,41.03v15.99h69.89v-18.11h-42.59L462.28,194.9z"/>
	<path style="fill:#1D1D1B;" d="M373.08,178.93l-17.12-5.46c-4.59-1.48-10.79-4.59-10.79-11.04c0-6.2,5.58-10.29,14.88-10.29
		c7.25,0,13.28,3.78,13.59,9.95h18.66c-0.04-6.9-4.71-25.82-33.36-25.82c-24.18,0-32.37,17.12-32.37,29.03
		c0,10.54,7.19,19.6,17.49,23.32l20.34,7.32c9.17,3.35,11.29,5.95,11.29,10.91c0,7.19-8.93,10.29-15.26,10.29
		c-9.05,0-16.87-3.84-16.87-13.76l-18.61,0.37c0,8.31,2.98,29.27,35.35,29.27c25.8,0,33.98-17.11,33.98-28.52
		C394.28,190.09,385.48,182.9,373.08,178.93z"/>
	<path style="fill:#1D1D1B;" d="M279.56,138h-35.1v93.27h35.6c23.81,0,44.4-16.87,44.4-46.64C324.46,154.62,307.84,138,279.56,138z
		 M278.81,215.39h-15.75v-61.52h14.26c21.09,0,27.78,15.01,27.78,30.63C305.11,199.02,297.92,215.39,278.81,215.39z"/>
	<polygon style="fill:#1D1D1B;" points="222.13,200.63 221.88,200.63 184.06,138 164.09,138 164.09,231.27 181.95,231.27 
		181.95,167.64 182.2,167.64 220.77,231.27 240,231.27 240,138 222.13,138 	"/>
	<path style="fill:#1D1D1B;" d="M115.9,136.26c-29.02,0-45.39,23.32-45.39,48.37c0,25.06,16.37,48.37,45.39,48.37
		c29.02,0,45.4-23.31,45.4-48.37C161.3,159.58,144.93,136.26,115.9,136.26z M115.9,216.38c-17.36,0-26.05-15.01-26.05-31.76
		c0-16.74,8.69-31.75,26.05-31.75c17.37,0,26.05,15.01,26.05,31.75C141.95,201.37,133.27,216.38,115.9,216.38z"/>
	<polygon style="fill:#1D1D1B;" points="14.51,231.27 33.12,231.27 33.12,192.44 68.34,192.44 68.34,175.82 33.12,175.82 
		33.12,154.62 69.21,154.62 69.21,138 14.51,138 	"/>
</g>
</svg>
