<?xml version="1.0" encoding="utf-8"?>
<!-- Generator: Adobe Illustrator 27.8.0, SVG Export Plug-In . SVG Version: 6.00 Build 0)  -->
<svg version="1.1" id="Ebene_1" xmlns="http://www.w3.org/2000/svg" xmlns:xlink="http://www.w3.org/1999/xlink" x="0px" y="0px"
	 viewBox="0 0 589 500" style="enable-background:new 0 0 589 500;" xml:space="preserve">
<g>
	<defs>
		<rect id="SVGID_00000149348668439857518660000009875966506682862761_" x="-39.62" y="-10.72" width="669.43" height="337.72"/>
	</defs>
	<clipPath id="SVGID_00000052068894213952063600000008206051323482229921_">
		<use xlink:href="#SVGID_00000149348668439857518660000009875966506682862761_"  style="overflow:visible;"/>
	</clipPath>
	<g style="clip-path:url(#SVGID_00000052068894213952063600000008206051323482229921_);">
		<path d="M513.9,268.69h13.32v-54.75l25.55,54.75h19.44v-65.97h-13.14v51.92l-24.73-51.92H513.9V268.69z M476.75,260.03
			c-12.41,0-16.88-10.58-16.88-24.27c0-13.69,4.47-24.27,16.88-24.27c12.41,0,16.88,10.58,16.88,24.27
			C493.63,249.44,489.16,260.03,476.75,260.03 M476.75,270.15c23.72,0,31.66-17.43,31.66-34.4s-7.94-34.4-31.66-34.4
			c-23.72,0-31.66,17.43-31.66,34.4S453.03,270.15,476.75,270.15 M425.56,268.69h14.14v-65.97h-14.14V268.69z M387.5,268.69h14.23
			v-55.02h19.62v-10.95h-53.47v10.95h19.62V268.69z M336.89,243.78l9.76-28.1l9.12,28.1H336.89z M338.62,202.72l-23.81,65.97h13.5
			l4.93-14.23h26.1l4.74,14.23h14.23l-22.9-65.97H338.62z M276.41,213.58c8.12-0.36,11.86,0.09,14.78,0.91
			c8.85,2.46,12.04,11.04,12.04,20.35c0,3.19-0.36,13.05-5.93,18.61c-4.11,4.11-9.31,4.56-15.33,4.56c-1.64,0-4.01-0.09-5.57-0.18
			V213.58z M262.09,268.69h20.53c6.66,0,9.4-0.27,11.86-0.73c12.5-2.28,23.36-12.87,23.36-33.12c0-9.4-2.92-19.89-11.22-25.91
			c-7.48-5.38-17.15-6.2-22.72-6.2h-21.81V268.69z M196.07,268.69h13.32v-54.75l25.55,54.75h19.44v-65.97h-13.14v51.92l-24.73-51.92
			h-20.44V268.69z M131.74,202.72v39.6c0,6.11,0.18,11.22,3.38,16.24c6.2,9.95,18.25,11.41,24.82,11.41
			c13.32,0,28.92-6.3,28.92-25.91v-41.33h-13.78v39.6c0,6.66-0.73,9.22-2.1,11.22c-3.65,5.66-10.49,5.75-12.77,5.75
			c-13.78,0-14.33-9.03-14.33-16.24v-40.33H131.74z M94.62,260.03c-12.41,0-16.88-10.58-16.88-24.27c0-13.69,4.47-24.27,16.88-24.27
			s16.88,10.58,16.88,24.27C111.5,249.44,107.03,260.03,94.62,260.03 M94.62,270.15c23.72,0,31.66-17.43,31.66-34.4
			s-7.94-34.4-31.66-34.4s-31.66,17.43-31.66,34.4S70.9,270.15,94.62,270.15 M18.94,268.69h14.14V240.5h26.46v-10.95H33.08v-16.24
			h28.38v-10.58H18.94V268.69z"/>
		<path d="M152.12,191.14h14.23v-55.02h19.62v-10.95H132.5v10.95h19.62V191.14z M93.67,135.57h9.49c4.47,0,7.12,0,9.31,1.55
			c1.28,0.82,3.47,2.92,3.47,7.39c0,4.65-2.65,6.93-3.65,7.66C110,154,106.72,154,105.08,154H93.67V135.57z M79.71,191.14h14.42
			v-26.64h12.41c2.37,0,5.84,0,7.12,3.74c0.91,2.55,2.92,19.25,3.56,22.9h15.6c-0.73-1.09-1.28-1.82-2.01-4.74
			c-0.46-1.82-1-5.02-2.01-12.77c-1.19-8.58-1.92-14.23-11.86-15.15c3.19-0.91,13.78-3.83,13.78-16.15c0-4.29-1.64-9.12-5.75-12.68
			c-5.29-4.56-12.68-4.56-19.98-4.47H79.71V191.14z M35.37,166.23l9.76-28.1l9.12,28.1H35.37z M37.1,125.17l-23.81,65.97h13.5
			l4.93-14.23h26.1l4.74,14.23h14.23l-22.9-65.97H37.1z"/>
		<path d="M423.44,67.86c-0.09-3.56-0.37-8.76-4.74-13.78c-5.2-5.93-13.96-8.3-22.45-8.3c-19.98,0-34.58,12.5-34.58,35.86
			c0,6.93,1.37,17.43,8.76,24.64c5.2,5.11,12.96,8.76,28.01,8.76c12.32,0,19.98-2.28,24.09-3.65V78.45h-26.92V89.4h12.77v13.87
			c-1.55,0.46-3.92,1.28-10.77,1.28c-7.85,0-12.23-2.01-15.51-5.66c-4.84-5.2-5.47-13.23-5.47-17.7c0-10.13,3.19-25.09,19.25-25.09
			c3.1,0,8.3,0.73,11.04,5.11c1.64,2.55,1.73,4.93,1.82,6.66H423.44z M342.29,113.58h14.14V47.61h-14.14V113.58z M250.23,47.61
			l16.06,65.97h16.06l12.87-50.46l11.95,50.46h15.69l16.79-65.97h-13.5l-10.68,49.45l-11.59-49.45h-15.97l-12.87,49.45l-10.22-49.45
			H250.23z M213.83,113.58h14.23V58.56h19.62V47.61h-53.47v10.95h19.62V113.58z M155.38,58.01h9.49c4.47,0,7.12,0,9.31,1.55
			c1.28,0.82,3.47,2.92,3.47,7.39c0,4.65-2.65,6.93-3.65,7.66c-2.28,1.82-5.57,1.82-7.21,1.82h-11.41V58.01z M141.42,113.58h14.42
			V86.93h12.41c2.37,0,5.84,0,7.12,3.74c0.91,2.55,2.92,19.25,3.56,22.9h15.6c-0.73-1.09-1.28-1.82-2.01-4.74
			c-0.46-1.82-1-5.02-2.01-12.77c-1.19-8.58-1.92-14.23-11.86-15.15c3.19-0.91,13.78-3.83,13.78-16.15c0-4.29-1.64-9.12-5.75-12.68
			c-5.29-4.56-12.68-4.56-19.98-4.47h-25.27V113.58z M97.07,88.67l9.76-28.1l9.12,28.1H97.07z M98.81,47.61l-23.81,65.97h13.5
			l4.93-14.23h26.1l4.74,14.23h14.23l-22.9-65.97H98.81z M18.94,113.58h14.14V84.65h25.09v28.92h14.14V47.61H58v26.37H33.09V47.61
			H18.94V113.58z"/>
	</g>
</g>
</svg>
