<?xml version="1.0" encoding="UTF-8"?><svg id="uuid-fb22e240-ced8-4044-940f-31165315d4bc" xmlns="http://www.w3.org/2000/svg" viewBox="0 0 250.91 96.62"><defs><style>.uuid-e516d721-04f7-429e-9302-16c64963f8d9{fill:#1d1d1b;}.uuid-04380f15-4e62-4102-817b-811e7e08c6d7{fill:none;stroke:#dcd4d9;stroke-miterlimit:10;stroke-width:.5px;}</style></defs><g><path class="uuid-e516d721-04f7-429e-9302-16c64963f8d9" d="M19.93,19.22h4.53v9.77h.07c.46-.87,1.16-1.6,2.1-2.21,.94-.6,2.09-.9,3.44-.9,2.1,0,3.69,.72,4.78,2.17,1.09,1.45,1.63,3.25,1.63,5.39v11.11h-4.53v-10.82c0-2.78-1.07-4.16-3.22-4.16-1.38,0-2.43,.54-3.17,1.63-.74,1.09-1.1,2.44-1.1,4.05v9.3h-4.53V19.22Z"/><path class="uuid-e516d721-04f7-429e-9302-16c64963f8d9" d="M44.09,43.87c-1.36-.82-2.41-1.96-3.15-3.4-.74-1.45-1.1-3.08-1.1-4.89s.39-3.52,1.16-5c.77-1.47,1.85-2.62,3.22-3.44,1.38-.82,2.92-1.23,4.63-1.23s3.08,.36,4.33,1.07c1.24,.71,2.21,1.75,2.91,3.11,.7,1.36,1.05,2.98,1.05,4.83v1.34h-12.89c.1,1.67,.55,2.95,1.36,3.86,.81,.91,1.88,1.36,3.2,1.36,1.06,0,1.92-.26,2.59-.78s1.07-1.24,1.21-2.15h4.56c-.31,2.1-1.25,3.72-2.81,4.85-1.56,1.13-3.4,1.7-5.52,1.7-1.81,0-3.4-.41-4.76-1.23Zm7.35-13.47c-.64-.72-1.54-1.09-2.7-1.09-1.06,0-1.97,.32-2.73,.96-.76,.64-1.27,1.57-1.54,2.81h7.96c-.02-1.06-.36-1.95-1-2.68Z"/><path class="uuid-e516d721-04f7-429e-9302-16c64963f8d9" d="M63.24,43.69c-.93-.84-1.39-2.08-1.39-3.69v-12.82h-3.84v-.72h3.84v-3.73l4.05-3h.4v6.73h5.47v3.26h-5.58v11.84c0,.75,.18,1.33,.54,1.76,.36,.42,.89,.63,1.59,.63,.96,0,1.73-.39,2.3-1.16,.57-.77,.87-1.75,.92-2.93h.83c-.12,1.62-.59,2.87-1.41,3.77-.82,.89-2.04,1.34-3.66,1.34-1.79,0-3.14-.42-4.07-1.27Z"/><path class="uuid-e516d721-04f7-429e-9302-16c64963f8d9" d="M24.02,76.29c-1.58-.96-2.8-2.29-3.67-3.98-.86-1.69-1.29-3.63-1.29-5.8s.45-4.12,1.36-5.83c.9-1.71,2.18-3.04,3.83-4,1.65-.96,3.55-1.44,5.7-1.44,2.63,0,4.86,.76,6.69,2.27,1.83,1.51,2.88,3.71,3.13,6.59h-5.42c-.14-1.38-.6-2.48-1.38-3.28-.78-.8-1.83-1.21-3.16-1.21-1.61,0-2.91,.62-3.9,1.86-.99,1.24-1.48,2.92-1.48,5.04s.49,3.76,1.46,5.02c.97,1.26,2.27,1.89,3.88,1.89,1.38,0,2.48-.38,3.28-1.14s1.28-1.81,1.42-3.14h5.42c-.34,2.85-1.48,5-3.41,6.44s-4.26,2.16-6.97,2.16c-2.09,0-3.93-.48-5.51-1.44Z"/><path class="uuid-e516d721-04f7-429e-9302-16c64963f8d9" d="M45.33,74.42c-.69-.63-1.67-.94-2.95-.94v-14.48h3.98v14.48h4.34c1.28,0,2.26-.31,2.95-.94,.69-.63,1.03-1.52,1.03-2.68v-10.86h3.98v18.1h-12.31c0-1.16-.34-2.05-1.03-2.68Z"/><path class="uuid-e516d721-04f7-429e-9302-16c64963f8d9" d="M60.92,76.37h3.87v-24.44h-3.87v-.72h8.22v25.16h3.87v.72h-12.09v-.72Z"/><path class="uuid-e516d721-04f7-429e-9302-16c64963f8d9" d="M73.62,59.65v-.65h3.26v.65h-2.46l2.14,2.68-.47,.36-2.46-3.04Zm1.96,13.61c0-.34,.05-.92,.14-1.74l2.54-18.07h4.16l-2.72,19.48c-.07,.43-.11,.81-.11,1.12,0,.53,.1,.92,.31,1.18,.21,.25,.54,.38,1,.38,.39,0,.74-.14,1.05-.43,.31-.29,.47-.74,.47-1.34,0-1.06-.56-2.49-1.67-4.27l.47-.29c1.28,2.03,1.92,3.71,1.92,5.03,0,1.09-.37,1.88-1.12,2.39s-1.57,.76-2.46,.76c-2.66,0-3.98-1.4-3.98-4.2Zm6.55-14.26h3.37v.65h-3.37v-.65Z"/><path class="uuid-e516d721-04f7-429e-9302-16c64963f8d9" d="M89.01,75.52c-1.11-1.41-1.67-3.26-1.67-5.56v-10.97h4.49v10.75c0,2.82,1.06,4.24,3.19,4.24,1.35,0,2.37-.54,3.06-1.61,.69-1.07,1.03-2.53,1.03-4.36v-9.01h4.49v11.22c0,2.85,.42,5.14,1.27,6.88h-4.81c-.31-.77-.52-1.67-.62-2.68h-.07c-.51,.94-1.25,1.71-2.23,2.32-.98,.6-2.12,.9-3.42,.9-2.03,0-3.6-.71-4.71-2.12Z"/><path class="uuid-e516d721-04f7-429e-9302-16c64963f8d9" d="M109.03,76.1c-.94-1-1.41-2.33-1.41-4v-12.38h-3.44v-.72h7.78v13.11h-3.4c0,1.38,.39,2.49,1.18,3.33,.78,.85,1.88,1.27,3.28,1.27,1.04,0,1.98-.24,2.82-.72s1.51-1.16,2.01-2.03c.5-.87,.74-1.86,.74-2.97v-11.26h-3.44v-.72h7.78v17.38h2.9v.72h-7.24v-2.9h-.04c-1.21,2.27-3.09,3.4-5.65,3.4-1.64,0-2.93-.5-3.87-1.5Z"/><path class="uuid-e516d721-04f7-429e-9302-16c64963f8d9" d="M127.53,58.99h4.53v3.66h.11c.39-1.28,1.01-2.3,1.88-3.08,.87-.77,1.97-1.16,3.29-1.16,.72,0,1.38,.13,1.96,.4v4.71c-.65-.29-1.38-.43-2.17-.43-1.52,0-2.75,.59-3.67,1.77-.93,1.18-1.39,2.81-1.39,4.89v7.35h-4.53v-18.1Z"/><path class="uuid-e516d721-04f7-429e-9302-16c64963f8d9" d="M143.13,62.65h-3.33v-3.66h3.33v-1.7c0-1.96,.54-3.45,1.61-4.49,1.07-1.04,2.46-1.56,4.15-1.56,1.09,0,1.99,.15,2.71,.43v3.66c-.63-.17-1.18-.25-1.67-.25-.72,0-1.3,.18-1.72,.54-.42,.36-.63,1-.63,1.92v1.45h4.02v3.66h-3.98v14.45h-4.49v-14.45Z"/><path class="uuid-e516d721-04f7-429e-9302-16c64963f8d9" d="M156.67,76.19c-1.45-.77-2.56-1.86-3.33-3.28-.77-1.41-1.16-3.05-1.16-4.91s.39-3.49,1.16-4.91c.77-1.41,1.88-2.5,3.33-3.28,1.45-.77,3.14-1.16,5.07-1.16s3.62,.39,5.07,1.16c1.45,.77,2.56,1.86,3.33,3.28,.77,1.41,1.16,3.05,1.16,4.91s-.39,3.49-1.16,4.91c-.77,1.41-1.88,2.5-3.33,3.28-1.45,.77-3.14,1.16-5.07,1.16s-3.62-.39-5.07-1.16Zm8.65-1.61c.82-1.32,1.23-3.51,1.23-6.57s-.41-5.26-1.23-6.57c-.82-1.32-2.02-1.97-3.58-1.97s-2.76,.66-3.58,1.97-1.23,3.51-1.23,6.57,.41,5.26,1.23,6.57c.82,1.32,2.02,1.97,3.58,1.97s2.76-.66,3.58-1.97Z"/><path class="uuid-e516d721-04f7-429e-9302-16c64963f8d9" d="M171.91,76.37h2.9v-16.65h-2.9v-.72h7.24v3h.04c.53-.99,1.3-1.8,2.32-2.44,1.01-.64,2.24-.96,3.69-.96,1.64,0,2.93,.5,3.87,1.5,.94,1,1.41,2.34,1.41,4v12.27h2.53v.72h-9.59v-.72h2.71v-12.27h3.4c0-1.38-.39-2.49-1.18-3.33-.78-.84-1.88-1.27-3.28-1.27-1.04,0-2.02,.24-2.93,.72-.92,.48-1.65,1.16-2.19,2.03-.54,.87-.81,1.86-.81,2.97v11.15h2.72v.72h-9.96v-.72Z"/><path class="uuid-e516d721-04f7-429e-9302-16c64963f8d9" d="M197.15,76.43c-1.26-.81-2.24-1.94-2.95-3.4-.71-1.46-1.07-3.12-1.07-4.98s.36-3.55,1.07-5.01c.71-1.46,1.7-2.59,2.95-3.4,1.25-.81,2.65-1.21,4.2-1.21,1.16,0,2.21,.25,3.17,.76,.95,.51,1.74,1.25,2.37,2.24h.07v-9.67h4.49v25.34h-4.49v-2.43h-.07c-.6,.99-1.38,1.73-2.33,2.23-.95,.49-2.02,.74-3.2,.74-1.54,0-2.94-.4-4.2-1.21Zm8.63-4c.83-1.11,1.25-2.57,1.25-4.38s-.42-3.31-1.25-4.42c-.83-1.11-1.95-1.67-3.35-1.67s-2.56,.56-3.4,1.67c-.84,1.11-1.27,2.58-1.27,4.42s.42,3.3,1.27,4.4c.84,1.1,1.98,1.65,3.4,1.65s2.52-.55,3.35-1.67Z"/><path class="uuid-e516d721-04f7-429e-9302-16c64963f8d9" d="M226.36,59.27c1.13,.57,2,1.32,2.59,2.26s.91,1.96,.96,3.04h-4.38c-.05-.8-.36-1.45-.94-1.96s-1.39-.76-2.43-.76c-.94,0-1.67,.18-2.17,.52-.51,.35-.76,.81-.76,1.39,0,.46,.15,.83,.45,1.12,.3,.29,.81,.52,1.54,.69l4.02,.91c1.67,.39,2.93,1.01,3.78,1.86,.86,.86,1.29,1.95,1.29,3.28,0,1.21-.34,2.26-1.01,3.17-.68,.9-1.62,1.61-2.84,2.1-1.22,.49-2.6,.74-4.14,.74-2.44,0-4.41-.6-5.9-1.81-1.5-1.21-2.29-2.88-2.39-5.03h4.38c.05,1.13,.43,1.99,1.14,2.55,.71,.57,1.66,.85,2.84,.85,1.09,0,1.96-.19,2.61-.56,.65-.37,.98-.9,.98-1.57,0-.46-.16-.84-.47-1.14-.31-.3-.88-.54-1.7-.71l-3.95-.87c-3.31-.75-4.96-2.43-4.96-5.03,0-1.13,.31-2.15,.94-3.04,.63-.89,1.5-1.59,2.62-2.1,1.12-.51,2.41-.76,3.86-.76,1.57,0,2.92,.28,4.05,.85Z"/></g><line class="uuid-04380f15-4e62-4102-817b-811e7e08c6d7" x1="250.79" y1="96.62" x2="250.79" y2="-.21"/></svg>