<?xml version="1.0" encoding="utf-8"?>
<!-- Generator: Adobe Illustrator 27.8.0, SVG Export Plug-In . SVG Version: 6.00 Build 0)  -->
<svg version="1.1" id="Ebene_1" xmlns="http://www.w3.org/2000/svg" xmlns:xlink="http://www.w3.org/1999/xlink" x="0px" y="0px"
	 viewBox="0 0 313 500" style="enable-background:new 0 0 313 500;" xml:space="preserve">
<g>
	<g>
		<path style="fill:#1D1D1B;" d="M249.75,36.09c-19.32,27.48-50.62,55.75-97.61,55.75h-0.12c-46.94,0-78.22-28.21-97.55-55.67
			c-5.04-7.16-9.26-14.26-12.74-20.8H13.07v170.49h36.02l3.36-93.39c25.27,26,60.6,42.18,99.63,42.18
			c39.11,0,74.49-16.24,99.77-42.32l3.5,93.54h35.73V15.37h-28.66C258.96,21.88,254.77,28.95,249.75,36.09z"/>
	</g>
	<g>
		<path style="fill:#1D1D1B;" d="M13.23,227.71h3.43l1.42,3.91c0.95-1.95,3.67-4.32,9.29-4.32c4.5,0,7.04,1.72,8.34,4.68
			c0.89-2.13,3.67-4.68,9.41-4.68c8.29,0,10,5.8,10,12.9v17.81h-6.39v-18.17c0-4.26-0.77-7.22-5.62-7.22c-4.73,0-5.74,2.9-5.74,7.22
			v18.17h-6.39v-18.17c0-4.26-0.77-7.22-5.62-7.22c-4.73,0-5.8,2.9-5.8,7.22v18.17h-6.33V227.71z"/>
		<path style="fill:#1D1D1B;" d="M60.22,242.86c0-7.99,3.14-15.56,15.03-15.56c11.78,0,15.03,7.57,15.03,15.56
			c0,8.11-3.25,15.56-15.09,15.56C63.29,258.42,60.22,250.91,60.22,242.86z M83.83,242.86c0-5.62-1.42-10.42-8.58-10.42
			c-7.04,0-8.58,4.73-8.58,10.42c0,5.74,1.54,10.42,8.52,10.42C82.29,253.28,83.83,248.72,83.83,242.86z"/>
		<path style="fill:#1D1D1B;" d="M95.84,227.71h3.43l1.42,4.26c1.01-2.07,4.2-4.68,11.07-4.68c9.94,0,11.89,5.8,11.89,14.38v16.33
			h-6.27v-16.87c0-5.39-0.95-8.58-7.4-8.58c-6.45,0-7.81,3.14-7.81,8.58v16.87h-6.33V227.71z"/>
		<path style="fill:#1D1D1B;" d="M164.9,227.71h3.37l1.48,4.2c0.95-2.01,3.85-4.62,9.76-4.62h1.01v5.62c-0.59,0-1.18-0.12-1.72-0.12
			c-6.33,0-7.57,3.49-7.57,8.4v16.81h-6.33V227.71z"/>
		<path style="fill:#1D1D1B;" d="M263.43,227.71h3.43l1.42,4.26c1.01-2.07,4.2-4.68,11.07-4.68c9.94,0,11.89,5.8,11.89,14.38v16.33
			h-6.27v-16.87c0-5.39-0.95-8.58-7.4-8.58c-6.45,0-7.81,3.14-7.81,8.58v16.87h-6.33V227.71z"/>
		<circle style="fill:#1D1D1B;" cx="187.51" cy="219.32" r="3.15"/>
		<path style="fill:#1D1D1B;" d="M184.37,227.71h6.27v30.3h-6.27V227.71z"/>
		<path style="fill:#1D1D1B;" d="M151.94,216.17v15.27c-1.3-2.01-4.32-4.14-10.3-4.14c-10.06,0-12.9,7.28-12.9,15.56
			s2.96,15.56,12.96,15.56c5.27,0,8.48-1.44,10.24-3.03v2.62l6.21,0v-41.84H151.94z M143.48,253.22c-6.86,0-8.28-4.26-8.28-10.36
			s1.42-10.24,8.34-10.24c7.22,0,8.46,4.38,8.46,10.24C152,249.07,150.52,253.22,143.48,253.22z"/>
		<path style="fill:#1D1D1B;" d="M224.37,240.79c0-8.17-1.78-13.49-14.14-13.49c-10.65,0-13.26,4.85-13.26,11.13l6.15-0.06
			c0-3.79,1.54-6.04,7.16-6.04c6.1,0,7.69,2.54,7.87,6.92l-9.53,0.95c-8.64,0.83-12.61,3.37-12.61,8.94c0,6.39,5.21,9.29,11.72,9.29
			c4.79,0,8.36-1.52,10.42-3.29v2.87l6.21,0V240.79z M218.16,244.99c0,5.27-3.25,8.46-8.82,8.46c-4.44,0-6.81-1.6-6.81-4.38
			c0-2.37,1.78-3.49,7.04-4.08l8.58-0.95V244.99z"/>
		<path style="fill:#1D1D1B;" d="M243.31,227.3c-10.65,0-13.26,4.85-13.26,11.13l6.15-0.06c0-3.79,1.54-6.04,7.16-6.04
			c6.1,0,7.69,2.54,7.87,6.92l-9.53,0.95c-8.64,0.83-12.6,3.37-12.6,8.94c0,6.39,5.21,9.29,11.72,9.29c4.78,0,8.35-1.51,10.41-3.28
			v2.86l6.22,0v-17.22C257.45,232.62,255.68,227.3,243.31,227.3z M242.42,253.45c-4.44,0-6.81-1.6-6.81-4.38
			c0-2.37,1.78-3.49,7.04-4.08l8.58-0.95v0.95C251.24,250.26,247.98,253.45,242.42,253.45z"/>
	</g>
	<path style="fill:#1D1D1B;" d="M97.5,284.43h-4.32v-3.79l4.32-1.3v-3.14c0-6.45,3.37-9,11.42-9c0.89,0,1.78,0,2.78,0.06v5.15
		c-0.95-0.06-1.42-0.06-2.01-0.06c-4.97,0-6.21,1.36-6.21,3.91v3.02h8.23v5.15h-8.23v25.15H97.5V284.43z"/>
	<path style="fill:#1D1D1B;" d="M148.51,279.29h3.43l1.42,4.26c1.01-2.07,4.2-4.68,11.07-4.68c9.94,0,11.89,5.8,11.89,14.38v16.33
		h-6.27v-16.87c0-5.38-0.95-8.58-7.4-8.58c-6.45,0-7.81,3.14-7.81,8.58v16.87h-6.33V279.29z"/>
	<path style="fill:#1D1D1B;" d="M204.61,267.75v15.27c-1.3-2.01-4.32-4.14-10.3-4.14c-10.06,0-12.9,7.28-12.9,15.56
		c0,8.29,2.96,15.56,12.96,15.56c5.28,0,8.49-1.45,10.25-3.04v2.62l6.2,0v-41.84H204.61z M196.15,304.79
		c-6.86,0-8.28-4.26-8.28-10.36c0-6.1,1.42-10.24,8.34-10.24c7.22,0,8.46,4.38,8.46,10.24
		C204.67,300.65,203.19,304.79,196.15,304.79z"/>
	<path style="fill:#1D1D1B;" d="M136.43,279.28v16.87c0,5.44-1.36,8.58-7.81,8.58c-6.45,0-7.4-3.2-7.4-8.58v-16.87h-6.27v16.33
		c0,8.58,1.95,14.38,11.89,14.38c4.8,0,7.8-1.27,9.52-2.75v2.34h6.4v0v-5.55v-24.75H136.43z"/>
</g>
</svg>
