<?xml version="1.0" encoding="utf-8"?>
<!-- Generator: Adobe Illustrator 27.8.0, SVG Export Plug-In . SVG Version: 6.00 Build 0)  -->
<svg version="1.1" id="Ebene_1" xmlns="http://www.w3.org/2000/svg" xmlns:xlink="http://www.w3.org/1999/xlink" x="0px" y="0px"
	 viewBox="0 0 868 500" style="enable-background:new 0 0 868 500;" xml:space="preserve">
<path style="fill:#1D1D1B;" d="M319.32,194.31l1.51,4.72h4.94l-4.01,2.88l1.5,4.66l-3.94-2.88l-3.95,2.88l1.5-4.66l-4.01-2.88
	l4.94,0.01L319.32,194.31z M298.93,188.89l1.51,4.72h4.94l-4.01,2.88l1.5,4.66l-3.95-2.88l-3.95,2.88l1.5-4.66l-4.01-2.88l4.94,0
	L298.93,188.89z M339.72,188.89l1.51,4.72h4.94l-4.01,2.88l1.5,4.66l-3.95-2.88l-3.95,2.88l1.5-4.66l-4-2.88l4.93,0L339.72,188.89z
	 M283.95,173.92l1.51,4.72h4.94l-4.01,2.88l1.5,4.66l-3.95-2.89l-3.95,2.89l1.5-4.66l-4.01-2.88l4.94,0L283.95,173.92z
	 M354.69,173.92l1.51,4.72h4.94l-4.01,2.88l1.51,4.66l-3.95-2.89l-3.95,2.89l1.5-4.66l-4.01-2.88l4.94,0L354.69,173.92z
	 M278.47,153.46l1.51,4.72h4.94l-4.01,2.88l1.5,4.66l-3.95-2.88l-3.95,2.88l1.5-4.66l-4.01-2.88l4.95,0.01L278.47,153.46z
	 M360.11,153.4l1.51,4.72h4.94l-4.01,2.88l1.5,4.66l-3.95-2.88l-3.94,2.88l1.5-4.66l-4.01-2.88l4.94,0L360.11,153.4z M283.95,133.06
	l1.51,4.72h4.94l-4.01,2.88l1.5,4.66l-3.95-2.88l-3.95,2.88l1.5-4.66l-4.01-2.88l4.94,0.01L283.95,133.06z M354.69,133l1.51,4.72
	h4.94l-4.01,2.87l1.51,4.66l-3.95-2.88l-3.95,2.88l1.5-4.66l-4.01-2.87l4.94,0L354.69,133z M339.78,118.09l1.51,4.71h4.95
	l-4.01,2.88l1.49,4.66l-3.94-2.88l-3.95,2.88l1.5-4.66l-4-2.88l4.94,0.01L339.78,118.09z M298.89,118.08l1.51,4.72h4.94l-4.01,2.88
	l1.5,4.66l-3.95-2.88l-3.95,2.88l1.5-4.66l-4-2.88l4.94,0L298.89,118.08z M319.32,112.6l1.51,4.72h4.94l-4.01,2.88l1.5,4.66
	l-3.95-2.88l-3.95,2.88l1.5-4.66l-4.01-2.88l4.94,0.01L319.32,112.6z M225.85,222.37h187.02V97.69H225.85V222.37z"/>
<g>
	<defs>
		<rect id="SVGID_00000167381199050551270560000012623762383763284918_" x="15.73" y="97.69" width="825.27" height="131.28"/>
	</defs>
	<clipPath id="SVGID_00000039829783707038468180000001640776372322223524_">
		<use xlink:href="#SVGID_00000167381199050551270560000012623762383763284918_"  style="overflow:visible;"/>
	</clipPath>
	<path style="clip-path:url(#SVGID_00000039829783707038468180000001640776372322223524_);fill:#1D1D1B;" d="M459.44,133.78
		l6.01,1.9c-0.92,3.35-2.45,5.84-4.59,7.46c-2.14,1.63-4.86,2.44-8.15,2.44c-4.08,0-7.42-1.39-10.05-4.18
		c-2.62-2.78-3.93-6.59-3.93-11.42c0-5.11,1.32-9.07,3.96-11.9c2.63-2.83,6.1-4.24,10.4-4.24c3.75,0,6.8,1.11,9.15,3.33
		c1.39,1.31,2.44,3.2,3.14,5.65l-6.13,1.47c-0.36-1.59-1.12-2.85-2.27-3.77c-1.15-0.92-2.55-1.38-4.19-1.38
		c-2.28,0-4.12,0.82-5.54,2.45c-1.42,1.63-2.13,4.28-2.13,7.93c0,3.88,0.7,6.64,2.09,8.29c1.39,1.65,3.21,2.47,5.44,2.47
		c1.65,0,3.06-0.52,4.25-1.57C458.07,137.67,458.92,136.03,459.44,133.78"/>
	<path style="clip-path:url(#SVGID_00000039829783707038468180000001640776372322223524_);fill:#1D1D1B;" d="M475.39,133.95
		c0,2.21,0.53,3.89,1.57,5.07c1.05,1.17,2.34,1.76,3.87,1.76c1.53,0,2.82-0.58,3.86-1.76c1.04-1.17,1.56-2.88,1.56-5.11
		c0-2.18-0.52-3.85-1.56-5.02c-1.04-1.17-2.33-1.76-3.86-1.76c-1.54,0-2.83,0.59-3.87,1.76
		C475.91,130.05,475.39,131.74,475.39,133.95 M469.36,133.63c0-1.95,0.48-3.84,1.45-5.67c0.96-1.83,2.33-3.22,4.09-4.19
		c1.77-0.96,3.74-1.44,5.91-1.44c3.37,0,6.12,1.09,8.27,3.27c2.15,2.18,3.22,4.94,3.22,8.28c0,3.36-1.08,6.15-3.25,8.36
		c-2.17,2.21-4.9,3.32-8.19,3.32c-2.04,0-3.98-0.46-5.83-1.38c-1.85-0.92-3.25-2.27-4.21-4.05
		C469.84,138.35,469.36,136.19,469.36,133.63"/>
</g>
<rect x="496.23" y="131" style="fill:#1D1D1B;" width="11.55" height="5.88"/>
<g>
	<defs>
		<rect id="SVGID_00000136395002184192927310000012975794410493911456_" x="15.73" y="97.69" width="825.27" height="131.28"/>
	</defs>
	<clipPath id="SVGID_00000087378065246791053850000002341196058480863403_">
		<use xlink:href="#SVGID_00000136395002184192927310000012975794410493911456_"  style="overflow:visible;"/>
	</clipPath>
	<path style="clip-path:url(#SVGID_00000087378065246791053850000002341196058480863403_);fill:#1D1D1B;" d="M508.6,122.83h3.27
		v-1.67c0-1.87,0.2-3.26,0.6-4.19c0.4-0.92,1.13-1.67,2.2-2.25c1.07-0.58,2.42-0.87,4.05-0.87c1.67,0,3.31,0.25,4.92,0.75l-0.79,4.1
		c-0.94-0.22-1.83-0.34-2.7-0.34c-0.85,0-1.46,0.2-1.83,0.6c-0.37,0.4-0.56,1.16-0.56,2.29v1.57h4.4v4.63h-4.4v17.6h-5.88v-17.6
		h-3.27V122.83z"/>
	<path style="clip-path:url(#SVGID_00000087378065246791053850000002341196058480863403_);fill:#1D1D1B;" d="M540.08,145.06v-3.33
		c-0.81,1.19-1.87,2.12-3.19,2.81c-1.32,0.68-2.71,1.02-4.18,1.02c-1.49,0-2.83-0.33-4.02-0.98c-1.19-0.66-2.05-1.58-2.58-2.76
		c-0.53-1.19-0.8-2.83-0.8-4.92v-14.07h5.88v10.21c0,3.12,0.11,5.04,0.33,5.74c0.21,0.71,0.61,1.26,1.18,1.67
		c0.57,0.41,1.3,0.62,2.18,0.62c1,0,1.9-0.28,2.7-0.83c0.79-0.55,1.34-1.24,1.63-2.05c0.29-0.82,0.44-2.82,0.44-6v-9.38h5.88v22.23
		H540.08z"/>
	<path style="clip-path:url(#SVGID_00000087378065246791053850000002341196058480863403_);fill:#1D1D1B;" d="M571.85,145.06h-5.88
		v-11.34c0-2.4-0.13-3.95-0.38-4.66c-0.25-0.7-0.66-1.25-1.22-1.64s-1.24-0.58-2.04-0.58c-1.02,0-1.93,0.28-2.74,0.84
		c-0.81,0.56-1.36,1.3-1.66,2.22c-0.3,0.92-0.45,2.62-0.45,5.1v10.07h-5.88v-22.23h5.46v3.26c1.94-2.51,4.38-3.76,7.32-3.76
		c1.3,0,2.48,0.23,3.56,0.7c1.07,0.47,1.89,1.07,2.44,1.79c0.55,0.73,0.94,1.55,1.15,2.47c0.22,0.92,0.32,2.24,0.32,3.95V145.06z"/>
	<path style="clip-path:url(#SVGID_00000087378065246791053850000002341196058480863403_);fill:#1D1D1B;" d="M582.5,133.47
		c0,2.37,0.33,4.09,0.98,5.15c0.95,1.54,2.28,2.3,3.98,2.3c1.35,0,2.5-0.58,3.45-1.73c0.95-1.15,1.42-2.87,1.42-5.16
		c0-2.55-0.46-4.39-1.38-5.51c-0.92-1.12-2.1-1.68-3.54-1.68c-1.39,0-2.56,0.55-3.5,1.66C582.97,129.6,582.5,131.26,582.5,133.47
		 M598.2,145.06h-5.46v-3.27c-0.91,1.27-1.98,2.22-3.21,2.84c-1.24,0.62-2.48,0.93-3.74,0.93c-2.55,0-4.74-1.03-6.56-3.08
		c-1.82-2.06-2.73-4.93-2.73-8.61c0-3.77,0.89-6.63,2.66-8.59c1.77-1.96,4.01-2.94,6.72-2.94c2.48,0,4.63,1.03,6.45,3.1v-11.05h5.88
		V145.06z"/>
	<path style="clip-path:url(#SVGID_00000087378065246791053850000002341196058480863403_);fill:#1D1D1B;" d="M617.21,132.04
		c-0.04-1.7-0.48-2.99-1.32-3.88c-0.84-0.88-1.86-1.33-3.06-1.33c-1.28,0-2.34,0.47-3.18,1.4c-0.84,0.94-1.25,2.2-1.24,3.81H617.21z
		 M616.87,137.99l5.86,0.98c-0.75,2.15-1.94,3.78-3.57,4.91c-1.62,1.12-3.66,1.68-6.1,1.68c-3.87,0-6.73-1.26-8.58-3.79
		c-1.47-2.02-2.2-4.58-2.2-7.66c0-3.69,0.96-6.57,2.89-8.65c1.93-2.09,4.36-3.13,7.3-3.13c3.31,0,5.92,1.09,7.83,3.27
		c1.91,2.18,2.82,5.53,2.74,10.04h-14.73c0.04,1.74,0.52,3.1,1.42,4.07c0.91,0.97,2.04,1.45,3.39,1.45c0.92,0,1.69-0.25,2.32-0.75
		C616.08,139.91,616.55,139.1,616.87,137.99"/>
	<path style="clip-path:url(#SVGID_00000087378065246791053850000002341196058480863403_);fill:#1D1D1B;" d="M632.52,133.47
		c0,2.37,0.33,4.09,0.98,5.15c0.95,1.54,2.28,2.3,3.98,2.3c1.35,0,2.5-0.58,3.45-1.73c0.95-1.15,1.42-2.87,1.42-5.16
		c0-2.55-0.46-4.39-1.38-5.51c-0.92-1.12-2.1-1.68-3.54-1.68c-1.39,0-2.56,0.55-3.5,1.66C632.99,129.6,632.52,131.26,632.52,133.47
		 M648.22,145.06h-5.46v-3.27c-0.91,1.27-1.98,2.22-3.21,2.84c-1.24,0.62-2.48,0.93-3.74,0.93c-2.55,0-4.74-1.03-6.56-3.08
		c-1.82-2.06-2.73-4.93-2.73-8.61c0-3.77,0.89-6.63,2.66-8.59c1.77-1.96,4.01-2.94,6.72-2.94c2.48,0,4.63,1.03,6.45,3.1v-11.05h5.88
		V145.06z"/>
	<path style="clip-path:url(#SVGID_00000087378065246791053850000002341196058480863403_);fill:#1D1D1B;" d="M671.51,133.47
		c0,2.3,0.36,4,1.09,5.1c1.02,1.56,2.37,2.35,4.06,2.35c1.3,0,2.4-0.56,3.31-1.66c0.92-1.11,1.37-2.86,1.37-5.25
		c0-2.54-0.46-4.37-1.38-5.49c-0.92-1.12-2.1-1.68-3.54-1.68c-1.41,0-2.58,0.55-3.52,1.64
		C671.98,129.57,671.51,131.23,671.51,133.47 M665.68,145.06v-30.68h5.88v11.05c1.81-2.07,3.96-3.1,6.45-3.1
		c2.71,0,4.95,0.98,6.72,2.94c1.77,1.96,2.66,4.78,2.66,8.44c0,3.8-0.9,6.72-2.71,8.77c-1.81,2.05-4,3.08-6.58,3.08
		c-1.27,0-2.52-0.32-3.76-0.95s-2.3-1.57-3.19-2.82v3.27H665.68z"/>
	<path style="clip-path:url(#SVGID_00000087378065246791053850000002341196058480863403_);fill:#1D1D1B;" d="M689.33,122.83h6.26
		l5.32,15.78l5.19-15.78h6.09l-7.85,21.39l-1.4,3.87c-0.52,1.3-1.01,2.29-1.47,2.97c-0.47,0.68-1.01,1.24-1.61,1.66
		c-0.61,0.43-1.35,0.76-2.24,1c-0.89,0.24-1.89,0.36-3.01,0.36c-1.13,0-2.24-0.12-3.33-0.36l-0.53-4.61
		c0.92,0.18,1.75,0.27,2.49,0.27c1.37,0,2.38-0.4,3.03-1.2c0.66-0.8,1.16-1.82,1.51-3.07L689.33,122.83z"/>
	<path style="clip-path:url(#SVGID_00000087378065246791053850000002341196058480863403_);fill:#1D1D1B;" d="M449.96,174.27v4.69
		h-4.02v8.96c0,1.81,0.04,2.87,0.11,3.17c0.08,0.3,0.25,0.55,0.52,0.74c0.27,0.2,0.6,0.3,1,0.3c0.55,0,1.33-0.19,2.37-0.56l0.5,4.56
		c-1.37,0.58-2.92,0.88-4.65,0.88c-1.06,0-2.02-0.18-2.87-0.53c-0.85-0.36-1.48-0.81-1.88-1.38c-0.39-0.56-0.67-1.33-0.83-2.29
		c-0.13-0.68-0.19-2.06-0.19-4.14v-9.69h-2.7v-4.69h2.7v-4.42l5.91-3.43v7.85H449.96z"/>
	<path style="clip-path:url(#SVGID_00000087378065246791053850000002341196058480863403_);fill:#1D1D1B;" d="M459.9,165.81v11.28
		c1.9-2.22,4.16-3.33,6.8-3.33c1.35,0,2.58,0.25,3.66,0.75c1.09,0.5,1.91,1.15,2.46,1.93c0.55,0.78,0.93,1.65,1.13,2.6
		s0.3,2.42,0.3,4.42v13.04h-5.88v-11.74c0-2.33-0.11-3.81-0.34-4.44c-0.22-0.63-0.62-1.13-1.18-1.5c-0.56-0.37-1.28-0.55-2.13-0.55
		c-0.98,0-1.85,0.24-2.62,0.71c-0.77,0.47-1.33,1.19-1.68,2.14c-0.36,0.96-0.53,2.37-0.53,4.24v11.13h-5.88v-30.68H459.9z"/>
	<path style="clip-path:url(#SVGID_00000087378065246791053850000002341196058480863403_);fill:#1D1D1B;" d="M493.43,183.48
		c-0.04-1.7-0.48-2.99-1.32-3.88c-0.84-0.88-1.86-1.33-3.06-1.33c-1.28,0-2.34,0.47-3.18,1.4c-0.84,0.94-1.25,2.2-1.24,3.81H493.43z
		 M493.09,189.42l5.86,0.98c-0.75,2.15-1.94,3.78-3.57,4.91c-1.62,1.12-3.66,1.68-6.1,1.68c-3.87,0-6.73-1.26-8.58-3.79
		c-1.47-2.02-2.2-4.58-2.2-7.66c0-3.69,0.96-6.57,2.89-8.65c1.93-2.09,4.36-3.13,7.3-3.13c3.31,0,5.92,1.09,7.83,3.27
		c1.91,2.18,2.82,5.53,2.74,10.04h-14.73c0.04,1.74,0.52,3.1,1.42,4.07c0.91,0.97,2.04,1.45,3.39,1.45c0.92,0,1.69-0.25,2.32-0.75
		C492.3,191.35,492.77,190.54,493.09,189.42"/>
</g>
<polygon style="fill:#1D1D1B;" points="516.01,196.5 516.01,165.81 538.76,165.81 538.76,171 522.2,171 522.2,177.81 537.61,177.81 
	537.61,182.98 522.2,182.98 522.2,191.33 539.35,191.33 539.35,196.5 "/>
<g>
	<defs>
		<rect id="SVGID_00000162349873582660764210000008574656798431767683_" x="15.73" y="97.69" width="825.27" height="131.28"/>
	</defs>
	<clipPath id="SVGID_00000086661090937298240410000004107631216668698802_">
		<use xlink:href="#SVGID_00000162349873582660764210000008574656798431767683_"  style="overflow:visible;"/>
	</clipPath>
	<path style="clip-path:url(#SVGID_00000086661090937298240410000004107631216668698802_);fill:#1D1D1B;" d="M559.19,196.5v-3.33
		c-0.81,1.19-1.87,2.12-3.19,2.81c-1.32,0.68-2.71,1.02-4.17,1.02c-1.49,0-2.83-0.33-4.02-0.98c-1.19-0.66-2.05-1.58-2.58-2.76
		c-0.53-1.19-0.8-2.83-0.8-4.92v-14.07h5.88v10.21c0,3.12,0.11,5.04,0.33,5.74c0.21,0.71,0.61,1.26,1.18,1.67
		c0.57,0.41,1.3,0.62,2.18,0.62c1,0,1.9-0.28,2.7-0.83c0.79-0.55,1.34-1.24,1.63-2.05c0.29-0.82,0.44-2.82,0.44-6v-9.38h5.88v22.23
		H559.19z"/>
	<path style="clip-path:url(#SVGID_00000086661090937298240410000004107631216668698802_);fill:#1D1D1B;" d="M576.37,196.5h-5.88
		v-22.23h5.46v3.16c0.94-1.49,1.78-2.48,2.52-2.95c0.75-0.47,1.6-0.71,2.54-0.71c1.34,0,2.63,0.37,3.87,1.11l-1.82,5.13
		c-0.99-0.64-1.91-0.96-2.76-0.96c-0.82,0-1.52,0.23-2.09,0.68c-0.57,0.45-1.02,1.28-1.35,2.46c-0.33,1.18-0.49,3.67-0.49,7.45
		V196.5z"/>
	<path style="clip-path:url(#SVGID_00000086661090937298240410000004107631216668698802_);fill:#1D1D1B;" d="M592.09,185.38
		c0,2.21,0.53,3.89,1.57,5.07c1.05,1.17,2.34,1.76,3.87,1.76c1.53,0,2.82-0.58,3.86-1.76s1.56-2.88,1.56-5.11
		c0-2.18-0.52-3.85-1.56-5.02c-1.04-1.17-2.33-1.76-3.86-1.76c-1.54,0-2.83,0.59-3.87,1.76
		C592.61,181.49,592.09,183.18,592.09,185.38 M586.06,185.07c0-1.95,0.48-3.84,1.45-5.67c0.96-1.83,2.33-3.22,4.09-4.19
		c1.77-0.96,3.74-1.44,5.91-1.44c3.37,0,6.12,1.09,8.27,3.27c2.15,2.18,3.22,4.94,3.22,8.28c0,3.36-1.08,6.15-3.25,8.36
		c-2.17,2.21-4.9,3.32-8.19,3.32c-2.04,0-3.98-0.46-5.83-1.38c-1.85-0.92-3.25-2.27-4.21-4.05
		C586.54,189.79,586.06,187.62,586.06,185.07"/>
	<path style="clip-path:url(#SVGID_00000086661090937298240410000004107631216668698802_);fill:#1D1D1B;" d="M619.25,185.01
		c0,2.5,0.49,4.34,1.49,5.54c0.99,1.19,2.2,1.79,3.62,1.79c1.37,0,2.5-0.55,3.41-1.64c0.9-1.09,1.36-2.89,1.36-5.39
		c0-2.33-0.47-4.06-1.4-5.19c-0.94-1.13-2.09-1.69-3.48-1.69c-1.44,0-2.63,0.55-3.58,1.66
		C619.73,181.19,619.25,182.83,619.25,185.01 M613.44,174.27h5.48v3.27c0.71-1.12,1.67-2.03,2.89-2.72c1.21-0.7,2.56-1.05,4.04-1.05
		c2.58,0,4.77,1.01,6.57,3.03c1.8,2.02,2.7,4.84,2.7,8.46c0,3.71-0.9,6.6-2.72,8.65c-1.81,2.06-4.01,3.08-6.59,3.08
		c-1.22,0-2.34-0.24-3.34-0.73c-1-0.49-2.05-1.33-3.15-2.51v11.2h-5.88V174.27z"/>
	<path style="clip-path:url(#SVGID_00000086661090937298240410000004107631216668698802_);fill:#1D1D1B;" d="M652.99,183.48
		c-0.04-1.7-0.48-2.99-1.32-3.88c-0.84-0.88-1.86-1.33-3.06-1.33c-1.28,0-2.34,0.47-3.18,1.4c-0.84,0.94-1.25,2.2-1.24,3.81H652.99z
		 M652.66,189.42l5.86,0.98c-0.75,2.15-1.94,3.78-3.57,4.91c-1.62,1.12-3.66,1.68-6.1,1.68c-3.87,0-6.73-1.26-8.58-3.79
		c-1.47-2.02-2.2-4.58-2.2-7.66c0-3.69,0.96-6.57,2.89-8.65c1.93-2.09,4.36-3.13,7.3-3.13c3.31,0,5.92,1.09,7.83,3.27
		s2.82,5.53,2.74,10.04H644.1c0.04,1.74,0.52,3.1,1.42,4.07c0.91,0.97,2.04,1.45,3.39,1.45c0.92,0,1.69-0.25,2.32-0.75
		C651.86,191.35,652.34,190.54,652.66,189.42"/>
	<path style="clip-path:url(#SVGID_00000086661090937298240410000004107631216668698802_);fill:#1D1D1B;" d="M675.89,185.82
		c-0.75,0.25-1.94,0.55-3.58,0.9c-1.63,0.35-2.7,0.69-3.2,1.03c-0.77,0.54-1.15,1.23-1.15,2.07c0,0.83,0.31,1.54,0.92,2.14
		c0.62,0.6,1.39,0.9,2.35,0.9c1.06,0,2.07-0.35,3.03-1.04c0.71-0.53,1.18-1.18,1.4-1.95c0.15-0.5,0.23-1.46,0.23-2.87V185.82z
		 M668.02,181.05l-5.34-0.96c0.6-2.15,1.63-3.74,3.1-4.77c1.47-1.03,3.64-1.55,6.53-1.55c2.62,0,4.58,0.31,5.86,0.93
		c1.28,0.62,2.19,1.41,2.71,2.37c0.53,0.96,0.79,2.71,0.79,5.26l-0.06,6.86c0,1.96,0.09,3.39,0.28,4.32
		c0.19,0.93,0.54,1.92,1.06,2.98h-5.82c-0.15-0.39-0.34-0.97-0.56-1.73c-0.1-0.35-0.17-0.58-0.21-0.69c-1,0.98-2.08,1.71-3.22,2.2
		c-1.15,0.49-2.37,0.73-3.66,0.73c-2.29,0-4.09-0.62-5.41-1.86c-1.32-1.24-1.98-2.81-1.98-4.71c0-1.26,0.3-2.38,0.9-3.36
		c0.6-0.98,1.44-1.73,2.52-2.26c1.08-0.52,2.64-0.98,4.68-1.37c2.75-0.52,4.65-1,5.71-1.44v-0.59c0-1.13-0.28-1.94-0.84-2.42
		c-0.56-0.48-1.61-0.72-3.16-0.72c-1.05,0-1.86,0.21-2.45,0.62C668.86,179.3,668.38,180.02,668.02,181.05"/>
	<path style="clip-path:url(#SVGID_00000086661090937298240410000004107631216668698802_);fill:#1D1D1B;" d="M707.68,196.5h-5.88
		v-11.34c0-2.4-0.13-3.95-0.38-4.66c-0.25-0.7-0.66-1.25-1.22-1.64c-0.56-0.39-1.24-0.58-2.04-0.58c-1.02,0-1.93,0.28-2.74,0.84
		c-0.81,0.56-1.36,1.3-1.66,2.22c-0.3,0.92-0.45,2.62-0.45,5.1v10.07h-5.88v-22.23h5.46v3.26c1.94-2.51,4.38-3.76,7.32-3.76
		c1.3,0,2.48,0.23,3.56,0.7c1.07,0.47,1.89,1.07,2.44,1.79c0.55,0.73,0.94,1.55,1.15,2.47c0.22,0.92,0.32,2.24,0.32,3.95V196.5z"/>
	<path style="clip-path:url(#SVGID_00000086661090937298240410000004107631216668698802_);fill:#1D1D1B;" d="M725.56,165.81h6.19
		v16.62c0,2.64,0.08,4.34,0.23,5.13c0.26,1.26,0.9,2.26,1.89,3.03c1,0.76,2.36,1.14,4.09,1.14c1.76,0,3.08-0.36,3.98-1.08
		c0.89-0.72,1.43-1.6,1.61-2.65c0.18-1.05,0.27-2.78,0.27-5.21v-16.97h6.19v16.12c0,3.68-0.17,6.28-0.5,7.81
		c-0.34,1.52-0.95,2.8-1.85,3.85c-0.9,1.05-2.1,1.88-3.61,2.5c-1.51,0.62-3.48,0.93-5.9,0.93c-2.93,0-5.15-0.34-6.67-1.02
		c-1.51-0.68-2.71-1.55-3.59-2.63c-0.88-1.08-1.46-2.22-1.73-3.4c-0.41-1.76-0.61-4.36-0.61-7.79V165.81z"/>
	<path style="clip-path:url(#SVGID_00000086661090937298240410000004107631216668698802_);fill:#1D1D1B;" d="M776.73,196.5h-5.88
		v-11.34c0-2.4-0.13-3.95-0.38-4.66c-0.25-0.7-0.66-1.25-1.22-1.64c-0.56-0.39-1.24-0.58-2.04-0.58c-1.02,0-1.93,0.28-2.74,0.84
		c-0.81,0.56-1.36,1.3-1.66,2.22c-0.3,0.92-0.45,2.62-0.45,5.1v10.07h-5.88v-22.23h5.46v3.26c1.94-2.51,4.38-3.76,7.32-3.76
		c1.3,0,2.48,0.23,3.56,0.7c1.07,0.47,1.89,1.07,2.44,1.79c0.55,0.73,0.94,1.55,1.15,2.47c0.22,0.92,0.32,2.24,0.32,3.95V196.5z"/>
</g>
<path style="fill:#1D1D1B;" d="M782.69,174.27h5.88v22.23h-5.88V174.27z M782.69,165.82h5.88v5.44h-5.88V165.82z"/>
<g>
	<defs>
		<rect id="SVGID_00000093865990468258089630000003996126810246422458_" x="15.73" y="97.69" width="825.27" height="131.28"/>
	</defs>
	<clipPath id="SVGID_00000141418360707264471610000011193740700752042916_">
		<use xlink:href="#SVGID_00000093865990468258089630000003996126810246422458_"  style="overflow:visible;"/>
	</clipPath>
	<path style="clip-path:url(#SVGID_00000141418360707264471610000011193740700752042916_);fill:#1D1D1B;" d="M799.27,185.38
		c0,2.21,0.53,3.89,1.57,5.07c1.05,1.17,2.34,1.76,3.87,1.76c1.53,0,2.82-0.58,3.86-1.76c1.04-1.17,1.56-2.88,1.56-5.11
		c0-2.18-0.52-3.85-1.56-5.02c-1.04-1.17-2.33-1.76-3.86-1.76c-1.54,0-2.83,0.59-3.87,1.76
		C799.79,181.49,799.27,183.18,799.27,185.38 M793.24,185.07c0-1.95,0.48-3.84,1.45-5.67c0.96-1.83,2.33-3.22,4.09-4.19
		c1.77-0.96,3.74-1.44,5.91-1.44c3.37,0,6.12,1.09,8.27,3.27c2.15,2.18,3.22,4.94,3.22,8.28c0,3.36-1.08,6.15-3.25,8.36
		c-2.17,2.21-4.9,3.32-8.19,3.32c-2.04,0-3.98-0.46-5.83-1.38c-1.85-0.92-3.25-2.27-4.21-4.05
		C793.72,189.79,793.24,187.62,793.24,185.07"/>
	<path style="clip-path:url(#SVGID_00000141418360707264471610000011193740700752042916_);fill:#1D1D1B;" d="M841,196.5h-5.88
		v-11.34c0-2.4-0.13-3.95-0.38-4.66c-0.25-0.7-0.66-1.25-1.22-1.64c-0.56-0.39-1.24-0.58-2.04-0.58c-1.02,0-1.93,0.28-2.74,0.84
		c-0.81,0.56-1.36,1.3-1.66,2.22c-0.3,0.92-0.45,2.62-0.45,5.1v10.07h-5.88v-22.23h5.46v3.26c1.94-2.51,4.38-3.76,7.32-3.76
		c1.3,0,2.48,0.23,3.56,0.7c1.07,0.47,1.89,1.07,2.44,1.79c0.55,0.73,0.94,1.55,1.15,2.47c0.22,0.92,0.32,2.24,0.32,3.95V196.5z"/>
	<path style="clip-path:url(#SVGID_00000141418360707264471610000011193740700752042916_);fill:#1D1D1B;" d="M63.95,116.98
		c4.59,0,7.29-2.97,7.29-6.75c0-4.05-2.7-6.21-7.29-6.21h-9.99v12.96H63.95z M48.56,99.16h16.2c7.02,0,11.89,4.32,11.89,10.26
		c0,4.86-2.7,8.48-6.21,9.56c4.32,0,5.67,1.51,5.67,5.29v12.69h-5.4v-11.34c0-2.97-0.81-3.78-3.78-3.78H53.96v15.12h-5.4V99.16z"/>
	<path style="clip-path:url(#SVGID_00000141418360707264471610000011193740700752042916_);fill:#1D1D1B;" d="M85.23,120.22h13.45
		c-0.22-4.7-3.03-6.48-6.05-6.48h-0.54C89.33,113.74,86.2,115.42,85.23,120.22 M92.52,137.5c-6.7,0-12.75-4.65-12.75-14.1
		c0-9.34,6.21-13.99,12.58-13.99c7.02,0,11.45,4.86,11.45,11.88v2.97H84.9c0.32,6.16,4.27,8.91,7.62,8.91h0.32
		c2.7,0,5.24-1.35,5.78-4.21h5.13C102.89,134.53,98.14,137.5,92.52,137.5"/>
</g>
<rect x="112.34" y="119.64" style="fill:#1D1D1B;" width="41.58" height="4.59"/>
<rect x="15.73" y="135.37" style="fill:#1D1D1B;" width="5.4" height="37.81"/>
<g>
	<defs>
		<rect id="SVGID_00000121994318777398690000000003945156238349940107_" x="15.73" y="97.69" width="825.27" height="131.28"/>
	</defs>
	<clipPath id="SVGID_00000075853831134274868420000009584848388487857552_">
		<use xlink:href="#SVGID_00000121994318777398690000000003945156238349940107_"  style="overflow:visible;"/>
	</clipPath>
	<path style="clip-path:url(#SVGID_00000075853831134274868420000009584848388487857552_);fill:#1D1D1B;" d="M32.09,173.18h-5.13
		v-27.01h5.13v3.78c1.62-2.43,4.32-4.32,8.1-4.32c3.89,0,7.13,1.51,8.91,5.02c2.11-3.72,5.62-5.02,8.91-5.02
		c6.21,0,9.72,3.78,9.72,9.45v18.09H62.6v-17.01c0-3.78-1.62-6.21-5.4-6.21h-0.54c-3.24,0-6.75,2.97-6.75,8.1v15.12h-5.13v-17.01
		c0-3.78-1.62-6.21-5.4-6.21h-0.54c-3.24,0-6.75,2.97-6.75,8.1V173.18z"/>
	<path style="clip-path:url(#SVGID_00000075853831134274868420000009584848388487857552_);fill:#1D1D1B;" d="M81.23,161.24
		c-3.13,0.27-5.4,1.78-5.4,4.27c0,2.22,1.84,3.89,4.32,3.89h0.54c3.24,0,7.29-2.7,7.29-5.94v-2.75L81.23,161.24z M88.53,173.18
		c-0.27-1.35-0.27-4.05-0.27-4.32c-1.08,2.43-4.32,4.86-8.64,4.86c-5.13,0-8.91-3.4-8.91-7.99c0-6.16,5.45-7.99,9.83-8.37l7.45-0.6
		v-0.86c0-3.78-2.16-5.94-5.67-5.94h-0.27c-2.92,0-5.34,1.35-5.67,4.05h-5.13c0.32-4.97,4.81-8.37,10.91-8.37
		c7.18,0,10.96,4.76,10.96,10.27v11.34c0,1.62,0,4.05,0.27,5.94H88.53z"/>
	<path style="clip-path:url(#SVGID_00000075853831134274868420000009584848388487857552_);fill:#1D1D1B;" d="M108.99,168.86
		c3.67,0,7.4-3.51,7.4-9.45s-3.46-9.45-7.13-9.45h-0.54c-3.78,0-7.29,2.7-7.29,9.45c0,6.75,3.24,9.45,7.02,9.45H108.99z
		 M95.76,176.69h5.13c0.54,2.7,3.46,4.05,7.13,4.05h0.54c4.59,0,7.83-2.43,7.83-8.1v-3.78c-1.35,2.16-4.05,4.32-8.1,4.32
		c-6.21,0-11.99-4.32-11.99-13.77c0-9.45,5.62-13.77,11.99-13.77c4.05,0,7.02,2.16,8.1,4.32v-3.78h5.13v27
		c0,6.75-4.86,11.89-13.23,11.89C100.73,185.06,96.3,181.55,95.76,176.69"/>
</g>
<path style="fill:#1D1D1B;" d="M126.54,146.18h5.13v27.01h-5.13V146.18z M126.28,135.37h5.67v5.94h-5.67V135.37z"/>
<g>
	<defs>
		<rect id="SVGID_00000046314016117668865050000009083896540085821107_" x="15.73" y="97.69" width="825.27" height="131.28"/>
	</defs>
	<clipPath id="SVGID_00000008862880553251125620000010678226519412700092_">
		<use xlink:href="#SVGID_00000046314016117668865050000009083896540085821107_"  style="overflow:visible;"/>
	</clipPath>
	<path style="clip-path:url(#SVGID_00000008862880553251125620000010678226519412700092_);fill:#1D1D1B;" d="M141.83,173.18h-5.13
		v-27.01h5.13v3.78c1.62-2.43,4.32-4.32,8.64-4.32c6.21,0,9.72,3.78,9.72,9.45v18.09h-5.13v-17.01c0-3.78-1.62-6.21-5.4-6.21h-0.54
		c-3.78,0-7.29,2.97-7.29,8.1V173.18z"/>
	<path style="clip-path:url(#SVGID_00000008862880553251125620000010678226519412700092_);fill:#1D1D1B;" d="M168.78,156.44h13.45
		c-0.22-4.7-3.03-6.48-6.05-6.48h-0.54C172.88,149.96,169.75,151.63,168.78,156.44 M176.07,173.72c-6.7,0-12.75-4.65-12.75-14.1
		c0-9.34,6.21-13.99,12.58-13.99c7.02,0,11.45,4.86,11.45,11.88v2.97h-18.9c0.32,6.16,4.27,8.91,7.62,8.91h0.32
		c2.7,0,5.24-1.35,5.78-4.21h5.13C186.44,170.75,181.68,173.72,176.07,173.72"/>
</g>
<polygon style="fill:#1D1D1B;" points="15.73,180.36 15.73,218.17 43.81,218.17 43.81,213.31 21.13,213.31 21.13,201.16 
	40.03,201.16 40.03,196.3 21.13,196.3 21.13,185.22 43.27,185.22 43.27,180.36 "/>
<g>
	<defs>
		<rect id="SVGID_00000074409527024107263320000004673346727197660843_" x="15.73" y="97.69" width="825.27" height="131.28"/>
	</defs>
	<clipPath id="SVGID_00000059309361506781777670000014993939623595966393_">
		<use xlink:href="#SVGID_00000074409527024107263320000004673346727197660843_"  style="overflow:visible;"/>
	</clipPath>
	<path style="clip-path:url(#SVGID_00000059309361506781777670000014993939623595966393_);fill:#1D1D1B;" d="M69.41,218.17h-5.13
		v-5.13c-1.03,2.97-3.94,5.67-8.64,5.67c-6.05,0-9.18-4.05-9.18-9.72v-17.82h5.13v16.74c0,4.32,1.78,6.48,5.4,6.48h0.54
		c3.4,0,6.75-3.24,6.75-8.64v-14.58h5.13V218.17z"/>
	<path style="clip-path:url(#SVGID_00000059309361506781777670000014993939623595966393_);fill:#1D1D1B;" d="M73.35,191.17h4.86
		v5.94c1.08-4.05,4.32-6.21,7.83-6.21h2.43v4.97h-2.16c-4.86,0-7.83,3.24-7.83,8.64v13.67h-5.13V191.17z"/>
	<path style="clip-path:url(#SVGID_00000059309361506781777670000014993939623595966393_);fill:#1D1D1B;" d="M108.78,204.67
		c0-6.21-3.24-9.72-7.56-9.72h-0.54c-4.32,0-7.56,3.51-7.56,9.72c0,6.21,3.24,9.72,7.56,9.72h0.54
		C105.54,214.39,108.78,210.88,108.78,204.67 M87.98,204.67c0-8.37,5.67-14.04,12.96-14.04c7.29,0,12.96,5.67,12.96,14.04
		c0,8.37-5.67,14.04-12.96,14.04C93.66,218.71,87.98,213.04,87.98,204.67"/>
	<path style="clip-path:url(#SVGID_00000059309361506781777670000014993939623595966393_);fill:#1D1D1B;" d="M121.31,204.67
		c0,6.48,3.78,9.72,7.56,9.72h0.54c4.05,0,7.29-3.24,7.29-9.72c0-6.48-3.24-9.72-7.29-9.72h-0.54
		C125.09,194.95,121.31,198.19,121.31,204.67 M141.83,204.67c0,8.91-5.4,14.04-12.15,14.04c-3.78,0-7.02-1.89-8.37-4.32v14.58h-5.13
		v-37.8h5.13v3.78c1.35-2.43,5.13-4.32,8.91-4.32C136.97,190.62,141.83,195.76,141.83,204.67"/>
	<path style="clip-path:url(#SVGID_00000059309361506781777670000014993939623595966393_);fill:#1D1D1B;" d="M149.44,201.43h13.45
		c-0.22-4.7-3.03-6.48-6.05-6.48h-0.54C153.55,194.95,150.41,196.62,149.44,201.43 M156.73,218.71c-6.7,0-12.75-4.65-12.75-14.1
		c0-9.34,6.21-13.99,12.58-13.99c7.02,0,11.45,4.86,11.45,11.88v2.97h-18.9c0.32,6.16,4.27,8.91,7.62,8.91h0.32
		c2.7,0,5.24-1.35,5.78-4.21h5.13C167.1,215.74,162.35,218.71,156.73,218.71"/>
</g>
</svg>
