<?xml version="1.0" encoding="utf-8"?>
<!-- Generator: Adobe Illustrator 27.8.0, SVG Export Plug-In . SVG Version: 6.00 Build 0)  -->
<svg version="1.1" id="Ebene_1" xmlns="http://www.w3.org/2000/svg" xmlns:xlink="http://www.w3.org/1999/xlink" x="0px" y="0px"
	 viewBox="0 0 689 500" style="enable-background:new 0 0 689 500;" xml:space="preserve">
<g>
	<polygon style="fill-rule:evenodd;clip-rule:evenodd;" points="280.71,204.45 286.62,204.45 286.62,176.67 286.35,172.27 
		304.5,204.45 312.75,204.45 312.75,165.54 306.7,165.54 306.7,193.45 306.98,198.12 288.41,165.54 280.71,165.54 280.71,204.45 	
		"/>
	<polygon style="fill-rule:evenodd;clip-rule:evenodd;" points="335.99,173.65 335.99,173.65 333.79,173.79 331.59,174.2 
		331.59,174.2 332.14,179.01 332.14,179.01 332.96,178.6 333.79,178.46 334.75,178.32 335.85,178.19 335.85,178.19 336.95,178.32 
		338.05,178.46 339.01,178.74 339.98,179.29 340.66,179.7 341.35,180.39 341.9,181.07 342.45,181.76 342.86,182.59 343.28,183.55 
		343.69,185.34 343.96,187.4 344.1,189.32 344.1,189.32 343.96,191.52 343.69,193.59 343.28,195.37 342.86,196.2 342.45,197.02 
		341.9,197.71 341.35,198.4 340.66,198.95 339.98,199.5 339.01,199.91 338.19,200.19 337.09,200.32 335.85,200.32 335.85,200.32 
		334.61,200.32 333.38,200.05 333.38,200.05 332.83,204.86 332.83,204.86 334.06,205 335.58,205 335.58,205 337.09,205 
		338.6,204.86 339.98,204.45 341.35,204.04 342.59,203.49 343.69,202.8 344.79,202.11 345.89,201.15 346.71,200.05 347.54,198.95 
		348.23,197.71 348.78,196.2 349.33,194.69 349.6,193.04 349.88,191.25 349.88,189.32 349.88,189.32 349.88,187.54 349.74,185.89 
		349.46,184.24 349.05,182.72 348.64,181.35 347.95,179.97 347.26,178.87 346.44,177.77 345.61,176.81 344.51,175.99 343.41,175.3 
		342.18,174.61 340.8,174.2 339.29,173.92 337.64,173.65 335.99,173.65 335.99,173.65 	"/>
	<polygon style="fill-rule:evenodd;clip-rule:evenodd;" points="327.46,189.46 327.46,189.46 327.46,187.81 327.6,186.3 
		328.01,184.65 328.43,183.27 329.11,181.9 329.94,180.66 330.9,179.7 331.59,179.29 332.14,179.01 332.14,179.01 331.59,174.2 
		331.59,174.2 330.49,174.47 329.53,175.02 328.43,175.57 327.46,176.12 326.64,176.81 325.81,177.64 324.99,178.46 324.3,179.42 
		323.75,180.39 323.2,181.49 322.65,182.72 322.38,183.96 321.96,185.34 321.83,186.71 321.69,188.22 321.55,189.74 321.55,189.74 
		321.69,191.25 321.83,192.76 321.96,194.27 322.38,195.51 322.79,196.89 323.2,197.99 323.89,199.09 324.58,200.05 325.26,201.01 
		326.09,201.84 327.05,202.52 328.01,203.21 329.11,203.76 330.21,204.17 331.45,204.59 332.83,204.86 332.83,204.86 333.38,200.05 
		333.38,200.05 332.55,199.77 331.86,199.5 331.18,199.09 330.63,198.67 330.08,198.12 329.53,197.57 328.7,196.2 328.15,194.69 
		327.74,193.04 327.46,191.25 327.46,189.46 327.46,189.46 	"/>
	<polygon style="fill-rule:evenodd;clip-rule:evenodd;" points="370.36,200.32 370.36,200.32 370.23,200.32 370.23,200.32 
		369.13,200.32 368.03,200.19 367.06,199.91 366.24,199.5 365.41,199.09 364.73,198.54 364.18,197.85 363.63,197.16 363.21,196.34 
		362.8,195.51 362.25,193.72 361.84,191.66 361.84,189.46 361.84,189.46 361.84,187.4 362.11,185.47 362.66,183.69 362.94,182.72 
		363.35,181.9 363.9,181.21 364.45,180.52 365.14,179.84 365.83,179.29 366.65,178.87 367.61,178.6 368.58,178.32 369.68,178.19 
		369.68,178.19 369.54,173.65 369.54,173.65 368.03,173.79 366.65,174.06 365.28,174.34 364.04,174.89 362.8,175.57 361.7,176.26 
		360.74,177.09 359.78,178.05 358.95,179.15 358.13,180.39 357.44,181.62 357.03,183 356.48,184.51 356.2,186.16 356.06,187.95 
		355.93,189.74 355.93,189.74 356.06,191.52 356.2,193.17 356.48,194.69 356.89,196.2 357.44,197.57 358.13,198.81 358.81,200.05 
		359.64,201.01 360.6,201.97 361.7,202.8 362.8,203.49 364.04,204.04 365.41,204.45 366.79,204.86 368.3,205 369.95,205 369.95,205 
		370.36,205 370.36,205 370.36,200.32 370.36,200.32 	"/>
	<polygon style="fill-rule:evenodd;clip-rule:evenodd;" points="384.25,189.32 384.25,189.32 384.25,187.54 384.11,185.89 
		383.84,184.24 383.43,182.72 383.01,181.35 382.33,179.97 381.64,178.87 380.81,177.77 379.99,176.81 378.89,175.99 377.79,175.3 
		376.55,174.61 375.18,174.2 373.66,173.92 372.01,173.65 370.36,173.65 370.36,173.65 369.54,173.65 369.54,173.65 369.68,178.19 
		369.68,178.19 370.23,178.19 370.23,178.19 371.33,178.32 372.43,178.46 373.39,178.74 374.35,179.29 375.04,179.7 375.73,180.39 
		376.28,181.07 376.83,181.76 377.24,182.59 377.65,183.55 378.06,185.34 378.34,187.4 378.48,189.32 378.48,189.32 378.34,191.52 
		378.06,193.45 377.65,195.37 377.24,196.2 376.83,197.02 376.41,197.71 375.73,198.4 375.18,198.95 374.35,199.36 373.53,199.77 
		372.56,200.19 371.6,200.32 370.36,200.32 370.36,200.32 370.36,205 370.36,205 371.88,205 373.25,204.72 374.63,204.45 
		376,204.04 377.24,203.35 378.34,202.66 379.44,201.97 380.4,201.01 381.23,199.91 382.05,198.81 382.74,197.57 383.29,196.2 
		383.7,194.69 383.98,193.04 384.25,191.25 384.25,189.32 384.25,189.32 	"/>
	<polygon style="fill-rule:evenodd;clip-rule:evenodd;" points="392.37,204.45 398,204.45 398,182.86 398,182.86 398.69,182.04 
		399.38,181.35 400.07,180.66 401.03,179.97 401.99,179.42 403.09,179.01 404.33,178.74 405.57,178.6 405.57,178.6 407.63,178.74 
		409.28,179.01 410.1,174.2 410.1,174.2 408.59,173.92 407.63,173.79 406.39,173.65 406.39,173.65 405.02,173.79 403.64,174.2 
		402.4,174.61 401.3,175.3 400.2,175.99 399.38,176.81 398.69,177.64 398,178.32 398,174.34 392.37,174.34 392.37,204.45 	"/>
	<polygon style="fill-rule:evenodd;clip-rule:evenodd;" points="439.12,204.45 439.12,162.92 433.48,162.92 433.48,174.2 
		433.48,174.2 432.24,173.92 431,173.79 429.63,173.65 427.98,173.65 427.98,173.65 426.74,173.65 425.37,173.79 424.13,174.06 
		422.89,174.34 422.89,174.34 424.27,179.01 424.27,179.01 425.09,178.6 426.05,178.46 427.02,178.32 428.12,178.19 428.12,178.19 
		429.77,178.32 431.28,178.46 432.38,178.74 433.48,179.01 433.48,197.44 433.48,197.44 431.55,198.54 430.32,199.22 429.08,199.77 
		429.08,199.77 429.9,204.17 429.9,204.17 430.87,203.62 431.83,202.94 433.48,201.7 433.48,204.45 439.12,204.45 	"/>
	<polygon style="fill-rule:evenodd;clip-rule:evenodd;" points="426.88,200.05 426.88,200.05 425.23,199.91 424.4,199.77 
		423.72,199.5 423.03,199.22 422.34,198.81 421.79,198.26 421.24,197.71 420.69,197.02 420.28,196.2 419.87,195.37 419.59,194.41 
		419.32,193.31 419.04,192.21 419.04,190.84 418.9,189.46 418.9,189.46 419.04,187.81 419.18,186.16 419.59,184.51 420.14,183.14 
		420.97,181.76 421.79,180.66 423.03,179.7 424.27,179.01 424.27,179.01 422.89,174.34 422.89,174.34 421.93,174.75 420.83,175.16 
		419.87,175.71 419.04,176.26 418.22,176.95 417.39,177.77 416.57,178.6 415.88,179.42 415.33,180.39 414.78,181.49 414.23,182.59 
		413.95,183.82 413.54,185.06 413.4,186.44 413.27,187.81 413.13,189.32 413.13,189.32 413.27,191.66 413.54,193.86 413.82,195.65 
		414.37,197.3 415.05,198.81 415.74,200.05 416.57,201.15 417.53,202.11 418.49,202.8 419.45,203.49 420.55,203.9 421.65,204.31 
		422.75,204.59 423.85,204.72 426.05,204.86 426.05,204.86 427.15,204.86 428.12,204.72 429.08,204.45 429.9,204.17 429.9,204.17 
		429.08,199.77 429.08,199.77 427.98,200.05 426.88,200.05 426.88,200.05 	"/>
	<polygon style="fill-rule:evenodd;clip-rule:evenodd;" points="446.27,190.97 462.63,190.97 462.63,186.3 446.27,186.3 
		446.27,190.97 	"/>
	<polygon style="fill-rule:evenodd;clip-rule:evenodd;" points="470.6,204.45 476.52,204.45 476.52,187.26 496.46,187.26 
		496.46,204.45 502.37,204.45 502.37,165.54 496.46,165.54 496.46,182.45 476.52,182.45 476.52,165.54 470.6,165.54 470.6,204.45 	
		"/>
	<polygon style="fill-rule:evenodd;clip-rule:evenodd;" points="526.84,173.65 526.84,173.65 525.47,178.19 525.47,178.19 
		526.71,178.32 527.81,178.46 528.77,178.74 529.59,179.29 530.42,179.7 531.11,180.39 531.66,181.07 532.21,181.76 532.62,182.59 
		532.89,183.55 533.44,185.34 533.72,187.4 533.72,189.32 533.72,189.32 533.72,191.52 533.44,193.59 532.89,195.37 532.62,196.2 
		532.21,197.02 531.66,197.71 531.11,198.4 530.42,198.95 529.59,199.5 528.77,199.91 527.81,200.19 526.71,200.32 525.61,200.32 
		525.61,200.32 523.82,200.32 522.31,199.91 521.07,199.22 519.97,198.4 519.97,198.4 518.87,203.76 518.87,203.76 520.38,204.31 
		521.89,204.72 523.54,205 525.19,205 525.19,205 526.84,205 528.22,204.86 529.59,204.45 530.97,204.04 532.21,203.49 
		533.44,202.8 534.54,202.11 535.51,201.15 536.47,200.05 537.29,198.95 537.98,197.71 538.53,196.2 538.94,194.69 539.36,193.04 
		539.49,191.25 539.63,189.32 539.63,189.32 539.63,187.67 539.36,186.02 539.22,184.37 538.81,183 538.39,181.62 537.84,180.39 
		537.16,179.15 536.47,178.19 535.64,177.22 534.68,176.26 533.58,175.57 532.48,175.02 531.24,174.47 529.87,174.06 528.36,173.79 
		526.84,173.65 526.84,173.65 	"/>
	<polygon style="fill-rule:evenodd;clip-rule:evenodd;" points="517.08,189.46 517.08,189.46 517.22,187.4 517.49,185.34 
		518.04,183.55 518.46,182.59 518.87,181.76 519.28,181.07 519.97,180.39 520.66,179.7 521.34,179.15 522.31,178.74 523.27,178.46 
		524.23,178.32 525.47,178.19 525.47,178.19 525.47,178.19 525.47,178.19 526.84,173.65 526.84,173.65 525.61,173.65 525.61,173.65 
		524.09,173.65 522.58,173.92 521.21,174.2 519.83,174.61 518.59,175.3 517.36,175.99 516.26,176.81 515.29,177.77 514.47,178.87 
		513.64,180.11 512.96,181.49 512.41,182.86 511.86,184.37 511.58,186.02 511.31,187.81 511.31,189.74 511.31,189.74 511.44,192.21 
		511.86,194.55 512.41,196.75 513.23,198.54 514.33,200.32 515.71,201.7 517.22,202.94 518.87,203.76 518.87,203.76 519.97,198.4 
		519.97,198.4 519.28,197.57 518.73,196.61 518.18,195.65 517.77,194.55 517.49,193.31 517.22,192.07 517.22,190.84 517.08,189.46 
		517.08,189.46 	"/>
	<polygon style="fill-rule:evenodd;clip-rule:evenodd;" points="547.61,204.45 553.38,204.45 553.38,162.92 547.61,162.92 
		547.61,204.45 	"/>
	<polygon style="fill-rule:evenodd;clip-rule:evenodd;" points="563.42,204.45 569.19,204.45 569.19,162.92 563.42,162.92 
		563.42,204.45 	"/>
	<polygon style="fill-rule:evenodd;clip-rule:evenodd;" points="600.82,197.85 600.82,182.17 600.82,182.17 600.82,181.07 
		600.68,179.97 600.41,179.01 600.13,178.19 599.72,177.5 599.31,176.81 598.62,176.12 597.93,175.57 597.25,175.16 596.42,174.75 
		595.46,174.34 594.36,174.06 592.16,173.79 589.55,173.65 589.55,173.65 587.76,173.65 586.25,173.79 583.36,174.34 580.88,175.02 
		579.1,175.57 580.33,179.97 580.33,179.97 583.91,179.15 585.97,178.74 588.17,178.6 588.17,178.6 589.96,178.6 591.33,178.87 
		592.57,179.15 593.53,179.56 594.36,180.25 594.91,181.07 595.18,182.31 595.32,183.69 595.32,186.99 588.72,187.12 588.72,187.12 
		587.07,187.26 585.42,187.4 585.42,187.4 587.21,189.19 588.72,190.97 588.72,190.97 588.86,190.97 595.32,190.7 595.32,197.57 
		595.32,197.57 593.4,198.54 593.4,198.54 594.91,201.7 594.91,201.7 595.73,201.15 595.73,201.15 596.01,201.97 596.56,202.8 
		597.25,203.35 598.07,203.9 599.03,204.31 600,204.59 601.1,204.72 602.2,204.72 602.2,204.72 603.3,204.72 603.57,200.19 
		603.57,200.19 602.61,200.05 602.2,199.91 601.78,199.64 601.37,199.36 601.1,198.95 600.96,198.54 600.82,197.85 600.82,197.85 	
		"/>
	<polygon style="fill-rule:evenodd;clip-rule:evenodd;" points="587.21,200.32 587.21,200.32 586.11,200.19 585.28,200.05 
		584.46,199.77 583.63,199.22 583.08,198.67 582.67,197.85 582.4,196.89 582.4,195.65 582.4,195.65 582.4,194.69 582.81,193.86 
		583.36,193.04 584.05,192.35 584.87,191.8 585.97,191.39 587.21,191.11 588.72,190.97 588.72,190.97 587.21,189.19 585.42,187.4 
		585.42,187.4 583.77,187.67 582.26,188.22 580.75,188.91 579.51,189.87 578.82,190.42 578.27,190.97 577.86,191.66 577.45,192.35 
		577.17,193.31 576.9,194.14 576.76,195.1 576.76,196.2 576.76,196.2 576.9,198.26 577.03,199.09 577.31,199.91 577.72,200.74 
		578.13,201.42 578.55,202.11 579.1,202.66 579.78,203.21 580.47,203.62 581.16,204.04 581.98,204.31 583.77,204.72 585.83,204.86 
		585.83,204.86 587.35,204.72 588.86,204.59 590.1,204.17 591.33,203.76 592.43,203.21 593.26,202.8 594.91,201.7 594.91,201.7 
		593.4,198.54 593.4,198.54 592.02,199.09 590.51,199.64 588.86,200.19 587.21,200.32 587.21,200.32 	"/>
	<polygon style="fill-rule:evenodd;clip-rule:evenodd;" points="612.1,204.45 617.73,204.45 617.73,181.76 617.73,181.76 
		619.52,180.66 621.58,179.7 622.82,179.29 623.92,178.87 625.16,178.74 626.4,178.6 626.4,178.6 628.05,178.74 629.28,179.15 
		629.83,179.29 630.25,179.7 630.66,180.11 630.93,180.52 631.48,181.49 631.76,182.86 631.9,184.37 631.9,186.02 631.9,204.45 
		637.67,204.45 637.67,185.2 637.67,185.2 637.53,183.14 637.4,181.07 636.98,179.01 636.71,178.19 636.16,177.22 635.75,176.54 
		635.06,175.85 634.23,175.16 633.41,174.61 632.31,174.2 631.07,173.92 629.7,173.65 628.05,173.65 628.05,173.65 626.53,173.65 
		625.02,174.06 623.65,174.47 622.27,175.02 621.03,175.57 619.8,176.26 617.73,177.64 617.73,174.34 612.1,174.34 612.1,204.45 	
		"/>
	<polygon style="fill-rule:evenodd;clip-rule:evenodd;" points="655.41,199.36 655.41,199.36 654.45,198.67 653.62,197.99 
		652.93,197.02 652.38,195.92 651.83,194.69 651.42,193.17 651.28,191.39 651.15,189.46 651.15,189.46 651.28,187.81 651.42,186.3 
		651.7,184.79 652.25,183.41 652.93,182.17 653.76,181.07 654.72,180.11 655.82,179.29 655.82,179.29 655.82,174.2 655.82,174.2 
		654.72,174.47 653.62,174.89 652.66,175.44 651.7,175.99 650.73,176.67 649.91,177.5 649.08,178.32 648.4,179.15 647.71,180.11 
		647.16,181.21 646.61,182.45 646.2,183.55 645.78,184.92 645.65,186.3 645.37,187.81 645.37,189.32 645.37,189.32 645.37,191.39 
		645.65,193.17 645.92,194.82 646.2,196.34 646.75,197.71 647.3,198.81 647.85,199.91 648.53,200.87 649.36,201.7 650.05,202.39 
		650.87,202.94 651.83,203.49 652.66,203.9 653.62,204.31 655.41,204.72 655.41,204.72 655.41,199.36 655.41,199.36 	"/>
	<polygon style="fill-rule:evenodd;clip-rule:evenodd;" points="665.58,162.92 665.58,174.2 665.58,174.2 664.35,173.92 
		663.25,173.79 661.87,173.65 660.22,173.65 660.22,173.65 658.02,173.79 655.82,174.2 655.82,174.2 655.82,179.29 655.82,179.29 
		656.78,178.87 657.88,178.46 658.98,178.32 660.22,178.19 660.22,178.19 662.01,178.32 663.38,178.46 664.62,178.74 665.58,179.01 
		665.58,197.44 665.58,197.44 664.35,198.12 662.83,199.09 661.87,199.5 660.91,199.77 659.95,200.05 658.98,200.05 658.98,200.05 
		658.02,200.05 657.06,199.91 656.23,199.64 655.41,199.36 655.41,199.36 655.41,204.72 655.41,204.72 656.92,204.86 658.3,204.86 
		658.3,204.86 659.53,204.86 660.63,204.59 661.6,204.31 662.56,203.9 663.52,203.35 664.21,202.8 665.58,201.7 665.58,204.45 
		671.36,204.45 671.36,162.92 665.58,162.92 	"/>
	<polygon style="fill-rule:evenodd;clip-rule:evenodd;" points="294.05,110.53 280.71,110.53 280.71,149.45 286.62,149.45 
		286.62,115.21 292.81,115.21 292.81,115.21 294.88,115.35 294.88,115.35 294.19,110.53 294.19,110.53 294.05,110.53 294.05,110.53 
			"/>
	<polygon style="fill-rule:evenodd;clip-rule:evenodd;" points="291.57,131.44 289.1,131.44 289.1,136.25 291.16,136.25 
		291.16,136.25 292.95,136.25 294.6,135.97 296.25,135.84 297.76,135.42 297.76,135.42 296.94,130.47 296.94,130.47 295.84,130.89 
		294.46,131.16 293.09,131.44 291.57,131.44 291.57,131.44 	"/>
	<polygon style="fill-rule:evenodd;clip-rule:evenodd;" points="307.39,123.19 307.39,123.19 307.25,121.67 307.11,120.3 
		306.84,119.06 306.43,117.82 305.88,116.72 305.33,115.62 304.5,114.66 303.68,113.84 302.85,113.01 301.89,112.46 300.79,111.91 
		299.55,111.36 298.31,110.95 297.08,110.81 295.56,110.53 294.19,110.53 294.19,110.53 294.88,115.35 294.88,115.35 296.39,115.76 
		297.76,116.31 298.86,117 299.69,117.82 300.38,118.92 300.79,120.3 301.06,121.67 301.2,123.32 301.2,123.32 301.06,124.7 
		300.93,125.8 300.51,126.9 300.1,127.72 299.55,128.55 298.73,129.37 297.9,129.92 296.94,130.47 296.94,130.47 297.76,135.42 
		297.76,135.42 298.86,135.01 299.96,134.6 301.06,134.05 301.89,133.5 302.85,132.81 303.68,132.12 304.36,131.44 304.91,130.61 
		305.46,129.79 306.01,128.96 306.43,128.14 306.7,127.17 307.25,125.25 307.39,123.19 307.39,123.19 	"/>
	<polygon style="fill-rule:evenodd;clip-rule:evenodd;" points="313.71,149.45 319.35,149.45 319.35,127.86 319.35,127.86 
		320.04,127.04 320.73,126.35 321.41,125.66 322.38,124.97 323.34,124.42 324.44,124.01 325.68,123.74 326.91,123.6 326.91,123.6 
		328.98,123.74 330.63,124.01 331.45,119.2 331.45,119.2 329.94,118.92 328.98,118.79 327.74,118.65 327.74,118.65 326.36,118.79 
		324.99,119.2 323.75,119.61 322.65,120.3 321.55,120.99 320.73,121.81 320.04,122.64 319.35,123.32 319.35,119.34 313.71,119.34 
		313.71,149.45 	"/>
	<polygon style="fill-rule:evenodd;clip-rule:evenodd;" points="340.39,134.46 340.39,134.46 340.39,132.4 340.66,130.34 
		341.21,128.55 341.63,127.59 342.04,126.76 342.59,126.07 343.14,125.39 343.83,124.7 344.65,124.15 345.48,123.74 346.44,123.46 
		347.54,123.32 348.78,123.19 348.78,123.19 349.74,123.32 350.84,123.46 351.66,123.74 352.49,124.01 352.49,124.01 353.73,119.2 
		353.73,119.2 352.63,118.92 351.39,118.79 348.91,118.65 348.91,118.65 347.26,118.65 345.89,118.92 344.38,119.2 343.14,119.61 
		341.76,120.3 340.66,120.99 339.56,121.81 338.6,122.77 337.64,123.87 336.81,125.11 336.13,126.49 335.58,127.86 335.16,129.37 
		334.75,131.02 334.61,132.81 334.48,134.74 334.48,134.74 334.61,136.39 334.75,137.9 335.03,139.27 335.3,140.65 335.71,142.02 
		336.26,143.12 336.95,144.22 337.64,145.32 338.33,146.29 339.29,147.11 340.25,147.8 341.21,148.35 342.45,148.9 343.55,149.45 
		344.93,149.72 346.3,150 346.3,150 347.26,145.32 347.26,145.32 346.3,145.05 345.48,144.77 344.65,144.5 343.96,143.95 
		343.28,143.54 342.73,142.99 342.31,142.3 341.9,141.61 341.21,140.1 340.66,138.31 340.39,136.39 340.39,134.46 340.39,134.46 	
		"/>
	<polygon style="fill-rule:evenodd;clip-rule:evenodd;" points="353.73,119.2 353.73,119.2 352.49,124.01 352.49,124.01 
		353.73,124.84 354.69,125.8 355.51,127.04 356.06,128.27 356.48,129.79 356.75,131.3 357.03,132.81 357.03,134.32 357.03,134.32 
		356.89,136.52 356.61,138.59 356.2,140.37 355.79,141.2 355.38,142.02 354.83,142.71 354.28,143.4 353.59,143.95 352.9,144.5 
		351.94,144.91 351.11,145.19 350.01,145.32 348.78,145.32 348.78,145.32 347.26,145.32 347.26,145.32 346.3,150 346.3,150 
		348.5,150 348.5,150 350.01,150 351.53,149.86 352.9,149.45 354.28,149.04 355.51,148.49 356.61,147.8 357.71,147.11 
		358.81,146.15 359.64,145.05 360.46,143.95 361.15,142.71 361.7,141.2 362.25,139.69 362.53,138.04 362.8,136.25 362.8,134.32 
		362.8,134.32 362.66,131.44 362.25,128.82 361.98,127.59 361.56,126.49 361.15,125.39 360.6,124.42 360.05,123.46 359.36,122.64 
		358.54,121.95 357.71,121.12 356.89,120.57 355.93,120.02 354.83,119.61 353.73,119.2 353.73,119.2 	"/>
	<polygon style="fill-rule:evenodd;clip-rule:evenodd;" points="377.1,149.45 384.53,149.45 395.53,119.34 389.62,119.34 
		383.01,138.59 380.95,145.05 379.16,138.72 373.25,119.34 366.93,119.34 377.1,149.45 	"/>
	<polygon style="fill-rule:evenodd;clip-rule:evenodd;" points="401.72,149.45 407.49,149.45 407.49,119.34 401.72,119.34 
		401.72,149.45 	"/>
	<polygon style="fill-rule:evenodd;clip-rule:evenodd;" points="402.82,112.74 404.47,114.39 408.87,109.98 405.7,106.82 
		405.7,106.82 404.33,109.85 402.82,112.74 402.82,112.74 	"/>
	<polygon style="fill-rule:evenodd;clip-rule:evenodd;" points="404.47,105.72 400.2,109.98 402.82,112.74 402.82,112.74 
		404.33,109.85 405.7,106.82 404.47,105.72 	"/>
	<polygon style="fill-rule:evenodd;clip-rule:evenodd;" points="417.53,149.45 423.17,149.45 423.17,126.76 423.17,126.76 
		425.09,125.66 427.15,124.7 428.25,124.29 429.35,123.87 430.59,123.74 431.83,123.6 431.83,123.6 433.48,123.74 434.72,124.15 
		435.27,124.29 435.68,124.7 436.09,125.11 436.37,125.52 436.92,126.49 437.19,127.86 437.33,129.37 437.47,131.02 437.47,149.45 
		443.1,149.45 443.1,130.2 443.1,130.2 443.1,128.14 442.83,126.07 442.42,124.01 442.14,123.19 441.73,122.22 441.18,121.54 
		440.49,120.85 439.8,120.16 438.84,119.61 437.74,119.2 436.5,118.92 435.13,118.65 433.48,118.65 433.48,118.65 431.97,118.65 
		430.45,119.06 429.08,119.47 427.7,120.02 426.47,120.57 425.37,121.26 423.17,122.64 423.17,119.34 417.53,119.34 417.53,149.45 	
		"/>
	<polygon style="fill-rule:evenodd;clip-rule:evenodd;" points="466.75,150 466.75,150 468.95,149.86 471.02,149.59 472.67,149.31 
		474.04,148.9 473.22,144.36 473.22,144.36 470.6,144.91 468.95,145.05 467.17,145.19 467.17,145.19 465.79,145.19 464.42,145.05 
		463.18,144.77 462.08,144.5 461.12,144.09 460.29,143.67 459.47,143.12 458.92,142.44 458.37,141.75 457.82,140.92 457.54,140.1 
		457.27,139.14 456.99,138.04 456.85,136.8 456.72,134.19 456.72,134.19 456.72,132.95 456.85,131.71 457.13,130.47 457.4,129.51 
		457.82,128.41 458.23,127.59 458.64,126.76 459.33,126.07 459.88,125.39 460.57,124.84 461.25,124.42 462.08,124.01 462.9,123.74 
		463.73,123.6 464.69,123.46 465.65,123.32 465.65,123.32 467.85,123.46 469.64,123.87 471.15,124.29 472.53,124.84 474.18,120.44 
		474.18,120.44 472.67,119.75 470.88,119.2 468.54,118.79 467.17,118.65 465.65,118.65 465.65,118.65 464,118.65 462.35,118.92 
		460.84,119.2 459.47,119.75 458.23,120.3 456.99,120.99 455.89,121.81 454.79,122.77 453.97,123.87 453.14,125.11 452.45,126.35 
		451.9,127.72 451.49,129.24 451.08,130.89 450.94,132.54 450.8,134.32 450.8,134.32 450.94,136.25 451.08,138.17 451.35,139.82 
		451.77,141.34 452.32,142.85 452.87,144.09 453.69,145.19 454.65,146.29 455.62,147.11 456.85,147.94 458.09,148.49 459.6,149.04 
		461.12,149.45 462.9,149.72 464.69,149.86 466.75,150 466.75,150 	"/>
	<polygon style="fill-rule:evenodd;clip-rule:evenodd;" points="486.28,107.78 484.22,105.72 479.82,109.98 482.29,112.46 
		482.29,112.46 483.39,111.36 484.49,110.26 485.46,109.02 486.28,107.78 486.28,107.78 	"/>
	<polygon style="fill-rule:evenodd;clip-rule:evenodd;" points="481.33,149.45 487.11,149.45 487.11,119.34 481.33,119.34 
		481.33,149.45 	"/>
	<polygon style="fill-rule:evenodd;clip-rule:evenodd;" points="482.29,112.46 484.22,114.39 488.62,109.98 486.28,107.78 
		486.28,107.78 485.46,109.02 484.49,110.26 483.39,111.36 482.29,112.46 482.29,112.46 	"/>
	<polygon style="fill-rule:evenodd;clip-rule:evenodd;" points="520.66,133.77 520.66,133.77 520.66,131.99 520.52,130.34 
		520.38,128.69 519.97,127.31 519.69,125.94 519.14,124.7 518.59,123.6 517.91,122.5 517.22,121.67 516.39,120.85 515.43,120.16 
		514.33,119.61 513.23,119.2 511.99,118.92 510.62,118.65 509.24,118.65 509.24,118.65 507.04,118.79 504.84,119.06 504.84,119.06 
		505.12,121.26 505.53,123.46 505.53,123.46 506.22,123.19 506.91,122.91 507.73,122.77 508.56,122.77 508.56,122.77 509.24,122.77 
		510.07,122.91 510.62,123.19 511.31,123.46 511.86,123.74 512.41,124.15 513.23,125.25 513.92,126.62 514.33,128.14 514.61,129.79 
		514.74,131.71 507.59,131.71 507.59,131.71 509.11,135.7 520.66,135.7 520.66,133.77 	"/>
	<polygon style="fill-rule:evenodd;clip-rule:evenodd;" points="500.99,131.71 500.99,131.71 501.27,130.2 501.54,128.82 
		501.96,127.59 502.51,126.49 503.06,125.52 503.74,124.7 504.57,124.01 505.53,123.46 505.53,123.46 505.12,121.26 504.84,119.06 
		504.84,119.06 503.88,119.34 502.78,119.75 501.82,120.16 500.99,120.71 500.03,121.4 499.34,122.09 498.52,122.91 497.83,123.87 
		497.28,124.84 496.73,125.94 496.32,127.17 495.91,128.41 495.63,129.92 495.36,131.44 495.22,133.09 495.22,134.87 495.22,134.87 
		495.22,136.94 495.49,138.86 495.77,140.65 496.18,142.16 496.73,143.54 497.42,144.77 498.24,145.87 499.21,146.84 500.17,147.66 
		501.27,148.35 502.51,148.9 503.88,149.31 505.26,149.72 506.77,149.86 508.28,150 509.93,150 509.93,150 513.23,149.86 
		516.12,149.59 518.32,149.04 519.97,148.62 519.01,144.09 519.01,144.09 515.29,144.77 513.09,145.19 511.31,145.32 511.31,145.32 
		509.24,145.19 507.18,144.91 506.36,144.77 505.53,144.5 504.71,144.09 504.02,143.54 503.33,142.99 502.78,142.44 502.23,141.61 
		501.82,140.65 501.41,139.69 501.13,138.59 500.99,137.21 500.99,135.7 509.11,135.7 509.11,135.7 507.59,131.71 500.99,131.71 	
		"/>
	<polygon points="98.52,125.39 98.52,125.39 99.21,124.97 100.17,124.42 101.27,124.29 101.82,124.29 102.37,124.42 102.37,124.42 
		103.06,124.42 103.74,124.56 104.43,124.84 104.98,125.25 105.12,125.11 105.12,125.11 104.43,123.46 104.16,122.64 104.16,121.81 
		104.16,121.81 104.02,121.4 103.74,121.12 103.19,120.44 102.64,119.75 102.51,119.47 102.37,119.06 102.37,119.06 102.92,118.92 
		103.47,119.06 104.57,119.2 105.53,119.61 105.94,119.89 106.22,120.3 106.22,120.3 106.77,120.3 107.32,120.44 107.73,120.85 
		108.14,121.26 108.42,121.81 108.56,122.5 108.56,123.32 108.42,124.42 108.42,124.42 108.01,125.8 108.01,126.9 108.28,128 
		108.83,129.24 108.83,129.24 111.31,132.26 112.96,134.05 114.33,135.56 114.33,135.56 113.65,135.97 113.65,135.97 112,137.21 
		111.31,138.04 110.62,138.72 110.07,139.69 109.52,140.65 109.11,141.61 108.83,142.85 108.83,142.85 108.28,140.65 107.46,138.45 
		107.04,137.49 106.49,136.66 105.81,135.97 104.84,135.56 104.84,135.56 105.26,135.01 105.53,134.46 105.53,133.91 105.39,133.5 
		105.26,133.09 105.12,132.81 104.98,132.54 104.84,132.54 104.84,132.54 104.02,132.95 103.33,133.36 102.51,133.5 101.68,133.5 
		101.68,133.5 100.58,133.64 99.76,133.64 99.07,133.36 98.66,133.09 98.38,132.67 98.24,132.4 98.24,131.99 98.38,131.85 
		98.38,131.85 98.79,131.99 99.07,131.99 99.48,131.85 99.89,131.71 100.86,130.89 100.86,130.89 101.41,130.47 101.96,129.92 
		102.64,129.65 103.33,129.37 103.19,129.24 103.19,129.24 102.78,128.82 102.23,128.41 101.82,127.86 101.54,127.31 101.54,127.31 
		101.27,126.76 100.86,126.49 100.03,126.07 99.21,125.8 98.93,125.66 98.52,125.39 98.52,125.39 98.52,125.39 	"/>
	<polygon points="124.23,197.85 124.23,197.85 123.96,197.57 123.82,197.16 123.41,195.79 123.27,195.1 123.27,194.41 
		123.41,193.72 123.68,193.17 123.68,193.17 123.82,192.49 123.96,191.94 124.1,191.39 124.51,190.97 124.23,190.84 124.23,190.84 
		123.68,191.11 123.13,191.25 122.58,191.39 122.03,191.25 122.03,191.25 121.62,191.25 120.8,191.39 119.83,191.52 119.15,191.8 
		118.6,192.07 118.6,192.07 118.6,191.8 118.73,191.39 119.28,190.29 119.56,189.87 120.11,189.32 120.52,189.05 121.07,188.77 
		121.07,188.77 121.35,188.09 121.76,187.54 122.31,187.26 123,186.99 123.68,186.85 124.37,186.85 126.3,187.12 126.3,187.12 
		126.98,187.4 127.81,187.54 127.81,187.54 128.22,187.54 128.5,187.4 128.77,187.26 129.05,186.99 129.32,186.3 129.32,185.34 
		129.32,185.34 128.91,182.86 128.77,180.94 128.77,180.94 127.81,181.07 126.85,181.21 124.92,181.07 123.82,181.21 122.86,181.35 
		122.03,181.62 121.07,182.17 120.93,182.31 120.93,182.31 120.25,181.35 119.83,180.39 119.42,179.29 119.01,178.19 118.73,176.95 
		118.6,175.71 118.46,174.47 118.46,173.24 118.6,172.14 118.73,170.9 119.01,169.66 119.42,168.56 119.97,167.46 120.52,166.5 
		121.35,165.54 122.17,164.71 122.17,164.71 121.76,164.02 121.21,163.2 119.56,161.41 119.56,161.41 117.63,159.49 116.81,158.39 
		115.98,157.29 115.98,157.29 116.4,156.05 117.08,154.81 118.05,153.71 119.15,152.61 120.52,151.51 121.9,150.41 124.92,148.21 
		124.92,148.21 124.51,149.72 124.23,150.96 124.23,152.2 124.37,153.44 124.65,154.54 125.06,155.77 125.61,157.01 126.3,158.39 
		126.3,158.39 127.4,160.59 128.63,162.37 128.63,162.37 128.91,163.2 129.18,164.16 129.32,164.85 129.32,165.67 129.32,165.67 
		130.01,166.5 130.83,167.6 131.8,168.42 132.35,168.7 132.9,168.84 132.9,168.84 133.45,168.7 133.86,168.29 134.13,167.74 
		134.27,167.19 134.27,167.19 134.13,166.22 134,165.26 133.58,164.3 133.03,163.47 131.8,161.69 130.42,160.04 129.05,158.11 
		128.36,157.15 127.81,156.19 127.26,155.22 126.85,154.12 126.57,152.89 126.57,151.79 126.57,151.79 126.71,150.14 126.98,148.76 
		127.53,147.52 128.36,146.56 129.18,145.87 130.15,145.32 131.11,145.05 132.21,144.91 132.21,144.91 133.03,145.05 133.86,145.19 
		134.41,145.6 134.96,146.15 135.23,146.7 135.37,147.39 135.37,147.94 135.37,148.62 135.37,148.62 135.92,149.04 136.33,149.45 
		136.61,150 136.61,150.55 136.61,151.24 136.61,151.92 136.33,153.16 136.33,153.16 135.92,154.95 135.92,155.77 135.92,156.6 
		136.2,158.39 137.02,160.45 137.02,160.45 136.47,160.31 135.92,159.9 135.37,159.21 134.68,158.39 133.31,156.46 132.35,154.4 
		132.35,154.4 131.93,153.44 131.66,152.47 131.52,151.51 131.38,150.69 131.66,150 131.93,149.31 132.48,148.9 133.31,148.62 
		133.31,148.62 133.45,148.35 133.31,148.07 133.03,147.66 132.62,147.25 132.07,147.11 132.07,147.11 131.38,147.25 130.7,147.39 
		130.15,147.8 129.73,148.35 129.32,149.04 129.18,149.72 128.91,150.69 128.91,151.65 128.91,151.65 129.05,152.75 129.18,153.71 
		129.6,154.67 130.15,155.5 131.52,157.42 132.9,159.21 134.41,161 135.1,161.96 135.78,162.92 136.2,163.89 136.61,164.99 
		136.88,166.09 137.02,167.19 137.02,167.19 136.88,168.29 136.61,169.11 136.2,169.94 135.65,170.62 134.96,171.17 134.27,171.59 
		133.58,171.72 132.76,171.86 132.76,171.86 131.66,171.72 130.7,171.31 129.87,170.62 129.05,169.8 129.05,169.8 129.18,171.31 
		129.32,171.86 129.46,172.55 129.73,172.96 130.01,173.37 130.83,174.2 131.8,174.61 133.03,174.89 134.27,175.02 135.65,175.02 
		135.65,175.02 135.37,176.54 135.23,178.05 135.23,179.84 135.23,181.62 135.23,183.41 135.51,185.2 135.78,186.71 136.2,188.22 
		136.2,188.22 135.1,188.64 134,189.46 133.58,189.87 133.17,190.42 132.9,190.97 132.76,191.52 132.76,191.52 133.03,192.21 
		133.31,192.9 133.45,193.59 133.31,194.41 133.31,194.41 133.58,195.1 133.72,195.92 133.58,196.61 133.45,197.3 133.17,197.85 
		132.9,198.26 132.62,198.54 132.35,198.67 132.35,198.67 132.35,198.12 132.35,197.57 131.93,196.61 131.38,195.79 130.7,194.96 
		130.7,194.96 130.15,194.41 129.6,193.72 129.18,193.04 128.77,192.35 128.36,192.21 128.36,192.21 127.26,193.59 126.57,194.27 
		125.88,194.82 125.88,194.82 125.47,195.1 125.2,195.65 124.65,196.61 124.37,197.44 124.23,197.85 124.23,197.85 124.23,197.85 	
		"/>
	<polygon points="98.79,182.45 98.79,182.45 98.66,182.17 98.79,181.76 99.21,180.52 99.48,179.97 99.89,179.42 100.44,179.01 
		100.99,178.74 100.99,178.74 101.54,178.19 102.09,177.77 102.64,177.5 103.33,177.22 103.33,177.09 103.33,177.09 102.78,176.95 
		102.37,176.67 102.09,176.26 101.82,175.85 101.82,175.85 101.41,175.71 100.72,175.16 99.62,174.75 99.07,174.47 98.52,174.47 
		98.52,174.47 98.66,174.2 98.93,174.06 99.89,173.65 100.99,173.37 101.54,173.37 102.09,173.37 102.09,173.37 102.78,173.1 
		103.61,173.1 103.61,173.1 104.29,173.1 104.98,173.24 105.39,173.51 105.94,173.79 106.63,174.47 107.18,175.3 107.18,175.3 
		107.73,176.54 108.14,177.09 108.42,177.22 108.56,177.36 108.56,177.36 109.25,177.22 109.8,177.09 110.21,176.67 110.62,176.4 
		111.17,175.44 111.58,174.75 111.58,174.75 110.76,173.92 109.93,172.96 109.11,171.86 108.28,170.76 107.59,169.52 107.18,168.29 
		106.77,167.19 106.63,165.95 106.63,165.95 107.18,165.26 107.73,164.57 108.28,164.02 108.97,163.47 109.66,163.06 110.35,162.65 
		111.86,162.1 113.65,161.96 115.43,161.96 117.22,162.24 119.15,162.79 119.15,162.79 119.83,163.75 120.25,164.57 120.25,164.57 
		119.7,165.12 119.01,165.81 118.05,167.32 117.36,168.97 116.81,170.76 116.67,172.55 116.53,174.47 116.81,176.26 117.08,178.05 
		117.08,178.05 115.57,179.15 114.2,180.25 112.82,181.49 111.58,183 111.58,183 111.17,182.59 110.76,182.45 110.35,182.31 
		110.07,182.31 109.52,182.59 108.83,182.86 108.83,182.86 108.83,183.82 108.56,184.65 108.14,185.61 107.59,186.16 107.59,186.16 
		107.32,186.99 106.91,187.54 106.36,187.95 105.67,188.22 104.98,188.36 104.43,188.5 103.74,188.36 103.74,188.36 104.43,187.67 
		104.84,186.85 105.12,185.89 105.12,185.06 105.12,185.06 104.98,183.96 104.98,183 105.12,182.04 105.39,181.21 105.12,181.07 
		105.12,181.07 104.43,181.21 103.61,181.35 102.78,181.35 101.96,181.07 101.96,181.07 101.41,181.21 100.86,181.35 99.89,181.76 
		99.21,182.17 98.79,182.45 98.79,182.45 98.79,182.45 	"/>
	<polygon style="fill-rule:evenodd;clip-rule:evenodd;" points="153.66,164.44 153.66,164.44 153.66,164.71 153.8,164.99 
		154.21,165.81 155.31,166.91 155.31,166.91 155.58,165.95 155.72,165.4 155.72,165.4 155.31,165.12 154.76,164.99 153.66,164.44 
		153.66,164.44 153.66,164.44 	"/>
	<polygon style="fill-rule:evenodd;clip-rule:evenodd;" points="154.76,171.59 154.76,171.59 154.48,171.31 154.21,171.17 
		153.93,170.49 153.93,169.94 154.07,169.25 154.07,169.25 154.48,169.39 154.76,169.52 155.17,169.66 155.58,169.66 155.58,169.66 
		155.58,169.25 155.45,168.7 154.76,168.01 154.76,168.01 155.03,167.6 155.03,167.6 156.27,167.87 157.51,168.01 157.51,168.01 
		157.51,168.56 157.51,168.56 156.68,168.97 156.41,169.25 156.13,169.8 156.13,169.8 157.1,169.94 157.51,169.94 157.78,170.07 
		157.78,170.07 157.65,170.62 157.37,171.17 156.96,171.72 156.68,171.72 156.27,171.86 156.27,171.86 156.13,172.41 156,172.82 
		156,173.79 156.13,174.47 156,174.75 156,175.02 156,175.02 155.17,174.47 154.9,174.2 154.76,173.79 154.62,173.24 154.48,172.69 
		154.62,172.14 154.76,171.59 154.76,171.59 154.76,171.59 	"/>
	<polygon style="fill-rule:evenodd;clip-rule:evenodd;" points="159.98,165.4 159.98,165.4 159.98,165.67 159.71,165.95 
		159.02,166.5 157.65,167.32 157.65,167.32 157.65,166.22 157.78,165.67 157.78,165.67 158.06,165.54 158.75,165.54 159.98,165.4 
		159.98,165.4 159.98,165.4 	"/>
	<polygon style="fill-rule:evenodd;clip-rule:evenodd;" points="153.25,125.11 153.25,125.11 153.25,125.39 153.38,125.66 
		153.93,126.35 155.17,127.17 155.17,127.17 155.31,126.21 155.31,125.66 155.31,125.66 155.03,125.52 154.35,125.39 153.25,125.11 
		153.25,125.11 153.25,125.11 	"/>
	<polygon style="fill-rule:evenodd;clip-rule:evenodd;" points="155.31,131.85 155.31,131.85 155.03,131.71 154.76,131.44 
		154.48,130.89 154.35,130.34 154.35,129.65 154.35,129.65 154.76,129.65 155.03,129.65 155.86,129.79 155.86,129.79 155.72,129.37 
		155.58,128.96 154.9,128.41 154.9,128.41 155.03,127.86 155.03,127.86 156.27,128 157.51,128 157.51,128 157.65,128.41 
		157.65,128.41 156.96,128.96 156.55,129.37 156.41,129.79 156.41,129.79 157.37,129.79 157.78,129.79 158.06,129.79 158.06,129.79 
		158.06,130.47 157.92,131.02 157.65,131.57 157.37,131.71 156.96,131.85 156.96,131.85 157.1,132.54 157.1,133.09 156.82,134.19 
		156.41,134.87 156,135.29 156,135.29 155.72,134.87 155.31,134.05 155.17,133.09 155.31,131.85 155.31,131.85 155.31,131.85 	"/>
	<polygon style="fill-rule:evenodd;clip-rule:evenodd;" points="159.57,125.11 159.57,125.11 159.57,125.25 159.43,125.66 
		158.75,126.21 157.51,127.17 157.51,127.17 157.37,126.21 157.37,125.66 157.37,125.66 157.78,125.52 158.33,125.25 159.57,125.11 
		159.57,125.11 159.57,125.11 	"/>
	<polygon points="176.21,96.51 176.21,96.51 176.62,97.61 176.9,98.71 177.03,99.81 177.03,100.91 176.76,102.01 176.62,103.11 
		176.21,104.21 175.66,105.17 127.81,105.17 127.81,103.25 174.56,103.25 174.56,103.25 174.83,102.42 174.97,101.6 174.97,100.77 
		174.97,99.95 174.97,99.12 174.7,98.3 174.42,97.47 174.01,96.78 174.01,96.78 175.8,91.97 177.58,87.71 178.68,85.65 
		179.78,83.45 181.02,81.38 182.4,79.18 182.4,79.18 181.02,79.87 179.51,80.83 178,81.93 176.35,83.17 174.97,84.55 173.6,85.92 
		172.5,87.3 171.81,88.53 171.81,88.53 171.53,89.5 171.4,90.46 171.4,91.42 171.53,92.38 171.67,93.48 172.08,94.45 172.91,96.23 
		172.08,97.61 160.81,97.61 160.26,95.82 160.26,95.82 162.73,93.35 162.73,93.35 163.7,92.25 164.52,91.28 165.21,90.32 
		165.48,89.5 165.48,89.5 165.48,88.53 165.35,87.43 164.93,86.33 164.38,84.96 163.7,83.58 162.87,82.21 160.95,79.18 
		160.95,79.18 159.43,80.56 157.92,81.8 156.55,83.17 155.31,84.55 154.21,85.78 153.38,87.02 152.83,88.12 152.56,88.95 
		152.56,88.95 152.56,89.63 152.7,90.46 152.97,91.42 153.38,92.25 154.48,94.31 155.58,96.1 154.76,97.61 142.38,97.61 
		141.7,95.82 141.7,95.82 143.35,94.17 144.86,92.38 145.41,91.56 145.96,90.6 146.23,89.91 146.37,89.22 146.37,89.22 
		146.23,88.26 145.82,87.16 145.13,86.06 144.31,84.68 143.35,83.45 142.11,81.93 139.36,79.18 139.36,79.18 136.75,81.93 
		135.51,83.45 134.41,84.68 133.58,86.06 133.03,87.16 132.62,88.26 132.48,89.22 132.48,89.22 132.48,89.91 132.9,90.6 
		133.31,91.56 134,92.38 135.51,94.17 137.02,95.82 136.33,97.61 123.96,97.61 123.96,97.61 123.27,96.1 123.27,96.1 124.1,94.58 
		124.92,93.21 124.92,93.21 125.61,91.97 126.02,90.87 126.3,89.77 126.3,88.95 126.3,88.95 126.02,88.12 125.33,87.02 
		124.51,85.78 123.55,84.55 122.31,83.17 120.93,81.8 119.42,80.56 117.77,79.18 117.77,79.18 115.98,82.21 115.16,83.58 
		114.47,84.96 113.92,86.33 113.51,87.43 113.37,88.53 113.37,89.5 113.37,89.5 113.65,90.32 114.2,91.28 115.02,92.25 
		115.98,93.35 115.98,93.35 118.6,95.82 117.91,97.61 106.77,97.61 105.94,96.23 105.94,96.23 106.77,94.45 107.04,93.48 
		107.32,92.52 107.46,91.42 107.46,90.46 107.32,89.5 107.04,88.53 107.04,88.53 106.22,87.3 105.26,85.92 103.88,84.55 
		102.37,83.17 100.86,81.93 99.21,80.83 97.69,79.87 96.32,79.18 96.32,79.18 97.83,81.38 99.07,83.45 100.17,85.65 101.13,87.71 
		103.06,91.97 104.71,96.78 104.71,96.78 104.43,97.47 104.16,98.3 103.88,99.12 103.74,99.95 103.74,100.77 103.88,101.6 
		104.02,102.42 104.29,103.25 127.81,103.25 127.81,105.17 103.06,105.17 103.06,105.17 102.64,104.21 102.23,103.11 101.96,102.01 
		101.82,100.91 101.82,99.81 101.96,98.71 102.23,97.61 102.64,96.51 102.64,96.51 101.54,93.76 100.58,91.28 99.62,88.95 
		98.52,86.61 97.28,84.55 96.04,82.21 94.53,80.01 92.74,77.53 92.74,77.53 93.16,77.26 94.12,76.98 94.12,76.98 94.81,76.85 
		95.77,76.98 96.73,77.26 97.69,77.67 98.79,78.22 99.89,78.77 102.09,80.42 104.29,82.21 106.22,84.13 107.73,86.06 108.28,86.88 
		108.83,87.71 108.83,87.71 109.11,88.81 109.38,89.77 109.52,90.87 109.52,91.83 109.38,92.8 109.11,93.76 108.83,94.72 
		108.42,95.68 115.43,95.68 115.43,95.68 114.61,94.72 114.61,94.72 113.65,93.62 112.68,92.38 111.86,91.01 111.58,90.46 
		111.45,89.77 111.45,89.77 111.31,88.95 111.45,88.12 111.58,87.3 111.72,86.33 112.41,84.55 113.37,82.62 114.47,80.83 
		115.57,79.18 117.36,76.43 117.36,76.43 120.25,78.63 121.9,80.15 123.68,81.8 125.2,83.45 126.57,85.23 127.12,86.2 127.67,87.02 
		127.95,87.85 128.22,88.67 128.22,88.67 128.22,89.5 128.08,90.32 127.95,91.28 127.53,92.25 126.71,94.03 125.88,95.68 
		134.13,95.68 134.13,95.68 133.03,94.31 131.8,92.66 131.25,91.7 130.83,90.87 130.56,90.05 130.42,89.22 130.42,89.22 
		130.56,88.4 130.7,87.57 131.11,86.61 131.52,85.78 132.62,83.86 134,82.07 135.51,80.42 137.02,78.77 139.36,76.43 139.36,76.43 
		141.83,78.77 143.35,80.42 144.72,82.07 146.1,83.86 147.33,85.78 147.75,86.61 148.02,87.57 148.3,88.4 148.3,89.22 148.3,89.22 
		148.3,90.05 148.02,90.87 147.61,91.7 147.06,92.66 145.82,94.31 144.72,95.68 152.97,95.68 152.97,95.68 152.15,94.03 
		151.18,92.25 150.91,91.28 150.63,90.32 150.5,89.5 150.63,88.67 150.63,88.67 150.77,87.85 151.18,87.02 151.6,86.2 152.15,85.23 
		153.52,83.45 155.17,81.8 156.96,80.15 158.61,78.63 161.36,76.43 161.36,76.43 163.28,79.18 164.38,80.83 165.48,82.62 
		166.31,84.55 167,86.33 167.27,87.3 167.41,88.12 167.41,88.95 167.41,89.77 167.41,89.77 167.13,90.6 166.86,91.28 165.76,92.93 
		164.52,94.45 163.28,95.68 170.43,95.68 170.43,95.68 170.02,94.72 169.75,93.76 169.47,92.8 169.33,91.83 169.33,90.87 
		169.47,89.77 169.61,88.81 170.02,87.71 170.02,87.71 170.43,86.88 170.98,86.06 172.63,84.13 174.56,82.21 176.62,80.42 
		178.96,78.77 180.06,78.22 181.16,77.67 182.12,77.26 183.08,76.98 183.91,76.85 184.73,76.98 184.73,76.98 185.7,77.26 
		185.97,77.53 185.97,77.53 184.32,80.01 182.81,82.21 181.43,84.55 180.33,86.61 179.23,88.95 178.13,91.28 177.17,93.76 
		176.21,96.51 176.21,96.51 176.21,96.51 	"/>
	<polygon points="100.58,159.62 100.58,159.62 101.13,159.49 101.54,159.35 102.09,158.8 102.51,158.25 102.78,157.84 
		102.78,157.84 102.92,157.01 103.19,156.32 103.61,155.64 104.16,155.22 104.02,154.95 104.02,154.95 103.33,154.95 102.64,154.95 
		101.96,154.81 101.27,154.4 101.27,154.4 100.72,154.26 100.17,154.26 99.76,154.4 99.21,154.54 98.38,154.95 97.97,155.09 
		97.56,155.22 97.56,155.22 97.69,154.81 97.83,154.4 98.52,153.3 99.34,152.34 99.89,152.06 100.31,151.92 100.31,151.92 
		100.99,151.51 101.68,151.24 102.51,150.96 103.06,150.96 103.06,150.69 103.06,150.69 102.37,150.41 101.82,149.86 101.13,149.31 
		100.58,148.62 100.44,148.49 100.44,148.49 100.17,148.07 99.76,147.94 98.93,147.66 98.11,147.52 97.42,147.25 97.42,147.25 
		97.97,146.84 98.79,146.29 99.89,145.87 100.44,145.87 100.99,145.87 100.99,145.87 101.54,145.6 102.09,145.46 102.64,145.46 
		103.33,145.6 103.88,146.01 104.43,146.56 104.84,147.11 105.26,147.8 105.26,147.8 105.81,148.62 106.36,149.17 106.91,149.45 
		107.59,149.31 107.59,149.31 108.28,149.17 108.97,148.62 110.35,147.25 110.35,147.25 110.21,145.46 110.35,143.81 110.62,142.3 
		111.31,141.06 112,139.82 112.96,138.86 114.06,137.9 115.16,137.07 115.16,137.07 116.26,136.39 117.5,135.84 120.11,134.74 
		122.17,133.91 122.72,133.5 122.86,133.36 122.86,133.22 122.86,133.22 121.76,133.36 120.52,133.22 119.56,133.09 118.87,132.81 
		118.87,132.81 118.32,132.4 118.18,131.99 118.32,131.44 118.46,131.02 118.6,130.75 118.6,130.75 119.42,131.16 120.11,131.3 
		120.93,131.44 121.48,131.44 122.17,131.3 122.58,131.16 123.13,130.75 123.41,130.34 123.41,130.34 122.72,129.92 121.9,129.65 
		121.07,129.65 120.25,129.51 120.25,129.51 118.87,129.65 117.63,130.06 116.4,130.47 115.16,130.61 115.16,130.61 114.06,130.47 
		113.1,130.2 112.41,129.65 112,129.1 112,129.1 111.72,128.55 111.58,128 111.58,127.45 111.72,126.9 111.86,126.49 112.27,125.94 
		112.55,125.66 113.1,125.39 113.1,125.39 112.96,125.94 112.96,126.49 113.1,127.17 113.23,127.72 113.65,128.14 114.2,128.55 
		114.88,128.82 115.85,128.82 115.85,128.82 116.95,128.82 117.91,128.69 118.87,128.55 120.11,128.41 120.11,128.41 121.21,128.55 
		122.17,128.82 123,129.24 123.68,129.65 123.68,129.65 123.82,129.24 123.82,128.55 123.82,128 123.55,127.17 123.55,127.17 
		123,126.9 122.31,126.76 121.48,126.76 120.8,126.76 119.28,127.17 118.32,127.59 118.32,127.59 117.77,126.62 117.36,125.39 
		117.22,124.29 117.08,123.19 117.08,123.19 117.77,122.36 118.87,121.67 120.25,120.85 121.9,120.16 122.45,121.95 122.45,121.95 
		121.21,122.5 121.21,122.5 122.03,122.91 123,123.19 123.68,123.32 124.23,123.32 124.23,123.32 124.51,123.19 124.78,123.05 
		125.06,122.36 125.33,121.54 125.61,120.85 125.61,120.85 122.45,121.95 121.9,120.16 121.9,120.16 124.78,118.92 127.81,117.82 
		131.93,116.45 131.93,116.45 132.07,117.14 131.93,117.96 131.66,118.92 131.38,119.61 131.38,119.61 132.35,119.34 133.45,119.06 
		134.41,119.06 135.37,119.2 135.37,119.2 135.37,120.57 135.1,121.95 134.68,123.19 133.72,124.7 133.72,124.7 134.13,124.97 
		134.41,125.52 135.1,126.76 135.51,128.41 135.65,130.2 135.65,130.2 135.51,131.57 135.37,132.95 134.96,134.19 134.55,135.42 
		133.72,137.9 132.9,140.37 132.9,140.37 132.48,141.89 132.48,143.54 132.48,143.54 131.66,142.99 130.97,142.16 130.42,141.2 
		130.01,140.24 130.01,140.24 129.6,141.06 129.18,141.89 127.81,143.4 126.16,144.91 124.37,146.42 124.37,146.42 120.93,148.9 
		119.28,150.27 117.77,151.51 116.4,152.89 115.43,154.26 115.02,154.95 114.75,155.64 114.61,156.32 114.61,157.15 114.61,157.15 
		113.78,156.32 113.23,155.36 112.68,154.4 112.41,153.44 112.41,153.44 110.76,154.67 110.21,155.22 109.8,155.64 109.52,156.19 
		109.25,156.87 108.56,159.07 108.56,159.07 108.28,158.66 107.73,158.11 107.32,157.7 106.91,157.56 106.63,157.56 106.63,157.56 
		106.22,158.25 105.81,158.94 105.26,159.49 104.57,159.76 104.57,159.76 103.61,160.31 102.92,160.59 102.23,160.72 101.68,160.59 
		101.13,160.31 100.86,160.17 100.72,159.9 100.58,159.62 100.58,159.62 100.58,159.62 	"/>
	<polygon points="168.37,110.53 185.97,110.53 185.97,140.51 210.72,140.51 210.72,110.53 252.8,110.53 252.8,204.45 210.72,204.45 
		210.72,174.75 185.97,174.75 185.97,204.45 88.76,204.45 64.42,158.8 64.42,204.45 23.44,204.45 23.44,110.53 67.72,110.53 
		92.74,157.56 92.74,110.53 122.86,110.53 122.86,112.46 94.81,112.46 94.81,165.54 66.62,112.46 25.37,112.46 25.37,202.39 
		62.36,202.39 62.36,150.82 89.99,202.39 139.36,202.39 139.36,112.46 122.86,112.46 122.86,110.53 168.37,110.53 168.78,116.45 
		166.31,116.45 166.31,118.79 154.62,118.51 154.62,116.45 147.75,116.45 144.72,116.45 144.72,120.02 153.38,120.02 153.38,121.95 
		153.38,121.95 152.28,121.54 151.32,121.4 151.32,121.4 151.32,123.19 151.46,124.01 151.73,124.42 152.01,124.84 152.01,124.84 
		151.6,126.21 151.32,128 151.32,128 150.91,132.26 149.26,132.26 149.4,131.16 149.4,131.16 148.02,129.65 148.02,129.65 
		147.47,128.82 147.2,128.41 147.06,128 147.06,128 147.06,126.9 146.78,126.07 146.37,125.25 145.96,124.7 145.27,124.29 
		144.58,124.15 143.76,124.15 142.66,124.42 142.66,124.42 143.35,125.66 143.9,126.35 144.31,126.9 144.31,126.9 143.62,127.17 
		142.93,127.45 142.25,127.86 141.83,128.55 141.83,128.55 142.93,129.1 144.17,129.65 144.17,129.65 143.48,130.61 142.38,131.99 
		142.38,131.99 143.07,132.26 143.76,132.26 144.45,132.26 145.13,131.85 145.13,131.85 145.96,132.95 146.37,133.91 146.65,134.74 
		146.78,135.56 146.78,135.56 147.06,136.66 147.33,137.21 147.75,137.62 147.75,137.62 148.02,137.07 148.3,136.52 148.85,135.29 
		149.12,133.77 149.26,132.4 149.26,132.26 150.91,132.26 150.77,133.22 150.77,133.22 150.63,134.46 150.36,135.7 150.08,136.8 
		149.53,137.9 148.98,138.86 148.16,139.69 147.06,140.24 145.82,140.65 145.82,140.65 146.1,141.06 146.51,141.47 146.92,141.75 
		147.47,141.89 148.02,141.89 148.57,141.89 149.26,141.75 149.95,141.47 149.95,141.47 149.12,143.95 148.3,145.87 147.88,146.7 
		147.47,147.25 147.47,147.25 147.06,147.39 146.65,147.39 146.65,147.39 145,147.52 144.31,147.66 143.62,147.8 143.07,148.21 
		142.66,148.76 142.25,149.45 141.97,150.55 141.97,150.55 142.66,150.69 143.35,150.69 144.03,150.69 144.58,150.55 144.58,150.55 
		144.45,151.1 144.31,151.79 144.45,152.47 144.58,153.16 144.58,153.16 145.41,153.02 146.1,152.75 146.65,152.2 147.2,151.65 
		147.2,151.65 147.47,151.92 147.61,152.2 147.88,152.75 148.16,154.12 148.16,154.12 148.57,153.99 148.57,155.64 144.72,155.64 
		144.72,159.21 153.52,159.21 153.52,160.72 153.52,160.72 152.56,160.45 152.56,160.45 152.28,162.1 152.28,163.06 152.42,163.47 
		152.56,163.89 152.56,163.89 152.01,165.26 151.6,166.91 151.6,166.91 151.32,168.01 151.18,169.25 150.91,171.72 149.26,171.72 
		149.4,170.62 149.4,170.62 147.88,168.97 147.61,168.7 147.61,168.7 147.33,168.15 147.2,167.6 147.2,167.6 147.06,166.64 
		146.78,165.67 146.37,164.85 145.82,164.16 145.13,163.75 144.45,163.61 143.48,163.61 142.52,164.02 142.52,164.02 143.48,165.26 
		144.45,166.36 144.45,166.36 143.62,166.64 142.93,166.91 142.38,167.32 141.83,168.01 141.83,168.01 142.93,168.56 144.17,169.11 
		144.17,169.11 143.35,170.21 142.38,171.45 142.38,171.45 143.07,171.72 143.76,171.72 144.45,171.72 145.13,171.45 145.13,171.45 
		145.96,172.41 146.37,173.37 146.65,174.2 146.78,175.02 146.78,175.02 147.06,176.12 147.33,176.54 147.61,177.09 147.61,177.09 
		148.3,175.99 148.71,174.75 148.98,173.24 149.26,171.72 150.91,171.72 150.91,171.72 150.5,174.61 150.08,175.85 149.67,177.09 
		148.98,178.19 148.16,179.15 147.75,179.42 147.06,179.7 146.51,179.97 145.82,180.11 145.82,180.11 146.1,180.66 146.51,181.07 
		147.06,181.35 147.47,181.49 148.16,181.49 148.71,181.49 149.4,181.35 150.08,181.07 150.08,181.07 149.26,183.55 148.3,185.47 
		147.88,186.16 147.47,186.71 147.47,186.71 147.06,186.85 146.65,186.99 146.65,186.99 145,186.99 144.31,187.12 143.62,187.4 
		143.07,187.67 142.66,188.22 142.25,188.91 141.97,190.01 141.97,190.01 142.66,190.15 143.35,190.29 144.03,190.15 144.72,190.01 
		144.72,190.01 144.45,190.7 144.45,191.39 144.45,192.07 144.58,192.62 144.58,192.62 145.41,192.49 146.1,192.21 146.65,191.8 
		147.2,191.25 147.2,191.25 147.47,191.39 147.61,191.66 147.88,192.35 148.16,193.59 148.16,193.59 148.71,193.31 149.4,192.9 
		149.4,195.1 143.48,195.1 143.48,198.67 153.25,198.67 153.25,195.1 149.4,195.1 149.4,192.9 149.4,192.9 149.67,192.35 
		149.95,191.8 149.95,190.97 149.81,190.15 149.81,190.15 150.63,188.77 151.46,187.81 152.28,186.99 152.97,186.3 152.97,186.3 
		154.62,185.06 155.31,184.51 155.86,183.55 155.86,183.55 155.86,182.72 155.72,181.9 155.72,181.9 156.82,181.07 158.06,179.97 
		159.16,178.74 160.26,177.5 162.32,177.5 162.32,177.5 161.22,178.87 160.12,180.25 158.75,181.49 157.51,182.45 157.51,182.45 
		158.33,182.72 159.3,182.72 160.12,182.59 161.08,182.31 162.73,181.62 164.52,180.8 164.52,182.31 164.52,182.31 162.73,183.55 
		161.77,184.1 160.95,184.51 160.95,184.51 160.81,185.47 160.95,186.3 161.22,187.12 161.77,187.95 161.77,187.95 160.95,188.5 
		160.53,188.77 160.12,188.91 160.12,188.91 159.02,188.77 158.06,188.77 157.1,188.91 156.13,189.32 155.45,190.01 154.9,190.7 
		154.76,191.11 154.76,191.66 154.76,192.21 154.76,192.76 154.76,192.76 156,192.21 157.1,191.52 157.1,191.52 157.23,192.35 
		157.37,193.04 157.65,193.59 158.2,194.14 158.2,194.14 158.75,193.59 159.3,192.9 159.71,192.21 159.98,191.39 159.98,191.39 
		160.4,191.8 160.81,192.35 161.63,193.59 161.63,193.59 162.05,193.31 162.46,192.76 162.6,192.07 162.73,191.52 162.73,191.52 
		164.25,190.56 165.76,189.32 165.76,189.32 165.48,188.77 165.35,188.09 165.48,187.4 165.48,186.71 165.76,186.02 166.03,185.47 
		166.31,185.06 166.58,184.65 166.58,184.65 166.45,183.96 166.45,183.14 166.45,181.49 166.45,181.49 166.03,181.62 165.48,181.76 
		164.52,182.31 164.52,180.8 164.52,180.8 166.45,179.97 167.41,179.56 168.37,179.42 168.37,179.42 168.23,180.94 168.1,182.59 
		168.1,182.59 168.23,183.55 168.37,184.51 168.78,185.47 169.33,186.3 169.33,186.3 170.02,185.47 170.71,184.92 171.53,184.51 
		172.5,184.24 172.5,184.24 172.5,184.92 172.22,185.75 171.53,187.26 171.53,187.26 170.57,187.4 169.75,187.67 169.06,188.09 
		168.37,188.64 167.96,189.32 167.68,190.01 167.68,190.97 167.96,191.94 167.96,191.94 168.65,191.94 169.33,191.66 169.88,191.25 
		170.43,190.84 170.43,190.84 170.85,191.94 171.26,192.35 171.67,192.62 171.67,192.62 172.5,192.07 173.05,191.25 173.6,190.56 
		173.87,189.6 173.87,189.6 174.97,190.15 176.07,190.56 176.07,190.56 176.07,189.74 175.93,189.05 175.8,188.5 175.52,187.81 
		175.52,187.81 176.21,186.16 176.76,184.24 177.17,182.45 177.17,181.49 177.17,180.66 177.17,180.66 176.48,180.52 175.8,180.39 
		175.25,180.11 174.7,179.7 174.42,179.29 174.15,178.74 173.87,178.05 173.73,177.09 173.73,177.09 174.42,177.09 175.25,176.81 
		176.21,176.54 177.03,175.99 177.72,175.44 178.27,174.61 178.68,173.65 178.96,172.41 178.96,172.41 178.82,171.45 178.55,170.62 
		178,169.94 177.45,169.39 176.76,168.97 176.07,168.7 175.38,168.56 174.7,168.56 174.7,168.56 173.73,168.56 172.77,168.7 
		170.98,169.11 169.33,169.52 168.51,169.52 167.68,169.66 167.68,169.66 167.27,169.52 166.86,169.39 166.45,169.25 166.17,168.97 
		165.9,168.56 165.76,168.15 165.48,167.19 165.48,167.19 165.62,166.5 165.76,166.09 166.17,165.54 166.58,165.12 167,164.85 
		167.55,164.71 168.1,164.71 168.65,164.85 168.65,164.85 168.65,165.26 168.65,165.67 168.92,165.95 169.2,166.22 169.88,166.5 
		170.85,166.64 172.08,166.5 173.32,166.36 174.56,165.95 175.8,165.54 175.8,165.54 176.62,165.12 177.31,164.57 178,164.16 
		178.55,163.61 178.96,163.06 179.23,162.51 179.37,161.96 179.23,161.41 179.23,161.41 178.41,162.1 177.45,162.65 176.48,162.92 
		175.52,163.06 175.52,163.06 174.42,162.92 173.32,162.65 171.53,162.24 170.85,162.1 170.16,162.1 169.61,162.37 169.06,162.92 
		169.06,162.92 168.1,162.79 167,162.79 166.03,163.06 165.21,163.47 164.38,164.16 163.83,164.99 163.42,166.09 163.28,167.19 
		163.28,167.19 163.42,168.29 163.7,169.39 164.11,170.21 164.66,170.9 165.21,171.31 166.03,171.72 166.86,172 167.68,172 
		167.68,172 168.51,172 169.33,171.86 170.98,171.45 172.63,171.04 173.6,170.9 174.42,170.9 174.42,170.9 175.25,170.9 
		175.8,171.17 176.07,171.45 176.35,171.72 176.35,172.14 176.48,172.55 176.48,172.55 176.35,172.96 176.07,173.37 175.8,173.79 
		175.25,174.2 174.7,174.47 174.01,174.61 173.32,174.75 172.63,174.61 172.63,174.61 171.81,174.2 171.12,173.92 170.43,173.79 
		169.75,173.65 168.37,173.65 167.13,173.79 167.13,173.79 165.21,174.2 164.52,174.2 163.56,173.92 163.56,173.92 163.42,174.89 
		163.15,175.85 162.73,176.67 162.32,177.5 160.26,177.5 160.26,177.5 160.95,176.54 161.5,175.44 161.77,174.34 162.05,173.1 
		162.05,173.1 161.91,171.17 161.91,169.11 161.77,167.05 161.63,165.95 161.36,165.12 161.36,165.12 161.77,164.57 162.18,163.89 
		162.46,163.06 163.01,162.24 163.01,162.24 162.05,162.1 160.95,162.1 159.98,162.37 159.02,162.92 159.02,162.92 158.2,162.65 
		157.23,162.37 156.27,162.24 155.45,162.37 155.45,162.37 155.03,161.82 154.62,161.41 153.52,160.72 153.52,159.21 154.62,159.21 
		154.62,155.64 148.57,155.64 148.57,153.99 148.57,153.99 149.4,153.44 149.67,153.02 149.81,152.75 149.95,152.34 149.95,151.79 
		149.81,150.82 149.81,150.82 150.63,149.45 151.46,148.35 152.28,147.52 152.97,146.84 152.97,146.84 154.62,145.6 155.31,145.05 
		155.86,144.09 155.86,144.09 155.86,143.26 155.72,142.44 155.72,142.44 157.78,140.65 158.88,139.69 159.85,138.59 162.05,138.59 
		162.05,138.59 161.08,139.82 159.98,141.06 158.75,142.16 157.65,143.12 157.65,143.12 158.33,143.26 159.02,143.26 159.71,143.26 
		160.4,143.12 161.63,142.71 163.01,142.02 165.76,140.79 167.13,140.24 168.37,139.96 168.37,139.96 168.51,140.79 168.65,141.61 
		169.2,143.26 167.41,143.26 167.41,143.26 167.13,142.57 167,141.89 167,141.89 166.45,142.16 165.76,142.57 164.38,143.54 
		163.01,144.5 162.32,144.91 161.77,145.19 161.77,145.19 161.77,145.87 161.91,146.7 162.32,147.52 162.73,148.21 162.73,148.21 
		161.77,148.62 160.81,149.17 160.81,149.17 159.71,149.04 158.61,149.04 157.65,149.17 156.82,149.59 156,150.14 155.72,150.55 
		155.45,150.96 155.31,151.51 155.31,152.06 155.31,152.61 155.31,153.3 155.31,153.3 156.55,152.75 157.65,152.06 157.65,152.06 
		157.65,152.75 157.92,153.44 158.2,154.12 158.75,154.67 158.75,154.67 159.3,154.12 159.85,153.44 160.26,152.61 160.53,151.92 
		160.53,151.92 160.95,152.34 161.36,152.89 162.05,153.85 162.05,153.85 162.46,153.57 162.73,153.16 163.01,152.61 163.15,152.06 
		163.15,152.06 165.21,151.1 166.31,150.41 167.27,149.72 167.27,149.72 167,148.62 166.86,147.94 167,147.25 167.13,146.7 
		167.41,146.01 167.82,145.6 168.37,145.05 168.37,145.05 167.82,144.22 167.41,143.26 169.2,143.26 169.2,143.26 169.61,144.22 
		170.16,145.19 170.85,146.15 171.4,146.84 171.67,146.42 171.67,146.42 172.5,145.6 173.32,145.05 174.15,144.77 174.97,144.64 
		174.97,144.64 174.97,144.91 174.83,145.32 174.42,146.29 173.6,147.8 173.6,147.8 172.77,147.94 171.95,148.21 171.26,148.49 
		170.57,149.04 170.16,149.72 169.88,150.55 169.75,151.51 170.02,152.47 170.02,152.47 170.43,152.47 170.85,152.34 170.85,155.64 
		166.45,155.64 166.45,159.21 176.35,159.21 176.35,155.64 170.85,155.64 170.85,152.34 170.85,152.34 171.81,151.92 172.5,151.37 
		172.5,151.37 172.77,151.92 173.05,152.34 173.32,152.75 173.87,153.02 173.87,153.02 174.56,152.61 175.25,151.92 175.66,151.1 
		176.07,150.14 176.07,150.14 177.03,150.69 178.13,151.1 178.13,151.1 178.13,150.41 178.13,149.72 178,149.04 177.72,148.35 
		177.72,148.35 178.41,146.7 179.1,144.77 179.51,142.85 179.65,141.89 179.65,140.92 179.65,140.92 177.86,140.79 177.03,140.51 
		176.07,140.24 175.25,139.82 174.56,139.27 174.01,138.45 173.73,137.62 173.73,137.62 174.15,137.49 174.15,137.49 174.83,137.35 
		175.66,137.21 176.48,136.8 177.17,136.39 177.86,135.7 178.41,134.87 178.68,134.05 178.82,132.95 178.82,132.95 178.82,131.85 
		178.41,131.02 178,130.34 177.45,129.79 176.76,129.37 176.07,129.24 175.38,129.1 174.56,128.96 174.56,128.96 173.73,129.1 
		172.77,129.1 170.98,129.51 169.33,129.92 168.51,130.06 167.68,130.06 167.68,130.06 167.27,130.06 166.86,129.92 166.45,129.65 
		166.17,129.37 165.9,128.96 165.62,128.55 165.48,127.59 165.48,127.59 165.62,127.04 165.76,126.49 166.03,126.07 166.45,125.66 
		167,125.39 167.41,125.25 167.96,125.25 168.51,125.39 168.51,125.39 168.51,125.8 168.65,126.07 168.92,126.35 169.2,126.62 
		169.88,126.9 170.85,127.04 172.08,127.04 173.18,126.76 174.56,126.35 175.8,125.94 175.8,125.94 176.62,125.52 177.31,124.97 
		178,124.56 178.55,124.01 178.96,123.46 179.23,122.91 179.37,122.36 179.23,121.81 179.23,121.81 178.41,122.5 177.45,123.05 
		176.48,123.32 175.52,123.46 175.52,123.46 174.42,123.32 173.32,123.19 171.53,122.64 170.71,122.5 170.16,122.5 169.47,122.77 
		169.06,123.46 169.06,123.46 168.1,123.19 167,123.32 166.03,123.46 165.21,124.01 164.38,124.56 163.83,125.52 163.42,126.49 
		163.28,127.72 163.28,127.72 163.42,128.82 163.7,129.79 164.11,130.61 164.52,131.3 165.21,131.85 165.9,132.12 166.72,132.4 
		167.68,132.54 167.68,132.54 168.51,132.4 169.33,132.26 170.98,131.85 172.63,131.57 173.46,131.44 174.42,131.3 174.42,131.3 
		175.11,131.44 175.8,131.71 176.07,131.85 176.21,132.12 176.35,132.54 176.35,132.95 176.35,132.95 176.35,133.5 176.07,133.91 
		175.8,134.32 175.25,134.6 174.7,134.87 174.01,135.01 173.32,135.15 172.5,135.15 172.5,135.15 171.81,134.74 171.12,134.46 
		170.43,134.32 169.75,134.19 168.37,134.19 167.13,134.32 167.13,134.32 165.21,134.74 164.52,134.74 163.56,134.46 163.56,134.6 
		163.56,134.6 163.42,135.56 163.01,136.66 162.6,137.62 162.05,138.59 159.85,138.59 159.85,138.59 160.67,137.35 161.36,136.25 
		161.77,135.01 162.05,133.64 162.05,133.64 161.63,128.96 161.36,126.49 161.08,125.52 160.81,124.56 160.81,124.56 161.22,124.01 
		161.36,123.19 161.63,122.36 161.91,121.67 161.91,121.67 160.95,121.67 159.98,121.81 159.02,122.22 158.2,122.77 158.2,122.77 
		157.37,122.64 156.41,122.64 155.45,122.64 154.62,122.77 154.62,122.77 154.07,122.36 153.38,121.95 153.38,120.02 154.62,120.02 
		154.62,118.51 166.31,118.79 166.31,120.02 176.21,120.02 176.21,116.45 168.78,116.45 168.37,110.53 168.37,110.53 	"/>
	<polygon style="fill:none;stroke:#000000;stroke-linecap:square;stroke-miterlimit:10;" points="168.37,110.53 185.97,110.53 
		185.97,140.51 210.72,140.51 210.72,110.53 252.8,110.53 252.8,204.45 210.72,204.45 210.72,174.75 185.97,174.75 185.97,204.45 
		88.76,204.45 64.42,158.8 64.42,204.45 23.44,204.45 23.44,110.53 67.72,110.53 92.74,157.56 92.74,110.53 122.86,110.53 
		122.86,112.46 94.81,112.46 94.81,165.54 66.62,112.46 25.37,112.46 25.37,202.39 62.36,202.39 62.36,150.82 89.99,202.39 
		139.36,202.39 139.36,112.46 122.86,112.46 122.86,110.53 168.37,110.53 168.78,116.45 166.31,116.45 166.31,118.79 154.62,118.51 
		154.62,116.45 147.75,116.45 144.72,116.45 144.72,120.02 153.38,120.02 153.38,121.95 153.38,121.95 152.28,121.54 151.32,121.4 
		151.32,121.4 151.32,123.19 151.46,124.01 151.73,124.42 152.01,124.84 152.01,124.84 151.6,126.21 151.32,128 151.32,128 
		150.91,132.26 149.26,132.26 149.4,131.16 149.4,131.16 148.02,129.65 148.02,129.65 147.47,128.82 147.2,128.41 147.06,128 
		147.06,128 147.06,126.9 146.78,126.07 146.37,125.25 145.96,124.7 145.27,124.29 144.58,124.15 143.76,124.15 142.66,124.42 
		142.66,124.42 143.35,125.66 143.9,126.35 144.31,126.9 144.31,126.9 143.62,127.17 142.93,127.45 142.25,127.86 141.83,128.55 
		141.83,128.55 142.93,129.1 144.17,129.65 144.17,129.65 143.48,130.61 142.38,131.99 142.38,131.99 143.07,132.26 143.76,132.26 
		144.45,132.26 145.13,131.85 145.13,131.85 145.96,132.95 146.37,133.91 146.65,134.74 146.78,135.56 146.78,135.56 147.06,136.66 
		147.33,137.21 147.75,137.62 147.75,137.62 148.02,137.07 148.3,136.52 148.85,135.29 149.12,133.77 149.26,132.4 149.26,132.26 
		150.91,132.26 150.77,133.22 150.77,133.22 150.63,134.46 150.36,135.7 150.08,136.8 149.53,137.9 148.98,138.86 148.16,139.69 
		147.06,140.24 145.82,140.65 145.82,140.65 146.1,141.06 146.51,141.47 146.92,141.75 147.47,141.89 148.02,141.89 148.57,141.89 
		149.26,141.75 149.95,141.47 149.95,141.47 149.12,143.95 148.3,145.87 147.88,146.7 147.47,147.25 147.47,147.25 147.06,147.39 
		146.65,147.39 146.65,147.39 145,147.52 144.31,147.66 143.62,147.8 143.07,148.21 142.66,148.76 142.25,149.45 141.97,150.55 
		141.97,150.55 142.66,150.69 143.35,150.69 144.03,150.69 144.58,150.55 144.58,150.55 144.45,151.1 144.31,151.79 144.45,152.47 
		144.58,153.16 144.58,153.16 145.41,153.02 146.1,152.75 146.65,152.2 147.2,151.65 147.2,151.65 147.47,151.92 147.61,152.2 
		147.88,152.75 148.16,154.12 148.16,154.12 148.57,153.99 148.57,155.64 144.72,155.64 144.72,159.21 153.52,159.21 153.52,160.72 
		153.52,160.72 152.56,160.45 152.56,160.45 152.28,162.1 152.28,163.06 152.42,163.47 152.56,163.89 152.56,163.89 152.01,165.26 
		151.6,166.91 151.6,166.91 151.32,168.01 151.18,169.25 150.91,171.72 149.26,171.72 149.4,170.62 149.4,170.62 147.88,168.97 
		147.61,168.7 147.61,168.7 147.33,168.15 147.2,167.6 147.2,167.6 147.06,166.64 146.78,165.67 146.37,164.85 145.82,164.16 
		145.13,163.75 144.45,163.61 143.48,163.61 142.52,164.02 142.52,164.02 143.48,165.26 144.45,166.36 144.45,166.36 143.62,166.64 
		142.93,166.91 142.38,167.32 141.83,168.01 141.83,168.01 142.93,168.56 144.17,169.11 144.17,169.11 143.35,170.21 142.38,171.45 
		142.38,171.45 143.07,171.72 143.76,171.72 144.45,171.72 145.13,171.45 145.13,171.45 145.96,172.41 146.37,173.37 146.65,174.2 
		146.78,175.02 146.78,175.02 147.06,176.12 147.33,176.54 147.61,177.09 147.61,177.09 148.3,175.99 148.71,174.75 148.98,173.24 
		149.26,171.72 150.91,171.72 150.91,171.72 150.5,174.61 150.08,175.85 149.67,177.09 148.98,178.19 148.16,179.15 147.75,179.42 
		147.06,179.7 146.51,179.97 145.82,180.11 145.82,180.11 146.1,180.66 146.51,181.07 147.06,181.35 147.47,181.49 148.16,181.49 
		148.71,181.49 149.4,181.35 150.08,181.07 150.08,181.07 149.26,183.55 148.3,185.47 147.88,186.16 147.47,186.71 147.47,186.71 
		147.06,186.85 146.65,186.99 146.65,186.99 145,186.99 144.31,187.12 143.62,187.4 143.07,187.67 142.66,188.22 142.25,188.91 
		141.97,190.01 141.97,190.01 142.66,190.15 143.35,190.29 144.03,190.15 144.72,190.01 144.72,190.01 144.45,190.7 144.45,191.39 
		144.45,192.07 144.58,192.62 144.58,192.62 145.41,192.49 146.1,192.21 146.65,191.8 147.2,191.25 147.2,191.25 147.47,191.39 
		147.61,191.66 147.88,192.35 148.16,193.59 148.16,193.59 148.71,193.31 149.4,192.9 149.4,195.1 143.48,195.1 143.48,198.67 
		153.25,198.67 153.25,195.1 149.4,195.1 149.4,192.9 149.4,192.9 149.67,192.35 149.95,191.8 149.95,190.97 149.81,190.15 
		149.81,190.15 150.63,188.77 151.46,187.81 152.28,186.99 152.97,186.3 152.97,186.3 154.62,185.06 155.31,184.51 155.86,183.55 
		155.86,183.55 155.86,182.72 155.72,181.9 155.72,181.9 156.82,181.07 158.06,179.97 159.16,178.74 160.26,177.5 162.32,177.5 
		162.32,177.5 161.22,178.87 160.12,180.25 158.75,181.49 157.51,182.45 157.51,182.45 158.33,182.72 159.3,182.72 160.12,182.59 
		161.08,182.31 162.73,181.62 164.52,180.8 164.52,182.31 164.52,182.31 162.73,183.55 161.77,184.1 160.95,184.51 160.95,184.51 
		160.81,185.47 160.95,186.3 161.22,187.12 161.77,187.95 161.77,187.95 160.95,188.5 160.53,188.77 160.12,188.91 160.12,188.91 
		159.02,188.77 158.06,188.77 157.1,188.91 156.13,189.32 155.45,190.01 154.9,190.7 154.76,191.11 154.76,191.66 154.76,192.21 
		154.76,192.76 154.76,192.76 156,192.21 157.1,191.52 157.1,191.52 157.23,192.35 157.37,193.04 157.65,193.59 158.2,194.14 
		158.2,194.14 158.75,193.59 159.3,192.9 159.71,192.21 159.98,191.39 159.98,191.39 160.4,191.8 160.81,192.35 161.63,193.59 
		161.63,193.59 162.05,193.31 162.46,192.76 162.6,192.07 162.73,191.52 162.73,191.52 164.25,190.56 165.76,189.32 165.76,189.32 
		165.48,188.77 165.35,188.09 165.48,187.4 165.48,186.71 165.76,186.02 166.03,185.47 166.31,185.06 166.58,184.65 166.58,184.65 
		166.45,183.96 166.45,183.14 166.45,181.49 166.45,181.49 166.03,181.62 165.48,181.76 164.52,182.31 164.52,180.8 164.52,180.8 
		166.45,179.97 167.41,179.56 168.37,179.42 168.37,179.42 168.23,180.94 168.1,182.59 168.1,182.59 168.23,183.55 168.37,184.51 
		168.78,185.47 169.33,186.3 169.33,186.3 170.02,185.47 170.71,184.92 171.53,184.51 172.5,184.24 172.5,184.24 172.5,184.92 
		172.22,185.75 171.53,187.26 171.53,187.26 170.57,187.4 169.75,187.67 169.06,188.09 168.37,188.64 167.96,189.32 167.68,190.01 
		167.68,190.97 167.96,191.94 167.96,191.94 168.65,191.94 169.33,191.66 169.88,191.25 170.43,190.84 170.43,190.84 170.85,191.94 
		171.26,192.35 171.67,192.62 171.67,192.62 172.5,192.07 173.05,191.25 173.6,190.56 173.87,189.6 173.87,189.6 174.97,190.15 
		176.07,190.56 176.07,190.56 176.07,189.74 175.93,189.05 175.8,188.5 175.52,187.81 175.52,187.81 176.21,186.16 176.76,184.24 
		177.17,182.45 177.17,181.49 177.17,180.66 177.17,180.66 176.48,180.52 175.8,180.39 175.25,180.11 174.7,179.7 174.42,179.29 
		174.15,178.74 173.87,178.05 173.73,177.09 173.73,177.09 174.42,177.09 175.25,176.81 176.21,176.54 177.03,175.99 177.72,175.44 
		178.27,174.61 178.68,173.65 178.96,172.41 178.96,172.41 178.82,171.45 178.55,170.62 178,169.94 177.45,169.39 176.76,168.97 
		176.07,168.7 175.38,168.56 174.7,168.56 174.7,168.56 173.73,168.56 172.77,168.7 170.98,169.11 169.33,169.52 168.51,169.52 
		167.68,169.66 167.68,169.66 167.27,169.52 166.86,169.39 166.45,169.25 166.17,168.97 165.9,168.56 165.76,168.15 165.48,167.19 
		165.48,167.19 165.62,166.5 165.76,166.09 166.17,165.54 166.58,165.12 167,164.85 167.55,164.71 168.1,164.71 168.65,164.85 
		168.65,164.85 168.65,165.26 168.65,165.67 168.92,165.95 169.2,166.22 169.88,166.5 170.85,166.64 172.08,166.5 173.32,166.36 
		174.56,165.95 175.8,165.54 175.8,165.54 176.62,165.12 177.31,164.57 178,164.16 178.55,163.61 178.96,163.06 179.23,162.51 
		179.37,161.96 179.23,161.41 179.23,161.41 178.41,162.1 177.45,162.65 176.48,162.92 175.52,163.06 175.52,163.06 174.42,162.92 
		173.32,162.65 171.53,162.24 170.85,162.1 170.16,162.1 169.61,162.37 169.06,162.92 169.06,162.92 168.1,162.79 167,162.79 
		166.03,163.06 165.21,163.47 164.38,164.16 163.83,164.99 163.42,166.09 163.28,167.19 163.28,167.19 163.42,168.29 163.7,169.39 
		164.11,170.21 164.66,170.9 165.21,171.31 166.03,171.72 166.86,172 167.68,172 167.68,172 168.51,172 169.33,171.86 
		170.98,171.45 172.63,171.04 173.6,170.9 174.42,170.9 174.42,170.9 175.25,170.9 175.8,171.17 176.07,171.45 176.35,171.72 
		176.35,172.14 176.48,172.55 176.48,172.55 176.35,172.96 176.07,173.37 175.8,173.79 175.25,174.2 174.7,174.47 174.01,174.61 
		173.32,174.75 172.63,174.61 172.63,174.61 171.81,174.2 171.12,173.92 170.43,173.79 169.75,173.65 168.37,173.65 167.13,173.79 
		167.13,173.79 165.21,174.2 164.52,174.2 163.56,173.92 163.56,173.92 163.42,174.89 163.15,175.85 162.73,176.67 162.32,177.5 
		160.26,177.5 160.26,177.5 160.95,176.54 161.5,175.44 161.77,174.34 162.05,173.1 162.05,173.1 161.91,171.17 161.91,169.11 
		161.77,167.05 161.63,165.95 161.36,165.12 161.36,165.12 161.77,164.57 162.18,163.89 162.46,163.06 163.01,162.24 163.01,162.24 
		162.05,162.1 160.95,162.1 159.98,162.37 159.02,162.92 159.02,162.92 158.2,162.65 157.23,162.37 156.27,162.24 155.45,162.37 
		155.45,162.37 155.03,161.82 154.62,161.41 153.52,160.72 153.52,159.21 154.62,159.21 154.62,155.64 148.57,155.64 148.57,153.99 
		148.57,153.99 149.4,153.44 149.67,153.02 149.81,152.75 149.95,152.34 149.95,151.79 149.81,150.82 149.81,150.82 150.63,149.45 
		151.46,148.35 152.28,147.52 152.97,146.84 152.97,146.84 154.62,145.6 155.31,145.05 155.86,144.09 155.86,144.09 155.86,143.26 
		155.72,142.44 155.72,142.44 157.78,140.65 158.88,139.69 159.85,138.59 162.05,138.59 162.05,138.59 161.08,139.82 159.98,141.06 
		158.75,142.16 157.65,143.12 157.65,143.12 158.33,143.26 159.02,143.26 159.71,143.26 160.4,143.12 161.63,142.71 163.01,142.02 
		165.76,140.79 167.13,140.24 168.37,139.96 168.37,139.96 168.51,140.79 168.65,141.61 169.2,143.26 167.41,143.26 167.41,143.26 
		167.13,142.57 167,141.89 167,141.89 166.45,142.16 165.76,142.57 164.38,143.54 163.01,144.5 162.32,144.91 161.77,145.19 
		161.77,145.19 161.77,145.87 161.91,146.7 162.32,147.52 162.73,148.21 162.73,148.21 161.77,148.62 160.81,149.17 160.81,149.17 
		159.71,149.04 158.61,149.04 157.65,149.17 156.82,149.59 156,150.14 155.72,150.55 155.45,150.96 155.31,151.51 155.31,152.06 
		155.31,152.61 155.31,153.3 155.31,153.3 156.55,152.75 157.65,152.06 157.65,152.06 157.65,152.75 157.92,153.44 158.2,154.12 
		158.75,154.67 158.75,154.67 159.3,154.12 159.85,153.44 160.26,152.61 160.53,151.92 160.53,151.92 160.95,152.34 161.36,152.89 
		162.05,153.85 162.05,153.85 162.46,153.57 162.73,153.16 163.01,152.61 163.15,152.06 163.15,152.06 165.21,151.1 166.31,150.41 
		167.27,149.72 167.27,149.72 167,148.62 166.86,147.94 167,147.25 167.13,146.7 167.41,146.01 167.82,145.6 168.37,145.05 
		168.37,145.05 167.82,144.22 167.41,143.26 169.2,143.26 169.2,143.26 169.61,144.22 170.16,145.19 170.85,146.15 171.4,146.84 
		171.67,146.42 171.67,146.42 172.5,145.6 173.32,145.05 174.15,144.77 174.97,144.64 174.97,144.64 174.97,144.91 174.83,145.32 
		174.42,146.29 173.6,147.8 173.6,147.8 172.77,147.94 171.95,148.21 171.26,148.49 170.57,149.04 170.16,149.72 169.88,150.55 
		169.75,151.51 170.02,152.47 170.02,152.47 170.43,152.47 170.85,152.34 170.85,155.64 166.45,155.64 166.45,159.21 176.35,159.21 
		176.35,155.64 170.85,155.64 170.85,152.34 170.85,152.34 171.81,151.92 172.5,151.37 172.5,151.37 172.77,151.92 173.05,152.34 
		173.32,152.75 173.87,153.02 173.87,153.02 174.56,152.61 175.25,151.92 175.66,151.1 176.07,150.14 176.07,150.14 177.03,150.69 
		178.13,151.1 178.13,151.1 178.13,150.41 178.13,149.72 178,149.04 177.72,148.35 177.72,148.35 178.41,146.7 179.1,144.77 
		179.51,142.85 179.65,141.89 179.65,140.92 179.65,140.92 177.86,140.79 177.03,140.51 176.07,140.24 175.25,139.82 174.56,139.27 
		174.01,138.45 173.73,137.62 173.73,137.62 174.15,137.49 174.15,137.49 174.83,137.35 175.66,137.21 176.48,136.8 177.17,136.39 
		177.86,135.7 178.41,134.87 178.68,134.05 178.82,132.95 178.82,132.95 178.82,131.85 178.41,131.02 178,130.34 177.45,129.79 
		176.76,129.37 176.07,129.24 175.38,129.1 174.56,128.96 174.56,128.96 173.73,129.1 172.77,129.1 170.98,129.51 169.33,129.92 
		168.51,130.06 167.68,130.06 167.68,130.06 167.27,130.06 166.86,129.92 166.45,129.65 166.17,129.37 165.9,128.96 165.62,128.55 
		165.48,127.59 165.48,127.59 165.62,127.04 165.76,126.49 166.03,126.07 166.45,125.66 167,125.39 167.41,125.25 167.96,125.25 
		168.51,125.39 168.51,125.39 168.51,125.8 168.65,126.07 168.92,126.35 169.2,126.62 169.88,126.9 170.85,127.04 172.08,127.04 
		173.18,126.76 174.56,126.35 175.8,125.94 175.8,125.94 176.62,125.52 177.31,124.97 178,124.56 178.55,124.01 178.96,123.46 
		179.23,122.91 179.37,122.36 179.23,121.81 179.23,121.81 178.41,122.5 177.45,123.05 176.48,123.32 175.52,123.46 175.52,123.46 
		174.42,123.32 173.32,123.19 171.53,122.64 170.71,122.5 170.16,122.5 169.47,122.77 169.06,123.46 169.06,123.46 168.1,123.19 
		167,123.32 166.03,123.46 165.21,124.01 164.38,124.56 163.83,125.52 163.42,126.49 163.28,127.72 163.28,127.72 163.42,128.82 
		163.7,129.79 164.11,130.61 164.52,131.3 165.21,131.85 165.9,132.12 166.72,132.4 167.68,132.54 167.68,132.54 168.51,132.4 
		169.33,132.26 170.98,131.85 172.63,131.57 173.46,131.44 174.42,131.3 174.42,131.3 175.11,131.44 175.8,131.71 176.07,131.85 
		176.21,132.12 176.35,132.54 176.35,132.95 176.35,132.95 176.35,133.5 176.07,133.91 175.8,134.32 175.25,134.6 174.7,134.87 
		174.01,135.01 173.32,135.15 172.5,135.15 172.5,135.15 171.81,134.74 171.12,134.46 170.43,134.32 169.75,134.19 168.37,134.19 
		167.13,134.32 167.13,134.32 165.21,134.74 164.52,134.74 163.56,134.46 163.56,134.6 163.56,134.6 163.42,135.56 163.01,136.66 
		162.6,137.62 162.05,138.59 159.85,138.59 159.85,138.59 160.67,137.35 161.36,136.25 161.77,135.01 162.05,133.64 162.05,133.64 
		161.63,128.96 161.36,126.49 161.08,125.52 160.81,124.56 160.81,124.56 161.22,124.01 161.36,123.19 161.63,122.36 161.91,121.67 
		161.91,121.67 160.95,121.67 159.98,121.81 159.02,122.22 158.2,122.77 158.2,122.77 157.37,122.64 156.41,122.64 155.45,122.64 
		154.62,122.77 154.62,122.77 154.07,122.36 153.38,121.95 153.38,120.02 154.62,120.02 154.62,118.51 166.31,118.79 166.31,120.02 
		176.21,120.02 176.21,116.45 168.78,116.45 168.37,110.53 168.37,110.53 	"/>
</g>
</svg>
