<?xml version="1.0" encoding="UTF-8"?><svg id="uuid-e10e51fa-5a2b-4819-8407-7580f373319a" xmlns="http://www.w3.org/2000/svg" viewBox="0 0 64.91 48.68"><defs><style>.uuid-18bf60c0-76ae-442f-bccd-3cf83217685a{fill:#1d1d1b;}</style></defs><path class="uuid-18bf60c0-76ae-442f-bccd-3cf83217685a" d="M9.44,30.37h2.75c1.1,0,1.45,.81,1.45,1.52,0,1.09-.69,1.53-1.69,1.53h-1.98v2.53h-.53v-5.59Zm.53,2.56h1.77c.91,0,1.37-.34,1.37-1.04,0-.33-.06-1.04-1.15-1.04h-1.99v2.08Z"/><path class="uuid-18bf60c0-76ae-442f-bccd-3cf83217685a" d="M14.71,30.37h3.66v.48h-3.12v1.98h2.82v.49h-2.82v2.15h3.29v.49h-3.82v-5.59Z"/><path class="uuid-18bf60c0-76ae-442f-bccd-3cf83217685a" d="M19.72,30.37h2.47c1.15,0,1.63,.77,1.63,1.55,0,.96-.63,1.46-1.64,1.53l1.79,2.5h-.68l-1.77-2.48h-1.27v2.48h-.53v-5.59Zm.53,2.62h1.66c1.13,0,1.38-.57,1.38-1.07,0-.65-.34-1.07-1.29-1.07h-1.74v2.13Z"/><path class="uuid-18bf60c0-76ae-442f-bccd-3cf83217685a" d="M25.12,30.37h3.64v.48h-3.11v1.87h2.78v.49h-2.78v2.75h-.53v-5.59Z"/><path class="uuid-18bf60c0-76ae-442f-bccd-3cf83217685a" d="M31.96,30.22c1.79,0,2.61,1.45,2.61,2.93s-.82,2.93-2.61,2.93-2.6-1.45-2.6-2.93,.82-2.93,2.6-2.93Zm0,5.38c1.43,0,2.03-1.29,2.03-2.45s-.6-2.45-2.03-2.45-2.03,1.29-2.03,2.45,.6,2.45,2.03,2.45Z"/><path class="uuid-18bf60c0-76ae-442f-bccd-3cf83217685a" d="M35.57,30.37h2.47c1.15,0,1.63,.77,1.63,1.55,0,.96-.63,1.46-1.64,1.53l1.79,2.5h-.67l-1.77-2.48h-1.27v2.48h-.53v-5.59Zm.53,2.62h1.66c1.13,0,1.38-.57,1.38-1.07,0-.65-.34-1.07-1.29-1.07h-1.74v2.13Z"/><path class="uuid-18bf60c0-76ae-442f-bccd-3cf83217685a" d="M41.24,30.37h.65l1.81,4.67h.01l1.81-4.67h.65v5.59h-.53v-4.57h-.02l-1.74,4.57h-.36l-1.74-4.57h-.02v4.57h-.54v-5.59Z"/><path class="uuid-18bf60c0-76ae-442f-bccd-3cf83217685a" d="M47.76,30.37h.53v5.59h-.53v-5.59Z"/><path class="uuid-18bf60c0-76ae-442f-bccd-3cf83217685a" d="M49.72,30.37h.55l3.34,4.69h.01v-4.69h.56v5.59h-.55l-3.34-4.69h-.02v4.69h-.56v-5.59Z"/><path class="uuid-18bf60c0-76ae-442f-bccd-3cf83217685a" d="M59.45,31.9c-.28-.83-.75-1.19-1.56-1.19-1.42,0-2.02,1.29-2.02,2.45s.56,2.45,1.88,2.45c1.22,0,1.69-.97,1.69-1.8v-.31h-2.07v-.49h2.54v2.93h-.47v-.81h-.02c-.27,.68-.98,.95-1.67,.95-1.63,0-2.42-1.32-2.42-2.93,0-1.51,.79-2.93,2.52-2.93,1.06,0,1.7,.46,2.11,1.4l-.51,.27Z"/><path class="uuid-18bf60c0-76ae-442f-bccd-3cf83217685a" d="M6.29,38.4l2.17,5.59h-.57l-.63-1.68h-2.46l-.67,1.68h-.55l2.27-5.59h.43Zm.79,3.47l-1.04-2.75-1.07,2.75h2.1Z"/><path class="uuid-18bf60c0-76ae-442f-bccd-3cf83217685a" d="M9.32,38.4h2.47c1.15,0,1.63,.77,1.63,1.55,0,.96-.63,1.46-1.64,1.53l1.79,2.5h-.67l-1.77-2.48h-1.27v2.48h-.53v-5.59Zm.53,2.62h1.65c1.13,0,1.38-.57,1.38-1.07,0-.65-.35-1.07-1.29-1.07h-1.74v2.13Z"/><path class="uuid-18bf60c0-76ae-442f-bccd-3cf83217685a" d="M14.08,38.4h4.03v.49h-1.75v5.1h-.53v-5.1h-1.75v-.49Z"/><path class="uuid-18bf60c0-76ae-442f-bccd-3cf83217685a" d="M19.05,42.3c.05,.94,.64,1.33,1.57,1.33s1.53-.45,1.53-1.14c0-1.71-3.33-.64-3.33-2.82,0-1.02,1-1.42,1.78-1.42,.95,0,1.67,.31,1.99,1.25l-.49,.27c-.23-.73-.8-1.03-1.5-1.03-.57,0-1.25,.32-1.25,.93,0,1.66,3.33,.59,3.33,2.74,0,1.1-.77,1.71-2.06,1.71-1.12,0-1.9-.41-2.1-1.54l.53-.27Z"/><path class="uuid-18bf60c0-76ae-442f-bccd-3cf83217685a" d="M50.4,38.4h1.41l2.03,3.57h.02v-3.57h1.27v5.59h-1.4l-2.05-3.51h-.01v3.51h-1.27v-5.59Z"/><path class="uuid-18bf60c0-76ae-442f-bccd-3cf83217685a" d="M56.41,38.4h1.4v4.41h2.18v1.18h-3.58v-5.59Z"/><path class="uuid-18bf60c0-76ae-442f-bccd-3cf83217685a" d="M27.92,3.82h4.91v1.24h-3.3v1.35h3.06v1.25h-3.06v2.58h-1.6V3.82Z"/><path class="uuid-18bf60c0-76ae-442f-bccd-3cf83217685a" d="M36.79,10.42c-2.05,0-3.25-1.59-3.25-3.39s1.2-3.39,3.25-3.39,3.25,1.59,3.25,3.39-1.2,3.39-3.25,3.39Zm0-5.43c-.94,0-1.64,.6-1.64,2.04,0,.94,.38,2.04,1.64,2.04,1.19,0,1.64-1.05,1.64-2.04s-.45-2.04-1.64-2.04Z"/><path class="uuid-18bf60c0-76ae-442f-bccd-3cf83217685a" d="M41.23,3.82h1.62l2.33,4.1h.02V3.82h1.46v6.42h-1.6l-2.35-4.04h-.02v4.04h-1.46V3.82Z"/><path class="uuid-18bf60c0-76ae-442f-bccd-3cf83217685a" d="M48.09,3.82h2.49c1.96,0,3.27,.93,3.27,3.21s-1.32,3.21-3.27,3.21h-2.49V3.82Zm1.61,5.07h.92c1.2,0,1.63-.82,1.63-1.86s-.43-1.86-1.64-1.86h-.91v3.72Z"/><path class="uuid-18bf60c0-76ae-442f-bccd-3cf83217685a" d="M55.66,8.32c.56,.51,1.09,.8,1.86,.8,.42,0,1.2-.18,1.2-.74,0-.32-.25-.49-.72-.57l-1.33-.22c-1.19-.19-1.84-.82-1.84-1.77,0-1.55,1.25-2.19,2.62-2.19,1.06,0,2.11,.43,2.83,1.23l-1.22,.88c-.42-.51-1.04-.81-1.72-.81-.37,0-.91,.23-.91,.65,0,.34,.28,.51,.89,.61l.61,.1c1.28,.21,2.33,.6,2.33,1.83,0,1.93-1.74,2.29-2.94,2.29-1.09,0-2.02-.35-2.89-1.31l1.23-.79Z"/><path class="uuid-18bf60c0-76ae-442f-bccd-3cf83217685a" d="M22.18,12.67h3.18c1.73,0,2.37,.9,2.37,2.17,0,.85-.48,2.17-2.68,2.17h-1.25v2.07h-1.62v-6.42Zm1.6,3.16h1.35c.73,0,.99-.48,.99-.97,0-.64-.31-.99-1.04-.99h-1.31v1.97Z"/><path class="uuid-18bf60c0-76ae-442f-bccd-3cf83217685a" d="M31.79,19.27c-2.05,0-3.25-1.59-3.25-3.39s1.2-3.39,3.25-3.39,3.25,1.59,3.25,3.39-1.2,3.39-3.25,3.39Zm0-5.43c-.94,0-1.64,.59-1.64,2.04,0,.94,.38,2.04,1.64,2.04,1.19,0,1.64-1.04,1.64-2.04s-.45-2.04-1.64-2.04Z"/><path class="uuid-18bf60c0-76ae-442f-bccd-3cf83217685a" d="M36.11,12.67h2.49c1.96,0,3.27,.93,3.27,3.21s-1.32,3.21-3.27,3.21h-2.49v-6.42Zm1.6,5.07h.92c1.2,0,1.63-.82,1.63-1.86s-.43-1.86-1.64-1.86h-.91v3.71Z"/><path class="uuid-18bf60c0-76ae-442f-bccd-3cf83217685a" d="M43.06,12.67h1.61v6.42h-1.61v-6.42Z"/><path class="uuid-18bf60c0-76ae-442f-bccd-3cf83217685a" d="M51.63,16.85c0,1.76-1.56,2.42-2.85,2.42s-2.84-.66-2.84-2.42v-4.18h1.68v4.05c0,.72,.29,1.25,1.16,1.25s1.17-.53,1.17-1.25v-4.05h1.68v4.18Z"/><path class="uuid-18bf60c0-76ae-442f-bccd-3cf83217685a" d="M53,12.67h2.35l1.14,4.77h.02l1.17-4.77h2.33v6.42h-1.51v-4.98h-.02l-1.27,4.98h-1.42l-1.31-4.98h-.02v4.98h-1.46v-6.42Z"/><path class="uuid-18bf60c0-76ae-442f-bccd-3cf83217685a" d="M15.52,21.52h1.6v2.56l2.3-2.56h2.13l-2.33,2.43,2.41,3.99h-1.78l-1.75-2.85-.96,.98v1.87h-1.6v-6.42Z"/><path class="uuid-18bf60c0-76ae-442f-bccd-3cf83217685a" d="M27.91,25.7c0,1.76-1.49,2.42-2.72,2.42s-2.71-.66-2.71-2.42v-4.18h1.6v4.05c0,.72,.28,1.25,1.11,1.25s1.12-.53,1.12-1.25v-4.05h1.61v4.18Z"/><path class="uuid-18bf60c0-76ae-442f-bccd-3cf83217685a" d="M29.15,21.52h1.62l2.33,4.1h.02v-4.1h1.46v6.42h-1.6l-2.35-4.04h-.02v4.04h-1.46v-6.42Z"/><path class="uuid-18bf60c0-76ae-442f-bccd-3cf83217685a" d="M36.83,26.02c.56,.51,1.09,.8,1.86,.8,.42,0,1.2-.18,1.2-.74,0-.32-.24-.49-.72-.57l-1.33-.22c-1.19-.19-1.84-.82-1.84-1.77,0-1.55,1.25-2.19,2.62-2.19,1.06,0,2.11,.43,2.83,1.23l-1.22,.87c-.42-.52-1.05-.81-1.72-.81-.37,0-.91,.23-.91,.65,0,.34,.28,.51,.89,.61l.61,.1c1.28,.21,2.33,.6,2.33,1.83,0,1.93-1.74,2.29-2.94,2.29-1.09,0-2.02-.35-2.89-1.31l1.23-.79Z"/><path class="uuid-18bf60c0-76ae-442f-bccd-3cf83217685a" d="M42.29,21.52h5.12v1.24h-1.68v5.18h-1.6v-5.18h-1.84v-1.24Z"/><path class="uuid-18bf60c0-76ae-442f-bccd-3cf83217685a" d="M48.47,27.94v-6.42h4.72v1.24h-3.12v1.17h2.91v1.24h-2.91v1.52h3.39v1.24h-4.99Z"/><path class="uuid-18bf60c0-76ae-442f-bccd-3cf83217685a" d="M54.54,21.52h1.62l2.34,4.1h.02v-4.1h1.46v6.42h-1.61l-2.35-4.04h-.02v4.04h-1.46v-6.42Z"/><path class="uuid-18bf60c0-76ae-442f-bccd-3cf83217685a" d="M26.75,38.37h3.65v.49h-3.12v1.87h2.79v.49h-2.79v2.75h-.54v-5.6Z"/><path class="uuid-18bf60c0-76ae-442f-bccd-3cf83217685a" d="M35.62,42.16c0,1.28-.82,1.96-2.06,1.96s-2.06-.68-2.06-1.96v-3.78h.54v3.77c0,1.09,.68,1.49,1.53,1.49s1.53-.39,1.53-1.49v-3.77h.54v3.78Z"/><path class="uuid-18bf60c0-76ae-442f-bccd-3cf83217685a" d="M36.81,38.37h.53l3.2,4.71h.02v-4.71h.54v5.6h-.53l-3.2-4.71h-.01v4.71h-.54v-5.6Z"/><path class="uuid-18bf60c0-76ae-442f-bccd-3cf83217685a" d="M42.35,38.37h2.2c1.72,0,2.21,1.57,2.21,2.8s-.54,2.8-2.36,2.8h-2.05v-5.6Zm.54,5.12h1.49c1.39,0,1.86-1.19,1.86-2.31,0-1.04-.43-2.31-1.75-2.31h-1.6v4.63Z"/></svg>